<svg xmlns="http://www.w3.org/2000/svg" fill="none" viewBox="0 0 456 244" preserveAspectRatio="none"><path fill="#0F0D09" d="M88.248 1.986c.1 0 18.272-1.096 18.272-1.096s64.756-.896 64.957-.796c.201.1 76.401 1.597 76.401 1.597l5.623-1s14.557 1.7 14.658 1.8c0 .1 11.947-1 11.947-1l20.681-.6 40.159 1.691 40.158-1.492 10.642.8 13.755-1.3L456 1.89l-6.225 13.603 1.004 4 2.31 6.002s-.201 7.301-.302 7.201c-.1 0-1.907 20.004-1.907 20.004s3.514 26.105 3.514 26.304c0 .1-1.707 6.002-1.707 6.002s-.201 3.2-.201 3.3c0 .1-.703 34.006-.703 34.006l-.401 7.902 3.012 18.703-1.205 10.602-.703 27.805.603 28.405-1.306 7.902-1.004 18.603s-8.433.7-8.533.6c-.101 0-1.105-.2-1.305-.3-.201-.1-2.209.8-2.209.8s-131.921.1-132.021 0c-.101-.1-10.241.6-10.241.6s-8.734-.4-9.035-.4h-19.778l-7.129-1.5s-96.982 1-97.685.8c-.703-.2-7.63-1.7-7.63-1.7s-44.877.9-44.978.9c-.1 0-15.963.4-15.963.4l-21.184 1-69.474-2.9 2.61-9.802-.702-4.401s-1.506-7.701-1.506-7.901c0-.1.401-8.602.401-8.602l-1.305-8.901.603-5.401.502-18.304s.903-6.601.903-7.601-.903-4.201-.903-4.201l.2-8.501-1.405-10.902 1.907-9.902 1.61-15.903-1.51-8.602-1.907-11.902.402-14.903.502-11.202S4.719 51.1 4.719 51c0-.1-3.012-11.002-3.012-11.002l1.405-6.5L0 21.793l6.225-11.502L.602.39s87.546 1.596 87.646 1.596zM14.156 8.492l-2.209 7.601.402 3.8L7.63 29.897s3.916 9.301 3.916 10.102c0 .8.401 4.3.401 5.2 0 .9-1.506 7.602-1.506 7.602l2.209 3.3-4.317 12.403s.401 8.301-.2 11.802l1.907 4.2 1.305 6.902s-.402.6-.703 1.2c-.301.6-2.008 4-1.908 4.8.201.801.703 14.703.703 14.703l3.313 2.401 1.205 16.103-5.923 18.103 1.907 6.501.703 9.902 1.606 16.903-1.706 5.901 1.004 4.901-2.61 5.801.702 15.703 3.514 18.603 5.421 3.101 45.68-2.501s9.639 2.101 9.74 2.101c.1 0 9.035-1.4 9.035-1.4s6.827.5 6.927.5c.1 0 3.414-.7 3.414-.7l3.212 3 4.719-.4 2.911-1.5 49.195 1.7 4.718-.5 94.574 2.1 19.276-2.5s11.043 4.401 11.043 4.501c0 .1 3.012-2.201 3.112-2.201.101 0 4.92-1.3 5.221-1.3.301 0 4.217 2.1 4.217 2.1l3.714-1.6 83.329-.5 5.522-1.3 4.92-1.2 8.634-.1 38.05 1.7s3.915-1 4.819-1.1c.903-.1-.201-13.203-.201-13.203l3.313-5.801-2.51-5.301s0-4 .101-4.3c.1-.201 2.108-2.301 2.108-2.301s-1.807-2.7-2.209-9.402c-.502-6.701.201-8.001.201-8.001l1.606-5.001 2.008-9.702-3.815-10.102s2.61-14.102 3.614-16.603c0 0-1.907-13.002-2.409-15.602-.502-2.601-.803-2.701-.703-4.501.101-1.8.502-3.601.803-3.901.302-.3 3.815-5.701 3.514-8.201-.301-2.501-3.313-5.601-3.212-7.402.2-1.8.602-2.1.903-3.8.402-1.701 1.305-7.702.301-10.402-1.004-2.6-1.807-.7-1.004-3.7.804-3.001 2.008-9.603 2.008-9.803v-2S446.663 62 446.663 60.9c0-1.1-.1-11.002-.1-11.402 0-.4-1.004-11.102-.904-11.202.101-.1 2.61-6.501 2.61-6.501l-4.618-10.602-2.208-8.401-2.31-4.501-44.776-.2-14.457 2.7-4.92-1.7-69.876-.8-5.22-3.3s-11.144 6.4-22.389 1.5l-13.553 1.1s-9.939 3.2-10.04 3.2c-.1 0-100.798-5-100.798-5l-60.539 1.8-10.34-2.3-62.146 4.6-5.923-1.4z"/></svg>