<svg xmlns="http://www.w3.org/2000/svg" viewBox="0 0 451.3 243" preserveAspectRatio="none" ><defs/><g opacity=".7"><path fill="#c4c4c4" d="M60.1 2.9c-1.3.1-55.3-.5-55.3-.5C1 1.9 1 3.9 1.9 7.9c0 0-.7 1.7-.9 3.3-.1 1.5.8 2.8.8 3.4 0 .6-.8 4.9-.8 5.7 0 .8-.4 1.1-.9 1.9-.5.8 1.4 7.4 1.4 7.4l.6 19.1s-.2 11.8-.2 11.9c0 .1.4 20.2.4 20.2L2.1 88 2 101.5s.1 8.4.2 8.6c.1.2-.5 8.3-.5 8.3l-.3 4 .5 6 .2 20.3 2-16.3.1-4 .8-5.6-.8-2.3.2-14.9-.4-4.3v-3.9l.4-6.2V75.6l-.2-5.4.1-6.4.6-6.8-.2-8.7s-.2-6.6-.5-7.9c-.4-1.3-.2-9.5-.2-9.5l.4-3.2-.2-2.7-.2-2.4.2-1.5.2-4.2.3-11.2h5.4s54.6.2 56.5.1c1.8 0 3.7-1.9 3.7-1.9s.7-.3 1.9-.5 2.4-.8 2.4-.8-3.7-.1-5-.1-8.2.3-9.5.4zM4.4 182.4c.1 1.3-.5 54.5-.5 54.5-.5 3.8 1.5 3.8 5.5 2.9 0 0 1.7.7 3.3.9 1.5.1 2.8-.8 3.4-.8.6 0 5 .8 5.8.8.8 0 1.1.4 1.9.9.8.5 7.5-1.4 7.5-1.4l19.3-.6s12 .2 12.1.2 20.5-.4 20.5-.4l7.4.2 13.6.1s8.5-.1 8.7-.2c.2-.1 8.4.5 8.4.5l4.1.3 6.1-.5 20.6-.2-16.5-2-4-.1-5.7-.8-2.3.8-15.1-.2-4.5.4h-3.9l-6.3-.4H78l-5.5.2-6.5-.1-6.9-.6-8.8.2s-6.7.2-8 .5c-1.3.4-9.6.2-9.6.2l-3.2-.4-2.7.2-2.5.2-1.5-.2-4.3-.2-11.3-.3v-5.3s.2-53.8.1-55.7c0-1.8-1.9-3.7-1.9-3.7s-.3-.7-.5-1.9-.8-2.4-.8-2.4-.1 3.8-.1 5.1c0 1.2.3 8.1.4 9.3z" opacity=".7"/><path fill="#d3c8ac" d="M71.4 237.9c.1.2 6.2 3.6 6.2 3.6h10.6c.1 0 4.9.4 8.9.6s10.3.4 10.3.4l1.5-.7 44.9.6 16-.1 74.8-.5 1.7.8 5.2-.2s3.3.7 3.8.7 7.9.1 8.4-.5c.5-.5 1.2-1 1.2-1l3.1.6s.3.5.4.5c.1 0 9.7-1.9 12.7-1.3 3 .5 6.4.7 7.5.8 1.1.1 4 0 4 0l.7-.6.5.6s4.3.1 5.2.1c.8 0 3.5-.2 4.4-.3.9 0 2.3.2 3.4.3 1.1.1 62.9-.3 63.7-.3s8.5-.2 10.8-.2c2.3 0 6.6.2 7 .2.5 0 2.7-1.8 2.7-1.8s-2.8-.8-4.3-.8-2.3-.2-2.9-.2c-.6 0-1.3-1.1-2.6-1.2-1.4-.1-4.4 0-4.4 0h-3.6s-2.1 1-3.5 1h-67.8c-.2 0-3.8.2-3.9.2-.1 0-5-.5-5-.5l-4.6.1-1.6.5-4.5-.1-2.3-.2-8 .2s-3.4 0-3.4-.1-5.5 0-5.7 0-1.8.3-1.8.3l-1.9-1-4.7-.1-2.5.4-2.4.1-2.8-.3-1.9.1-79.5.1h-4.1l-2.9.5-2-.3-2.2-.2-45.2-.1-5.4.4h-4.2l-6.5-.9-5.1-.3h-4.2l-1.7.3-2.7-.6s-4.5 1.2-5.3 1.1c-1.1-.4-2.5-.7-2.5-.7zM131.6 1c.1.2 6.2 3.6 6.2 3.6h10.6c.1 0 4.9.4 8.9.6 4 .2 10.3.4 10.3.4l1.5-.7 44.9.6 16-.1 74.8-.5 1.7.8 5.2-.2s3.3.7 3.8.7 7.9.1 8.4-.5c.5-.5 1.2-1 1.2-1l3.1.6s.3.5.4.5c.1 0 9.7-1.9 12.7-1.3 3 .5 6.4.7 7.5.8 1.1.1 4 0 4 0l.7-.6.5.6s4.3.1 5.2.1c.8 0 3.5-.2 4.4-.3.9 0 2.3.2 3.4.3 1.1.1 62.9-.3 63.7-.3.8 0 8.5-.2 10.8-.2 2.3 0 6.6.2 7 .2.5 0 2.7-1.8 2.7-1.8s-2.8-.8-4.3-.8-2.3-.2-2.9-.2c-.6 0-1.3-1.1-2.6-1.2-1.4-.1-4.4 0-4.4 0h-3.6s-2.1 1-3.5 1h-67.8c-.2 0-3.8.2-3.9.2-.1 0-5-.5-5-.5l-4.6.1-1.6.5-4.5-.1-2.3-.2-8 .2s-3.4 0-3.4-.1-5.5 0-5.7 0c-.2 0-1.8.3-1.8.3l-1.9-1-4.7-.1-2.5.4-2.4.1-2.8-.3-1.9.1-79.5.1h-4.1l-2.9.5-2-.3-2.2-.2-45.2-.1-5.4.4h-4.2l-6.5-.9-5.1-.3h-4.2l-1.7.3-2.7-.6s-4.5 1.2-5.3 1.1c-1.1-.4-2.5-.7-2.5-.7zM445.9 226c.2-.1 3.6-4 3.6-4v-6.9c0-.1.4-3.2.6-5.8.2-2.6.4-6.7.4-6.7l-.7-1 .6-29-.1-10.3-.5-48.3.8-1.1-.2-3.4s.7-2.1.7-2.5c0-.3.1-5.1-.5-5.4-.5-.3-1-.8-1-.8l.6-2s.5-.2.5-.3c0-.1-1.9-6.3-1.3-8.2.5-1.9.7-4.1.8-4.8.1-.7 0-2.6 0-2.6l-.6-.5.6-.3s.1-2.8.1-3.4c0-.5-.2-2.3-.3-2.8 0-.6.2-1.5.3-2.2.1-.7-.3-40.6-.3-41.1s-.2-5.5-.2-7 .2-4.3.2-4.5c0-.3-1.8-1.7-1.8-1.7s-.8 1.8-.8 2.8c0 1-.2 1.5-.2 1.9s-1.1.8-1.2 1.7c-.1.9 0 2.8 0 2.8v2.3s1 1.4 1 2.3V77c0 .1.2 2.5.2 2.5 0 .1-.5 3.2-.5 3.2l.1 3 .5 1-.1 2.9-.2 1.5.2 5.2s0 2.2-.1 2.2 0 3.6 0 3.7c0 .1.3 1.2.3 1.2l-1 1.2-.1 3 .4 1.6.1 1.6-.3 1.8.1 1.2.1 51.3v2.7l.5 1.9-.3 1.3-.2 1.4-.1 29.2.4 3.5v2.7l-.9 4.2-.3 3.3v2.7l.3 1.1-.6 1.7s1.2 2.9 1.1 3.4c-.4.9-.7 1.8-.7 1.8z" opacity=".7"/><g fill="#d3c8ac" opacity=".7"><path d="M391.2 239.6c.4 0 3.2-.9 3.8-1.2.6-.3 2.1-1 3.1-1s34.9-.1 34.9-.1h12.7s.1-18.3.2-19.6c.1-1.4.6-3.7.4-6.5-.2-2.9-.2-5.9-.2-5.9s2.3 8.3 2.3 8.4-.1 2.3-.1 2.3-.4 9.4-.1 12.9c.3 3.6.2 8.3.2 8.3 0 1.4.6 2.9-.2 2.9 0 .8-6.2 0-6.8 0-17.2 0-23.2-2.9-42.6-1-1.1.3-7.6.5-7.6.5zM392.9 2.4c.4 0 3.2.9 3.8 1.2.6.3 2.1 1 3.1 1s34.9.1 34.9.1h12.7s.1 18.3.2 19.6c.1 1.4.6 3.7.4 6.5-.2 2.9-.2 5.9-.2 5.9s2.3-8.3 2.3-8.4c0-.1-.1-2.3-.1-2.3s-.4-9.4-.1-12.9c.3-3.6.2-8.3.2-8.3 0-1.4.6-2.9-.2-2.9 0-.8-6.2 0-6.8 0-17.2 0-23.2 2.9-42.6 1-1.1-.3-7.6-.5-7.6-.5z" opacity=".7"/></g><path fill="#d3c8ac" d="M298.6 1.3s-9.8 2.4-10.7 2.2c-.8-.2-7.6-1-9.1-1.1-1.5 0-2.5.8-3.4.8-.9 0-1.4.5-3.9.3-2.4-.2-4.8-.2-5.9-.2-1.1 0-1.9.4-3.3.3-1.4-.1-7.3-1.7-8.2-1.5-.9.2-2.9.5-4.6.6-1.7.1-3.4 0-5 0H167c-.8 0-2.1.1-3.1.1s-4-1.1-4.9-1.1-4.9.8-5.5.7c-.5-.1-1-.4-1-.4s-1.8 1.5-1.9 1.6c-.1.1-40.9-.6-40.9-.7 0-.1-8.1-.8-8.1-.8s2.5-.8 4.2-1.1c1.7-.3 45.7-1 45.7-1s7.3.3 7.4.3c.1 0 9 .5 9.1.5h83c.1 0 5.6-.6 5.6-.6s4.1 1.4 6.8 1c2.7-.5 3.1-.7 3.9-.7h13.1s1.1 1 3.3.5c2.2-.5 4.8-.7 5-.6.2 0 .2 1 1.4.8 1-.3 8.5.1 8.5.1zM97 3.3L86.6 5l-9.8-.9 4-1.5 16.2.7z" opacity=".7"/></g></svg>