
<svg preserveAspectRatio="none" viewBox="0 0 239 65" fill="none"
    xmlns="http://www.w3.org/2000/svg"><g opacity="0.5">
    <path d="M235.911 59.7383C236.685 58.9223 235.973 58.1165 236.759 57.302C236.928 52.945 236.501 48.5873 235.476 44.2538V44.235C235.476 44.1622 235.546 43.7585 235.661 43.1952C236.3 40.1573 236.901 37.3463 235.757 34.2841C236.531 34.1214 236.146 33.7975 236.046 33.6911L236.173 32.9337L236.685 29.9201C236.724 29.6877 236.762 29.4608 236.801 29.241C237.872 22.7802 237.19 16.2725 239 9.82036C238.253 9.32982 237.972 7.56715 237.225 7.08052C237.228 6.6956 237.128 6.31224 236.928 5.93827C237.094 5.48763 237.14 5.14417 236.709 5.20206C236.632 5.18016 236.547 5.16295 236.462 5.15043C236.193 4.7702 235.977 4.38293 235.815 3.99096C233.878 4.46273 231.163 4.7655 229.226 5.23883C222.637 4.96501 216.171 5.10505 209.64 4.57539C207.483 4.42361 205.303 4.35163 203.12 4.36259C202.346 4.52062 201.957 4.68179 201.183 4.67475C194.393 5.0096 188.366 5.24822 181.612 4.6904C175.8 4.73186 169.954 4.75142 164.128 4.78898L163.939 4.76629C163.654 4.76394 163.369 4.77411 163.088 4.79758C159.399 4.82731 155.659 4.87582 152.012 5.00178C151.308 5.02603 150.588 5.05576 149.875 5.08158C148.292 5.14026 146.798 5.16451 145.358 5.16686C144.534 4.91728 143.54 4.79993 142.547 4.83435C141.684 4.70292 139.997 4.82575 138.091 5.00804C134.841 4.89225 131.563 4.74829 127.812 4.72013C122.814 4.06685 117.572 4.31486 112.578 3.65768C111.877 3.75469 111.176 3.83136 110.471 3.89317L110.256 3.85327C109.562 3.92446 108.873 3.99331 108.184 4.06842C106.196 4.2022 104.213 4.30939 102.226 4.58869C90.0799 4.28357 78.1262 3.72183 65.9646 4.21941L64.9364 4.12475C64.5551 4.04886 64.143 4.01052 63.7271 4.01209C60.9813 3.75547 58.197 3.50433 55.3511 3.27197C54.6001 3.20782 53.8376 3.14914 53.0674 3.09829L50.7645 3.08107C48.269 3.32361 45.7774 3.68037 43.2858 3.9495C42.8506 3.90099 42.4154 3.85405 41.9803 3.80241C38.4411 3.71088 34.9598 3.56849 31.4862 3.45583C30.87 3.40106 30.2654 3.33065 29.6685 3.24459L27.9817 3.37446C24.5003 3.28918 21.0036 3.31422 17.5222 3.44879L16.2899 3.60839L16.1705 3.61856C15.5544 3.55597 14.9574 3.46522 14.3836 3.34786C13.4363 3.34786 12.4235 3.34786 11.3952 3.37524C8.39911 2.92538 5.4184 2.25646 4.24768 3.33613C4.22458 3.68271 4.24768 4.07624 4.24768 4.48855C3.89724 4.63876 3.5853 4.80697 3.31958 4.98926C3.34654 5.68243 3.38505 6.20271 3.51598 6.95299C3.57375 7.2808 3.63922 7.62192 3.70468 7.95129C3.95885 9.71239 3.44281 11.5283 3.62381 13.3238C3.00379 14.9597 4.39017 16.4431 5.64176 17.9507C5.32213 21.1357 5.11032 24.2518 5.64176 27.4337L7.30927 30.2635C7.65586 32.1436 7.57499 34.0353 7.0705 35.9083C6.36191 37.2845 5.64946 38.6606 4.94472 40.0384C4.58272 43.3314 5.13342 46.5617 5.68412 49.8422C6.01531 50.6488 6.19631 51.4672 6.22327 52.2879C6.03072 52.8433 6.03072 53.4082 6.22327 53.9637C6.03457 57.3435 4.91006 60.7523 5.32598 64.1313C6.64689 65.2907 9.86251 64.445 12.978 63.9912C14.4992 64.0836 16.0396 64.1195 17.5723 64.0984C17.7495 64.0601 17.9613 64.0272 18.1346 63.9944L18.331 64.0202C22.3938 64.1876 26.4836 64.1978 30.5503 64.0499C31.2705 64.107 31.956 64.1626 32.576 64.208C33.454 64.0804 34.3475 63.9772 35.2525 63.8997C37.5785 63.8183 39.9469 63.726 42.323 63.6689C42.9238 63.5961 43.5245 63.5265 44.1253 63.4608L44.7376 63.3849C47.5835 63.6587 50.4333 64.0922 53.2638 64.3902L55.5244 64.373C56.2754 64.3159 57.0225 64.2572 57.758 64.1993C60.9698 63.9224 64.1007 63.6329 67.2162 63.3325C78.6962 63.7033 89.9412 63.1924 101.402 62.8959C104.795 63.374 108.18 63.3481 111.569 63.8246C116.467 63.1674 121.612 63.417 126.511 62.7637C130.493 62.7309 134.479 62.5595 138.449 62.4171C140.502 62.6268 142.354 62.7825 143.274 62.6409C144.203 62.6784 145.131 62.5775 145.916 62.353C146.656 62.3671 147.407 62.3858 148.188 62.4156C148.885 62.4414 149.594 62.4742 150.283 62.4969C159.788 62.8005 169.627 62.7449 179.313 62.8122C185.948 62.256 191.832 62.493 198.502 62.831C199.253 62.831 199.627 62.9867 200.374 63.1447C202.519 63.1549 204.66 63.0837 206.774 62.9319C213.186 62.403 219.541 62.5439 226.018 62.27C227.882 62.7434 230.505 63.0485 232.365 63.5195C232.561 63.1119 232.811 62.7097 233.116 62.3146C234.101 62.3772 235.099 62.4445 235.638 62.2873C236.782 62.4351 234.779 59.7453 235.911 59.7383Z" fill="#000000"/>
</g>
</svg>