<svg preserveAspectRatio="none" viewBox="0 0 163 47" fill="none" xmlns="http://www.w3.org/2000/svg"><g opacity="0.5"><path d="M160.898 43.3848C161.425 42.7922 160.94 42.207 161.475 41.6155C161.59 38.4512 161.299 35.2864 160.602 32.1392V32.1256C160.602 32.0727 160.649 31.7795 160.728 31.3704C161.163 29.1642 161.572 27.1226 160.793 24.8987C161.32 24.7806 161.058 24.5453 160.99 24.4681L161.076 23.9181L161.425 21.7294C161.451 21.5606 161.477 21.3959 161.504 21.2362C162.232 16.5441 161.768 11.8179 163 7.132C162.492 6.77574 162.3 5.49561 161.792 5.1422C161.794 4.86265 161.726 4.58423 161.59 4.31264C161.703 3.98536 161.734 3.73592 161.441 3.77797C161.388 3.76206 161.331 3.74956 161.273 3.74047C161.09 3.46433 160.943 3.18307 160.833 2.89841C159.515 3.24103 157.667 3.46092 156.349 3.80467C151.865 3.60581 147.466 3.70751 143.021 3.32285C141.554 3.21262 140.071 3.16035 138.585 3.1683C138.058 3.28308 137.793 3.40012 137.267 3.39501C132.647 3.6382 128.546 3.81149 123.949 3.40637C119.995 3.43649 116.017 3.45069 112.052 3.47797L111.924 3.46149C111.73 3.45978 111.536 3.46717 111.345 3.48422C108.834 3.50581 106.29 3.54103 103.808 3.63251C103.329 3.65013 102.839 3.67172 102.354 3.69047C101.277 3.73308 100.26 3.7507 99.2802 3.7524C98.7194 3.57115 98.0433 3.48592 97.3672 3.51092C96.7803 3.41546 95.6325 3.50467 94.3354 3.63706C92.1237 3.55297 89.8936 3.44842 87.3413 3.42796C83.9399 2.95353 80.3734 3.13364 76.9746 2.65636C76.4977 2.72682 76.0208 2.7825 75.5412 2.82739L75.3945 2.79841C74.9228 2.85011 74.4537 2.90012 73.9847 2.95466C72.6325 3.05182 71.283 3.12966 69.9308 3.33251C61.6658 3.11091 53.5318 2.70295 45.2563 3.06432L44.5566 2.99557C44.2972 2.94046 44.0168 2.91262 43.7338 2.91375C41.8654 2.72739 39.9708 2.545 38.0343 2.37624C37.5233 2.32965 37.0044 2.28704 36.4803 2.25011L34.9133 2.23761C33.2152 2.41374 31.5197 2.67284 29.8243 2.8683C29.5282 2.83307 29.2321 2.79898 28.9359 2.76148C26.5277 2.695 24.1588 2.59159 21.7951 2.50977C21.3758 2.47 20.9644 2.41886 20.5583 2.35636L19.4105 2.45068C17.0416 2.38874 14.6622 2.40693 12.2933 2.50465L11.4547 2.62057L11.3735 2.62795C10.9542 2.5825 10.548 2.51659 10.1576 2.43136C9.51292 2.43136 8.82373 2.43136 8.12406 2.45125C6.08532 2.12454 4.05707 1.63873 3.26044 2.42284C3.24472 2.67454 3.26044 2.96034 3.26044 3.25978C3.02198 3.36887 2.80972 3.49103 2.62891 3.62342C2.64725 4.12684 2.67345 4.50469 2.76255 5.04958C2.80186 5.28765 2.84641 5.53538 2.89095 5.77459C3.06391 7.05359 2.71276 8.37236 2.83592 9.67636C2.41403 10.8644 3.3574 11.9417 4.20906 13.0366C3.99156 15.3497 3.84743 17.6128 4.20906 19.9237L5.34373 21.9788C5.57957 23.3442 5.52454 24.7181 5.18126 26.0783C4.69909 27.0778 4.2143 28.0772 3.73475 29.0778C3.48842 31.4693 3.86315 33.8154 4.23788 36.1978C4.46324 36.7836 4.58641 37.3779 4.60475 37.9739C4.47373 38.3774 4.47373 38.7876 4.60475 39.191C4.47635 41.6456 3.71117 44.1212 3.99418 46.5752C4.893 47.4173 7.08111 46.8031 9.20108 46.4735C10.2362 46.5406 11.2844 46.5667 12.3273 46.5514C12.4479 46.5235 12.592 46.4996 12.7099 46.4758L12.8436 46.4945C15.6082 46.6161 18.3911 46.6235 21.1583 46.5161C21.6484 46.5576 22.1148 46.5979 22.5367 46.6309C23.1342 46.5383 23.7421 46.4633 24.358 46.407C25.9407 46.3479 27.5523 46.2809 29.1692 46.2394C29.578 46.1866 29.9868 46.136 30.3955 46.0883L30.8122 46.0332C32.7487 46.232 34.6879 46.5468 36.614 46.7633L38.1522 46.7508C38.6632 46.7093 39.1716 46.6667 39.6721 46.6246C41.8575 46.4235 43.988 46.2133 46.108 45.9951C53.9196 46.2644 61.5714 45.8934 69.37 45.678C71.6786 46.0252 73.9821 46.0065 76.2881 46.3525C79.6213 45.8752 83.1223 46.0565 86.4556 45.582C89.1651 45.5582 91.8773 45.4337 94.5791 45.3303C95.9758 45.4826 97.2362 45.5957 97.8625 45.4928C98.4941 45.5201 99.1256 45.4468 99.6602 45.2837C100.163 45.2939 100.674 45.3076 101.206 45.3292C101.681 45.3479 102.163 45.3718 102.632 45.3883C109.099 45.6087 115.794 45.5684 122.385 45.6172C126.9 45.2133 130.904 45.3854 135.443 45.6309C135.954 45.6309 136.208 45.744 136.716 45.8587C138.176 45.8661 139.633 45.8144 141.072 45.7042C145.435 45.3201 149.759 45.4224 154.166 45.2235C155.435 45.5672 157.219 45.7888 158.485 46.1309C158.618 45.8349 158.789 45.5428 158.996 45.2559C159.667 45.3013 160.345 45.3502 160.712 45.236C161.49 45.3434 160.128 43.3899 160.898 43.3848Z" fill="black"/></g><mask id="mask0_128_8600" style="mask-type:alpha" maskUnits="userSpaceOnUse" x="0" y="0" width="161" height="45"><path d="M158.269 41.3848C158.796 40.7922 158.311 40.207 158.846 39.6155C158.961 36.4512 158.67 33.2864 157.973 30.1392V30.1256C157.973 30.0727 158.02 29.7795 158.099 29.3704C158.534 27.1642 158.943 25.1226 158.165 22.8987C158.691 22.7806 158.429 22.5453 158.361 22.4681L158.448 21.9181L158.796 19.7294C158.822 19.5606 158.848 19.3959 158.875 19.2362C159.603 14.5441 159.139 9.81787 160.371 5.132C159.863 4.77574 159.671 3.49561 159.163 3.1422C159.166 2.86265 159.097 2.58423 158.961 2.31264C159.074 1.98536 159.105 1.73592 158.812 1.77797C158.759 1.76206 158.702 1.74956 158.644 1.74047C158.461 1.46433 158.314 1.18307 158.204 0.898411C156.886 1.24103 155.038 1.46092 153.72 1.80467C149.237 1.60581 144.837 1.70751 140.392 1.32285C138.925 1.21262 137.442 1.16035 135.956 1.1683C135.429 1.28308 135.165 1.40012 134.638 1.39501C130.018 1.6382 125.917 1.81149 121.321 1.40637C117.366 1.43649 113.388 1.45069 109.424 1.47797L109.295 1.46149C109.101 1.45978 108.907 1.46717 108.716 1.48422C106.206 1.50581 103.661 1.54103 101.179 1.63251C100.7 1.65013 100.21 1.67172 99.7251 1.69047C98.6481 1.73308 97.6314 1.7507 96.6513 1.7524C96.0905 1.57115 95.4144 1.48592 94.7383 1.51092C94.1514 1.41546 93.0036 1.50467 91.7064 1.63706C89.4948 1.55297 87.2647 1.44842 84.7124 1.42796C81.311 0.953525 77.7445 1.13364 74.3457 0.656362C73.8688 0.726817 73.3919 0.7825 72.9123 0.827387L72.7656 0.798409C72.2939 0.850115 71.8248 0.900115 71.3558 0.954662C70.0036 1.05182 68.654 1.12966 67.3019 1.33251C59.0369 1.11091 50.9029 0.702953 42.6274 1.06432L41.9277 0.995572C41.6683 0.940457 41.3879 0.912616 41.1049 0.913752C39.2365 0.727386 37.3419 0.544996 35.4054 0.376244C34.8944 0.329652 34.3755 0.287038 33.8514 0.250106L32.2844 0.237605C30.5863 0.413744 28.8908 0.672839 27.1954 0.868297C26.8993 0.833069 26.6031 0.798978 26.307 0.761477C23.8988 0.694999 21.5299 0.591588 19.1662 0.509769C18.7469 0.469995 18.3355 0.418858 17.9293 0.356357L16.7816 0.450677C14.4127 0.388744 12.0333 0.406926 9.66434 0.504655L8.82579 0.620566L8.74455 0.627952C8.32528 0.582497 7.9191 0.516587 7.52865 0.431358C6.88401 0.431358 6.19482 0.431358 5.49515 0.451245C3.45642 0.124535 1.42816 -0.361267 0.631537 0.422835C0.615814 0.674544 0.631537 0.960344 0.631537 1.25978C0.393073 1.36887 0.180813 1.49103 0 1.62342C0.0183434 2.12684 0.0445482 2.50469 0.133645 3.04958C0.172952 3.28765 0.2175 3.53538 0.262048 3.77459C0.435 5.05359 0.0838555 6.37236 0.207018 7.67636C-0.21488 8.86444 0.728495 9.94173 1.58015 11.0366C1.36265 13.3497 1.21852 15.6128 1.58015 17.9237L2.71482 19.9788C2.95066 21.3442 2.89563 22.7181 2.55235 24.0783C2.07018 25.0778 1.58539 26.0772 1.10584 27.0778C0.859519 29.4693 1.23425 31.8154 1.60898 34.1978C1.83434 34.7836 1.9575 35.3779 1.97584 35.9739C1.84482 36.3774 1.84482 36.7876 1.97584 37.191C1.84744 39.6456 1.08226 42.1212 1.36527 44.5752C2.2641 45.4173 4.4522 44.8031 6.57217 44.4735C7.60726 44.5406 8.65546 44.5667 9.69841 44.5514C9.81895 44.5235 9.96308 44.4996 10.081 44.4758L10.2146 44.4945C12.9793 44.6161 15.7622 44.6235 18.5294 44.5161C19.0195 44.5576 19.4859 44.5979 19.9078 44.6309C20.5053 44.5383 21.1132 44.4633 21.729 44.407C23.3118 44.3479 24.9234 44.2809 26.5403 44.2394C26.9491 44.1866 27.3578 44.136 27.7666 44.0883L28.1833 44.0332C30.1198 44.232 32.059 44.5468 33.9851 44.7633L35.5233 44.7508C36.0343 44.7093 36.5426 44.6667 37.0432 44.6246C39.2286 44.4235 41.3591 44.2133 43.4791 43.9951C51.2907 44.2644 58.9425 43.8934 66.7411 43.678C69.0497 44.0252 71.3531 44.0065 73.6592 44.3525C76.9924 43.8752 80.4934 44.0565 83.8267 43.582C86.5362 43.5582 89.2484 43.4337 91.9502 43.3303C93.3469 43.4826 94.6073 43.5957 95.2336 43.4928C95.8652 43.5201 96.4967 43.4468 97.0313 43.2837C97.5344 43.2939 98.0454 43.3076 98.5774 43.3292C99.0517 43.3479 99.5338 43.3718 100.003 43.3883C106.47 43.6087 113.166 43.5684 119.756 43.6172C124.271 43.2133 128.275 43.3854 132.814 43.6309C133.325 43.6309 133.579 43.744 134.088 43.8587C135.547 43.8661 137.004 43.8144 138.443 43.7042C142.806 43.3201 147.13 43.4224 151.537 43.2235C152.806 43.5672 154.59 43.7888 155.856 44.1309C155.99 43.8349 156.16 43.5428 156.367 43.2559C157.038 43.3013 157.716 43.3502 158.083 43.236C158.862 43.3434 157.499 41.3899 158.269 41.3848Z" fill="black"/></mask><g mask="url(#mask0_128_8600)"><rect x="-71.5298" y="-83.6416" width="265.154" height="141.656" fill="url(#paint0_linear_128_8600)"/><g opacity="0.75"><path d="M162.61 -50.0033C173.96 -60.0652 196.869 -80.3969 197.702 -81.2286L201.413 -75.434L191.894 -56.1752C187.009 -53.2571 176.992 -47.3812 176.002 -47.2216C175.011 -47.062 162.367 -13.0616 156.169 3.91866L141.138 -2.66679L121.951 12.3386L96.6859 48.9541L65.9121 53.3322C55.7728 61.5524 34.9577 78.0793 32.8117 78.4251C30.1291 78.8574 -0.712808 107.654 -2.25217 110.227C-3.48366 112.285 -7.54982 101.008 -9.42897 95.1116L-2.20056 81.1617L17.9602 49.7274L68.9284 41.5138C75.1443 33.151 87.9535 15.8415 89.4627 13.5062C91.3492 10.587 114.61 -12.6298 115.727 -14.2627C116.844 -15.8955 139.412 -20.1134 140.725 -20.9062C141.776 -21.5404 155.753 -40.5685 162.61 -50.0033Z" fill="black" fill-opacity="0.03"/><path opacity="0.1" d="M127.882 -100.983C129.868 -99.8271 159.077 -106.249 171.926 -120.518L176.78 -119.737C172.534 -111.618 172.365 -83.9002 169.131 -81.2373C165.898 -78.5744 151.691 -69.2367 149.557 -59.4926C141.058 -49.2054 128.936 -19.6033 127.415 -16.6372C125.514 -12.9295 84.8277 7.69977 81.2244 10.1728C78.3417 12.1513 65.3336 3.21182 59.1899 -1.5052L22.3061 35.1297L-22.4558 59.0178C-23.1613 59.4468 -23.784 59.7812 -24.3123 60.0086L-22.4558 59.0178C-10.6324 51.8285 24.4505 18.0634 28.4099 15.7447C33.6545 12.6734 52.4473 -12.2649 54.1759 -13.3589C55.9044 -14.4528 114.229 -36.6815 111.01 -40.1068C98.7917 -53.1087 113.863 -109.141 127.882 -100.983Z" fill="url(#paint1_linear_128_8600)" fill-opacity="0.1"/><path d="M226.083 8.37615L248.719 56.478L240.686 54.8722L228.808 54.0204L205.515 53.6592L212.368 16.3987C204.463 15.2501 175.749 26.0152 173.447 24.0908C171.144 22.1664 167.124 8.70966 159.238 8.99358L145.097 11.7005C147.769 2.44976 107.065 -0.480056 107.775 -2.98435C108.484 -5.48864 84.9739 -31.0142 78.3049 -40.2424L82.1112 -119.777L121.583 -91.4984L150.845 -97.8477L171.057 -82.9766L170.532 -24.0563C183.581 -15.1386 210.273 3.55979 212.65 7.0115C215.027 10.4632 222.596 9.35948 226.083 8.37615Z" fill="black" fill-opacity="0.03"/><g filter="url(#filter0_f_128_8600)"><path d="M-31.7963 -21.8984L-54.4328 -70.0002L-46.3997 -68.3944L-34.5214 -67.5427L-11.2286 -67.1814L-18.0813 -29.9209C-10.1762 -28.7723 18.5375 -39.5374 20.8399 -37.613C23.1422 -35.6886 27.1623 -22.2319 35.0485 -22.5158L49.1898 -25.2227C46.518 -15.972 87.2218 -13.0422 86.512 -10.5379C85.8022 -8.03358 109.313 17.492 115.982 26.7202L112.175 106.255L72.704 77.9762L43.4416 84.3254L23.2296 69.4544L23.7544 10.5341C10.7056 1.61639 -15.9863 -17.082 -18.3635 -20.5337C-20.7406 -23.9854 -28.3091 -22.8817 -31.7963 -21.8984Z" fill="black" fill-opacity="0.03"/></g><g filter="url(#filter1_f_128_8600)"><path d="M57.8862 -58.7672L61.1964 -102.043L49.8174 -107.43C47.3399 -108.073 40.1566 -110.37 31.2432 -114.416C20.1013 -119.475 3.12046 -117.113 -14.6788 -113.431C-32.478 -109.75 -18.467 -95.8081 -23.5679 -78.3294C-28.6687 -60.8507 -15.2325 -40.1191 -14.5704 -29.161C-13.9082 -18.2029 -7.7754 -23.8765 -6.079 -24.0926C-4.3826 -24.3088 2.06507 -38.9177 1.68078 -41.6813C1.37334 -43.8922 5.52091 -45.6591 7.63312 -46.2661L10.6386 -50.4702C11.9875 -46.9283 15.0133 -38.2966 16.3262 -32.1046C17.9674 -24.3646 27.4496 -18.4815 29.7247 -18.2307C31.5448 -18.03 37.9097 -23.1068 40.8647 -25.6703L29.9895 -41.1811L31.5488 -52.2974C36.6752 -49.2126 48.0042 -42.4002 52.3086 -39.8293C56.613 -37.2584 57.8205 -51.3834 57.8862 -58.7672Z" fill="black" fill-opacity="0.03"/></g></g><g opacity="0.7"><path d="M180.806 69.4084C186.269 77.8877 197.294 95.0163 197.68 95.6962L200.861 92.8601L197.938 79.0685C195.37 76.2912 190.087 70.6626 189.5 70.3662C188.913 70.0698 186.322 46.5529 185.101 34.8315L174.811 35.8946L165.267 22.7978L155.285 -4.85482L136.958 -13.7052C131.959 -20.8056 121.644 -35.167 120.372 -35.8092C118.782 -36.612 104.158 -60.5517 103.603 -62.4475C103.158 -63.9641 98.9176 -57.8139 96.853 -54.5492L99.1758 -44.4928L106.801 -21.0586L137.007 -5.80626C139.562 0.598466 144.815 13.8437 145.388 15.587C146.105 17.7661 156.905 36.7463 157.344 37.9775C157.783 39.2087 171.068 46.3208 171.758 47.0726C172.309 47.6741 178.019 62.2137 180.806 69.4084Z" fill="black" fill-opacity="0.03"/><path opacity="0.1" d="M151.545 93.9447C152.949 93.6278 169.996 103.427 175.74 114.804L178.857 115.291C177.481 109.43 181.628 92.2841 180.04 89.9941C178.453 87.7041 171.114 79.1012 171.292 72.6593C167.622 64.6103 164.68 43.9132 164.195 41.7781C163.59 39.1093 141.636 18.2457 139.791 15.9991C138.315 14.2018 128.913 17.1223 124.396 18.8072L107.245 -11.1784L83.274 -34.8681C82.9042 -35.2738 82.5711 -35.6046 82.2798 -35.8506L83.274 -34.8681C89.4707 -28.0677 105.95 -0.213651 108.039 2.00882C110.806 4.95267 118.583 24.1031 119.482 25.1238C120.381 26.1444 152.98 51.519 150.467 52.9907C140.929 58.577 141.639 96.1806 151.545 93.9447Z" fill="url(#paint2_linear_128_8600)" fill-opacity="0.1"/><path d="M228.948 46.0456L250.302 20.8705L245.096 20.2572L237.632 18.4102L223.196 13.9802L221.711 38.3529C216.654 37.4829 200.578 25.1008 198.862 25.829C197.145 26.5572 192.599 34.062 187.774 32.3113L179.459 27.8153C179.689 34.0602 154.11 27.7379 154.164 29.4258C154.218 31.1137 135.788 42.1761 130.255 46.5412L120.404 96.4044L149.111 86.8307L166.203 96.5961L180.962 91.4526L189.677 54.9718C199.101 52.0728 218.448 45.8608 220.445 44.2047C222.442 42.5486 226.946 44.7419 228.948 46.0456Z" fill="black" fill-opacity="0.03"/><g filter="url(#filter2_f_128_8600)"><path d="M65.0951 13.222L43.741 38.3971L48.9468 39.0104L56.4109 40.8574L70.8467 45.2874L72.3318 20.9147C77.3884 21.7847 93.4643 34.1667 95.1809 33.4386C96.8975 32.7104 101.444 25.2056 106.269 26.9562L114.584 31.4523C114.354 25.2074 139.933 31.5296 139.879 29.8418C139.825 28.1539 158.255 17.0914 163.788 12.7264L173.639 -37.1368L144.932 -27.5632L127.84 -37.3285L113.08 -32.185L104.366 4.29582C94.942 7.19478 75.5947 13.4067 73.5976 15.0629C71.6005 16.719 67.0972 14.5257 65.0951 13.222Z" fill="black" fill-opacity="0.03"/></g><g filter="url(#filter3_f_128_8600)"><path d="M114.807 53.899L110.212 81.278L102.36 82.3305C100.732 82.2324 95.9452 82.2156 89.8215 82.9332C82.1668 83.8304 72.0455 78.9805 61.6214 73.1518C51.1974 67.323 61.9861 61.5147 61.5182 49.7048C61.0503 37.8949 72.5257 27.7797 74.6154 21.1467C76.7052 14.5137 79.6211 19.2415 80.6353 19.7138C81.6495 20.1862 83.3891 30.4934 82.7279 32.1228C82.1989 33.4264 84.4885 35.3457 85.6994 36.1424L86.9101 39.3383C88.2861 37.4211 91.4783 32.6965 93.2387 29.136C95.4392 24.6853 102.196 22.9474 103.639 23.247C104.793 23.4867 107.944 27.8925 109.375 30.0655L100.282 37.469L99.5392 44.6434C103.177 43.763 111.217 41.8203 114.268 41.0929C117.32 40.3656 115.899 49.3272 114.807 53.899Z" fill="black" fill-opacity="0.03"/></g></g><g opacity="0.75"><path d="M-200.854 80.9376L-945.893 -164.661L-990.634 -138.8L-219.486 132.537L199.562 161.985L386.213 250.781L834.662 315.055L1149.61 452.575L1463.45 416.029L1543.6 388.539C1435.12 384.376 1212.78 377.582 1191.32 383.705C1169.86 389.828 1032.13 339.365 965.947 313.367L534.769 205.739L321.022 158.516L-200.854 80.9376Z" fill="black" fill-opacity="0.05"/><path d="M546.092 715.023C522.741 747.889 475.988 818.439 475.79 837.712L107.593 764.738L250.565 724.495L353.091 713.126L393.289 708.342L417.093 628.627C408.682 599.988 388.545 540.857 375.282 533.448C362.019 526.039 452.57 493.222 499.504 477.739L404.219 316.107L542.138 371.044L602.022 508.383L534.83 589.622L546.092 715.023Z" fill="black" fill-opacity="0.05"/><path d="M466.36 750.595C461.825 775.557 452.967 827.22 453.821 834.172L295.565 822.934C312.017 798.193 346.103 746.6 350.831 738.157C355.56 729.713 393.816 728.657 412.353 729.184L436.35 641.87L355.829 520.864L391.772 457.177C404.497 496.296 431.2 575.031 436.21 577.011C441.22 578.992 447.731 537.516 450.359 516.53C472.179 508.113 517.014 490.602 521.797 487.892C526.581 485.181 508.479 422.88 498.831 392.069C501.829 341.043 507.956 236.69 508.474 227.484C509.122 215.976 546.544 370.757 548.111 384.007C549.677 397.258 571.803 452.687 569.511 466.579C567.218 480.472 519.819 547.895 516.957 557.661C514.667 565.473 529.453 631.019 537.133 662.815L466.36 750.595Z" fill="black" fill-opacity="0.05"/><path d="M518.42 511.56L520.149 401.028C513.373 428.107 499.664 483.221 499.034 487.04C498.246 491.814 457.96 522.952 456.21 527.105C454.46 531.257 443.886 585.658 442.208 589.376C440.865 592.351 450.648 628.599 455.707 646.351L393.686 757.579C419.915 724.489 473.3 657.852 477.01 656.022C480.721 654.191 476.696 589.07 474.22 556.739L518.42 511.56Z" fill="black" fill-opacity="0.05"/><path d="M534.417 -252.256L453.151 -691.992L622.039 -656.92L600.071 -243.488L556.666 -186.991L556.386 -82.007L534.458 76.7121L501.043 240.501L487.295 -98.9958L534.417 -252.256Z" fill="black" fill-opacity="0.05"/><path d="M595.018 -177.36L601.729 -659.706L491.749 -706.452L549.913 -252.577L514.352 -191.977L523.253 -110.359L499.409 -23.9468C500.672 65.2265 504.63 246.514 510.358 258.279C516.085 270.044 535.261 75.0697 544.133 -23.8881L595.018 -177.36Z" fill="black" fill-opacity="0.05"/><path fill-rule="evenodd" clip-rule="evenodd" d="M-538.276 95.8848L-464.066 -192.622L-151.843 -164.843L131.53 -445.312L375.264 -337.848C412.537 -292.488 495.159 -212.414 527.459 -254.998C559.76 -297.582 853.827 -332.867 996.823 -345.187C1084.96 -332.978 1268.45 -304.729 1297.36 -289.401C1333.48 -270.24 1751.97 -191.623 1769.24 -191.697C1786.51 -191.771 1997.69 -175.947 2042.54 -97.1846C2078.43 -34.1743 2087.85 499.949 2088.07 759.134C1865.05 815.68 1407.47 926.811 1361.27 918.963C1337.15 914.867 1125.44 901.671 887.098 886.817C554.702 866.1 170.521 842.156 171.198 835.163C171.662 830.368 85.2766 790.851 -18.3261 743.457C-174.137 672.18 -368.888 583.09 -365.72 567.506C-361.5 546.75 -507.261 331.857 -580.67 227.005L-538.276 95.8848ZM262.706 -259.54L149.768 -27.5635L-50.8211 54.093L-161.026 108.109C-158.599 161.494 -153.341 271.211 -151.721 283C-150.1 294.789 52.4464 335.544 153.517 354.448C221.854 430.859 366.03 584.654 396.04 588.548C416.525 591.206 539.957 545.241 652.011 503.513C745.152 468.828 830.432 437.071 842.196 438.597C857.062 440.526 998.766 460.627 1119.62 477.77C1209.46 490.515 1287.78 501.625 1293.89 502.417C1296.86 502.803 1304.41 505.226 1314.58 508.487C1353.43 520.956 1430.47 545.676 1435.57 515.591C1439.58 491.99 1297.69 367.304 1190.14 272.798C1124.74 215.321 1072.04 169.008 1072.58 163.386C1073.95 149.271 1330.52 84.7485 1438.22 57.6631C1443.94 56.2239 1449.24 54.8903 1454.07 53.6757C1467.5 50.2925 1480.75 47.069 1493.63 43.9354C1572.41 24.7719 1637.35 8.97325 1644.85 -19.4113C1651.83 -45.832 1305.91 -56.6359 1132.08 -58.7353C1105.55 -34.3882 1044.63 11.3176 1013.19 -0.635433C1001.66 -5.01863 983.56 -11.5002 963.46 -18.6975C915.045 -36.034 855.033 -57.5228 847.348 -63.8383C842.564 -67.7699 808.499 -67.4342 771.726 -67.0718C724.907 -66.6104 673.699 -66.1057 672.947 -74.3099C671.872 -86.0283 661.754 -148.902 656.83 -178.874L541.169 -125.566L357.018 -149.461L262.706 -259.54Z" fill="black" fill-opacity="0.03"/></g><g style="mix-blend-mode:overlay" filter="url(#filter4_f_128_8600)"><path d="M164.228 8.22008L179.974 -25.1396C184.578 -24.4038 187.121 17.6761 186.476 24.348C185.67 32.688 182.929 41.9478 182.929 48.7546C182.929 55.5615 178.362 56.1747 175.352 61.4485C172.343 66.7223 165.034 63.5948 156.651 62.3683C148.267 61.1419 141.496 61.4485 129.028 62.3683C116.561 63.2882 79.3724 58.9956 49.8691 62.0617C26.2664 64.5146 12.1973 59.7723 8.11304 57.0945C13.3437 55.4593 24.0846 51.9434 25.2024 50.9622C26.3202 49.9811 35.5921 47.6508 40.0884 46.6083L56.1029 46.9149L65.0238 45.6885L76.9541 45.0752L89.1531 46.6083L102.964 47.8348L113.551 44.462L131.984 43.5422L145.258 43.1742L152.566 38.8816L164.228 8.22008Z" fill="#EDFAD2" fill-opacity="0.75" style="mix-blend-mode:overlay"/></g><path d="M1916.9 156L2010.23 -71L2231.07 -41.5C2191.34 129.833 2106.72 485.9 2086.03 539.5C2065.35 593.1 1883.74 1008.5 1795.53 1209.5C1165.14 1158.33 -98.254 1055 -108.77 1051C-119.286 1047 -102.928 977 -93.4341 942.5L-0.541588 932.5L231.251 952L500.289 940L931.012 959.5L1264.9 932.5L1424.5 938.5L1589.69 924L1728.49 940L1737.25 851L1785.01 678L1843.72 406L1916.9 156Z" fill="#1A2424" fill-opacity="0.12"/><g style="mix-blend-mode:overlay"><path d="M-43.7463 44.7074L-70.8313 46.3018L-74.9155 70.4018L168.527 67.3356L204.587 -66.042L190.775 -81.4954L179.383 -55.801L176.91 -38.5079L174.385 -25.2621L169.709 -12.323L167.345 -6.19067L163.422 10.3665L161.487 17.7866L159.015 24.2869L158.478 24.7161L158.316 30.6032C157.653 34.1664 157.224 34.8316 156.919 38.4525L156.436 42.8064L156.543 43.297L154.877 47.1604L149.342 46.1792L141.603 47.3443L139.454 46.0566L137.358 47.2217C118.388 49.0001 114.303 46.6085 114.303 46.6085L105.329 46.9764L94.6344 46.1179L91.1951 45.0141L72.8697 47.8962L42.4528 45.0141L10.2088 44.4008L-22.304 46.9151L-43.7463 44.7074Z" fill="url(#paint3_radial_128_8600)"/></g></g><defs><filter id="filter0_f_128_8600" x="-69.4329" y="-85.0002" width="200.415" height="206.255" filterUnits="userSpaceOnUse" color-interpolation-filters="sRGB"><feFlood flood-opacity="0" result="BackgroundImageFix"/><feBlend mode="normal" in="SourceGraphic" in2="BackgroundImageFix" result="shape"/><feGaussianBlur stdDeviation="7.5" result="effect1_foregroundBlur_128_8600"/></filter><filter id="filter1_f_128_8600" x="-55.7209" y="-148.317" width="147.917" height="161.092" filterUnits="userSpaceOnUse" color-interpolation-filters="sRGB"><feFlood flood-opacity="0" result="BackgroundImageFix"/><feBlend mode="normal" in="SourceGraphic" in2="BackgroundImageFix" result="shape"/><feGaussianBlur stdDeviation="15.5" result="effect1_foregroundBlur_128_8600"/></filter><filter id="filter2_f_128_8600" x="28.741" y="-52.3286" width="159.898" height="112.616" filterUnits="userSpaceOnUse" color-interpolation-filters="sRGB"><feFlood flood-opacity="0" result="BackgroundImageFix"/><feBlend mode="normal" in="SourceGraphic" in2="BackgroundImageFix" result="shape"/><feGaussianBlur stdDeviation="7.5" result="effect1_foregroundBlur_128_8600"/></filter><filter id="filter3_f_128_8600" x="26.0649" y="-13.3594" width="121.044" height="127.4" filterUnits="userSpaceOnUse" color-interpolation-filters="sRGB"><feFlood flood-opacity="0" result="BackgroundImageFix"/><feBlend mode="normal" in="SourceGraphic" in2="BackgroundImageFix" result="shape"/><feGaussianBlur stdDeviation="15.5" result="effect1_foregroundBlur_128_8600"/></filter><filter id="filter4_f_128_8600" x="-81.887" y="-115.14" width="358.462" height="269.551" filterUnits="userSpaceOnUse" color-interpolation-filters="sRGB"><feFlood flood-opacity="0" result="BackgroundImageFix"/><feBlend mode="normal" in="SourceGraphic" in2="BackgroundImageFix" result="shape"/><feGaussianBlur stdDeviation="45" result="effect1_foregroundBlur_128_8600"/></filter><linearGradient id="paint0_linear_128_8600" x1="-63.5386" y1="-12.8135" x2="166.517" y2="-12.8135" gradientUnits="userSpaceOnUse"><stop stop-color="#4363B6"/><stop offset="0.274275" stop-color="#082540"/><stop offset="0.739419" stop-color="#171F3C"/><stop offset="0.996478" stop-color="#163D52"/></linearGradient><linearGradient id="paint1_linear_128_8600" x1="175.01" y1="-116.772" x2="-12.5765" y2="-45.3624" gradientUnits="userSpaceOnUse"><stop stop-color="white"/><stop offset="1" stop-color="white" stop-opacity="0.24"/></linearGradient><linearGradient id="paint2_linear_128_8600" x1="178.219" y1="113.107" x2="70.3672" y2="35.7204" gradientUnits="userSpaceOnUse"><stop stop-color="white"/><stop offset="1" stop-color="white" stop-opacity="0.24"/></linearGradient><radialGradient id="paint3_radial_128_8600" cx="0" cy="0" r="1" gradientUnits="userSpaceOnUse" gradientTransform="translate(158.693 46.2406) rotate(180) scale(220.388 251.486)"><stop stop-color="#E9E9E9" stop-opacity="0.6"/><stop offset="0.708333" stop-color="#E6E6E6" stop-opacity="0.303542"/><stop offset="1" stop-color="#E0E0E0" stop-opacity="0"/></radialGradient></defs></svg>