<svg preserveAspectRatio="none" viewBox="0 0 239 65" fill="none"
    xmlns="http://www.w3.org/2000/svg">
    <g mask="url(#mask0_133_9644)">
        <rect x="-105.12" y="-115.17" width="389.668" height="195.052" fill="url(#paint0_linear_133_9644)"/>
        <g opacity="0.75">
            <path d="M238.971 -68.8518C255.651 -82.7064 289.317 -110.702 290.541 -111.847L295.995 -103.868L282.006 -77.3501C274.827 -73.3322 260.106 -65.2414 258.651 -65.0216C257.195 -64.8019 238.614 -17.9854 229.505 5.39541L207.415 -3.67235L179.218 16.9891L142.089 67.4064L96.8635 73.4348C81.9629 84.7536 51.3731 107.51 48.2193 107.986C44.2771 108.582 -1.04807 148.233 -3.31031 151.776C-5.1201 154.61 -11.0957 139.081 -13.8573 130.963L-3.23446 111.754L26.3938 68.4712L101.296 57.1616C110.431 45.6465 129.255 21.8124 131.473 18.5968C134.246 14.5773 168.43 -17.3908 170.072 -19.6392C171.713 -21.8875 204.878 -27.6952 206.808 -28.7869C208.352 -29.6602 228.893 -55.8607 238.971 -68.8518Z" fill="black" fill-opacity="0.03"/>
            <path opacity="0.1" d="M187.934 -139.048C190.854 -137.456 233.779 -146.299 252.662 -165.947L259.794 -164.871C253.554 -153.692 253.306 -115.526 248.554 -111.859C243.802 -108.193 222.923 -95.3353 219.788 -81.9183C207.297 -67.7534 189.483 -26.9931 187.248 -22.909C184.454 -17.8038 124.662 10.6016 119.366 14.0068C115.13 16.731 96.0135 4.42193 86.9847 -2.07313L32.7804 48.3709L-33.0013 81.2634C-34.0381 81.8541 -34.9532 82.3145 -35.7296 82.6276L-33.0013 81.2634C-15.6256 71.3641 35.9319 24.8717 41.7506 21.6789C49.458 17.4499 77.0759 -16.8886 79.6161 -18.3949C82.1564 -19.9012 167.87 -50.5088 163.14 -55.2252C145.183 -73.128 167.332 -150.281 187.934 -139.048Z" fill="url(#paint1_linear_133_9644)" fill-opacity="0.1"/>
            <path d="M332.249 11.5329L365.516 77.7662L353.711 75.5551L336.254 74.3823L302.023 73.885L312.094 22.5795C300.477 20.9979 258.279 35.8208 254.896 33.1711C251.512 30.5213 245.604 11.9921 234.015 12.3831L213.233 16.1104C217.159 3.37262 157.341 -0.661555 158.384 -4.10982C159.427 -7.55808 124.877 -42.7052 115.076 -55.412L120.669 -164.926L178.676 -125.988L221.68 -134.731L251.384 -114.254L250.613 -33.1247C269.789 -20.8455 309.015 4.90108 312.509 9.65388C316.002 14.4067 327.125 12.8869 332.249 11.5329Z" fill="black" fill-opacity="0.03"/>
            <g filter="url(#filter0_f_133_9644)">
                <path d="M-46.7282 -30.153L-79.9948 -96.3863L-68.1894 -94.1753L-50.733 -93.0024L-16.5021 -92.5051L-26.5728 -41.1996C-14.9555 -39.618 27.2421 -54.441 30.6256 -51.7912C34.0091 -49.1414 39.917 -30.6122 51.5066 -31.0032L72.2885 -34.7305C68.3621 -21.9927 128.18 -17.9586 127.137 -14.5103C126.094 -11.062 160.645 24.0851 170.446 36.7918L164.852 146.306L106.845 107.368L63.841 116.111L34.1376 95.6342L34.9087 14.5045C15.7323 2.22536 -23.4939 -23.5212 -26.9874 -28.274C-30.4809 -33.0268 -41.6036 -31.507 -46.7282 -30.153Z" fill="black" fill-opacity="0.03"/>
            </g>
            <g filter="url(#filter1_f_133_9644)">
                <path d="M85.0687 -80.9192L89.9334 -140.508L73.2108 -147.925C69.5699 -148.81 59.0134 -151.973 45.9142 -157.545C29.5402 -164.509 4.58523 -161.258 -21.5725 -156.189C-47.7301 -151.119 -27.1397 -131.922 -34.6358 -107.855C-42.1319 -83.788 -22.3862 -55.2418 -21.4131 -40.1532C-20.44 -25.0646 -11.4273 -32.8767 -8.93425 -33.1743C-6.44123 -33.472 3.03423 -53.5876 2.46948 -57.3929C2.01767 -60.4372 8.11292 -62.87 11.217 -63.7059L15.6339 -69.4947C17.6161 -64.6178 22.0629 -52.7324 23.9924 -44.2063C26.4042 -33.5488 40.3392 -25.4481 43.6827 -25.1028C46.3575 -24.8265 55.7114 -31.817 60.054 -35.3468L44.0718 -56.7041L46.3633 -72.0106C53.8971 -67.763 70.5461 -58.3828 76.8718 -54.8428C83.1975 -51.3028 84.9721 -70.7521 85.0687 -80.9192Z" fill="black" fill-opacity="0.03"/>
            </g>
        </g>
        <g opacity="0.7">
            <path d="M265.71 95.5707C273.74 107.246 289.941 130.831 290.509 131.767L295.183 127.862L290.888 108.872C287.114 105.048 279.35 97.2976 278.487 96.8895C277.625 96.4813 273.818 64.1 272.022 47.9604L256.9 49.4242L242.875 31.3907L228.206 -6.68529L201.272 -18.8717C193.926 -28.6486 178.766 -48.4234 176.897 -49.3076C174.561 -50.413 153.07 -83.3765 152.253 -85.9869C151.6 -88.0752 145.368 -79.6067 142.334 -75.1114L145.747 -61.2644L156.953 -28.9969L201.344 -7.99537C205.099 0.823552 212.818 19.0615 213.661 21.4619C214.715 24.4623 230.585 50.597 231.231 52.2922C231.876 53.9875 251.4 63.7805 252.413 64.8157C253.224 65.6438 261.616 85.6641 265.71 95.5707Z" fill="black" fill-opacity="0.03"/>
            <path opacity="0.1" d="M222.709 129.356C224.772 128.92 249.825 142.413 258.266 158.077L262.846 158.748C260.824 150.679 266.919 127.069 264.586 123.916C262.252 120.763 251.467 108.917 251.729 100.047C246.336 88.9641 242.011 60.4655 241.3 57.5257C240.411 53.8509 208.147 25.123 205.435 22.0295C203.266 19.5547 189.448 23.5761 182.811 25.8961L157.605 -15.3922L122.378 -48.0115C121.835 -48.5702 121.345 -49.0257 120.917 -49.3644L122.378 -48.0115C131.485 -38.6478 155.703 -0.294461 158.773 2.76575C162.839 6.81926 174.268 33.1882 175.589 34.5936C176.911 35.999 224.818 70.9383 221.125 72.9647C207.108 80.6566 208.151 132.435 222.709 129.356Z" fill="url(#paint2_linear_133_9644)" fill-opacity="0.1"/>
            <path d="M336.46 63.4015L367.841 28.7369L360.191 27.8924L349.222 25.3492L328.007 19.2494L325.825 52.8091C318.393 51.6112 294.768 34.5618 292.246 35.5645C289.723 36.5671 283.042 46.9008 275.951 44.4903L263.731 38.2994C264.069 46.8983 226.478 38.193 226.558 40.5171C226.637 42.8412 199.552 58.0735 191.421 64.0839L176.944 132.742L219.132 119.56L244.25 133.006L265.941 125.924L278.747 75.6923C292.597 71.7006 321.029 63.1471 323.964 60.8667C326.899 58.5863 333.517 61.6064 336.46 63.4015Z" fill="black" fill-opacity="0.03"/>
            <g filter="url(#filter2_f_133_9644)">
                <path d="M95.6624 18.2052L64.2805 52.8698L71.9309 53.7143L82.9001 56.2575L104.115 62.3573L106.297 28.7976C113.729 29.9955 137.354 47.0449 139.876 46.0422C142.399 45.0396 149.08 34.7059 156.171 37.1164L168.391 43.3073C168.053 34.7084 205.643 43.4138 205.564 41.0896C205.484 38.7655 232.57 23.5332 240.701 17.5228L255.177 -51.1358L212.99 -37.9535L187.872 -51.3998L166.181 -44.3175L153.375 5.91442C139.525 9.90611 111.093 18.4596 108.158 20.74C105.223 23.0204 98.6046 20.0003 95.6624 18.2052Z" fill="black" fill-opacity="0.03"/>
            </g>
            <g filter="url(#filter3_f_133_9644)">
                <path d="M168.719 74.2151L161.966 111.914L150.428 113.364C148.035 113.229 141 113.205 132 114.194C120.751 115.429 105.877 108.751 90.5578 100.725C75.2387 92.6992 91.0937 84.7015 90.406 68.44C89.7184 52.1785 106.583 38.2504 109.654 29.1172C112.725 19.9839 117.01 26.4939 118.5 27.1442C119.991 27.7946 122.547 41.987 121.576 44.2307C120.798 46.0256 124.163 48.6684 125.943 49.7654L127.722 54.166C129.744 51.5261 134.435 45.0206 137.022 40.1179C140.256 33.9896 150.186 31.5966 152.306 32.0092C154.003 32.3393 158.633 38.4058 160.737 41.3978L147.373 51.592L146.282 61.4708C151.628 60.2585 163.443 57.5835 167.928 56.5819C172.412 55.5804 170.324 67.9201 168.719 74.2151Z" fill="black" fill-opacity="0.03"/>
            </g>
        </g>
        <g opacity="0.75">
            <path d="M-295.174 111.446L-1390.08 -226.728L-1455.83 -191.118L-322.555 182.496L293.275 223.043L567.576 345.311L1226.61 433.812L1689.45 623.169L2150.67 572.847L2268.47 534.995C2109.04 529.263 1782.3 519.907 1750.76 528.339C1719.23 536.77 1516.81 467.285 1419.55 431.488L785.894 283.291L471.772 218.268L-295.174 111.446Z" fill="black" fill-opacity="0.05"/>
            <path d="M802.534 984.544C768.216 1029.8 699.508 1126.94 699.218 1153.48L158.117 1053L368.228 997.585L518.901 981.932L577.975 975.345L612.957 865.582C600.596 826.147 571.003 744.728 551.512 734.526C532.021 724.324 665.094 679.137 734.067 657.818L594.038 435.26L796.722 510.905L884.727 700.013L785.983 811.874L802.534 984.544Z" fill="black" fill-opacity="0.05"/>
            <path d="M685.36 1033.52C678.695 1067.9 665.677 1139.03 666.933 1148.6L434.36 1133.13C458.538 1099.06 508.63 1028.02 515.579 1016.4C522.529 1004.77 578.75 1003.32 605.992 1004.04L641.257 883.817L522.924 717.198L575.745 629.505C594.446 683.37 633.689 791.782 641.052 794.51C648.415 797.238 657.982 740.127 661.845 711.231C693.911 699.641 759.8 675.529 766.83 671.797C773.86 668.066 747.258 582.281 733.078 539.855C737.485 469.596 746.489 325.908 747.251 313.232C748.203 297.386 803.198 510.509 805.5 528.755C807.802 547 840.318 623.322 836.949 642.452C833.581 661.581 763.923 754.419 759.716 767.865C756.351 778.622 778.081 868.875 789.367 912.656L685.36 1033.52Z" fill="black" fill-opacity="0.05"/>
            <path d="M761.867 704.387L764.407 552.191C754.45 589.478 734.303 665.366 733.377 670.625C732.219 677.198 673.016 720.074 670.444 725.792C667.872 731.509 652.333 806.416 649.866 811.536C647.892 815.632 662.269 865.543 669.703 889.986L578.558 1043.14C617.104 997.578 695.559 905.823 701.011 903.302C706.464 900.782 700.55 811.114 696.911 766.596L761.867 704.387Z" fill="black" fill-opacity="0.05"/>
            <path d="M785.376 -347.341L665.947 -952.831L914.145 -904.539L881.861 -335.268L818.073 -257.475L817.661 -112.918L785.436 105.628L736.329 331.156L716.126 -136.311L785.376 -347.341Z" fill="black" fill-opacity="0.05"/>
            <path d="M874.435 -244.214L884.297 -908.376L722.672 -972.741L808.149 -347.783L755.889 -264.34L768.969 -151.957L733.928 -32.9731C735.785 89.8132 741.602 339.436 750.019 355.635C758.436 371.835 786.617 103.367 799.655 -32.8922L874.435 -244.214Z" fill="black" fill-opacity="0.05"/>
            <path fill-rule="evenodd" clip-rule="evenodd" d="M-791.049 132.027L-681.99 -265.229L-223.149 -226.979L193.295 -613.168L551.484 -465.197C606.261 -402.739 727.682 -292.482 775.15 -351.117C822.619 -409.753 1254.78 -458.339 1464.92 -475.302C1594.45 -458.491 1864.11 -419.594 1906.59 -398.488C1959.68 -372.105 2574.68 -263.853 2600.07 -263.956C2625.45 -264.058 2935.79 -242.269 3001.71 -133.818C3054.45 -47.0562 3068.29 688.399 3068.61 1045.28C2740.87 1123.14 2068.41 1276.16 2000.52 1265.36C1965.07 1259.72 1653.94 1241.55 1303.67 1221.09C815.186 1192.57 250.595 1159.6 251.591 1149.97C252.273 1143.37 125.321 1088.95 -26.9337 1023.69C-255.912 925.551 -542.117 802.879 -537.461 781.422C-531.259 752.842 -745.47 456.947 -853.35 312.572L-791.049 132.027ZM386.07 -357.372L220.098 -37.9536L-74.6872 74.4825L-236.643 148.859C-233.078 222.367 -225.35 373.441 -222.969 389.674C-220.587 405.907 77.0742 462.024 225.607 488.054C326.035 593.267 537.916 805.033 582.018 810.395C612.123 814.054 793.517 750.764 958.192 693.307C1095.07 645.548 1220.4 601.82 1237.69 603.922C1259.54 606.578 1467.82 634.26 1645.43 657.867C1777.45 675.413 1892.52 690.707 1901.5 691.798C1905.86 692.329 1916.96 695.665 1931.89 700.156C1989 717.325 2102.21 751.363 2109.71 709.937C2115.59 677.44 1907.08 505.755 1749.03 375.626C1652.91 296.484 1575.46 232.714 1576.26 224.973C1578.27 205.536 1955.32 116.693 2113.6 79.3984C2122.01 77.4166 2129.8 75.5805 2136.89 73.908C2156.62 69.2494 2176.1 64.8107 2195.03 60.4959C2310.8 34.1091 2406.24 12.3553 2417.26 -26.7284C2427.52 -63.1082 1919.16 -77.9845 1663.69 -80.8752C1624.71 -47.3508 1535.18 15.5835 1488.98 -0.875152C1472.04 -6.91064 1445.43 -15.8355 1415.89 -25.7459C1344.74 -49.6171 1256.55 -79.2057 1245.26 -87.9017C1238.23 -93.3154 1188.17 -92.8531 1134.12 -92.354C1065.32 -91.7187 990.064 -91.0238 988.958 -102.32C987.378 -118.456 972.51 -205.03 965.274 -246.3L795.299 -172.898L524.671 -205.799L386.07 -357.372Z" fill="black" fill-opacity="0.03"/>
        </g>
        <path d="M2817.07 214.803L2954.22 -97.7627L3278.77 -57.143C3220.38 178.773 3096.02 669.055 3065.62 742.859C3035.23 816.663 2768.34 1388.64 2638.7 1665.41C1712.29 1594.95 -144.393 1452.67 -159.848 1447.16C-175.302 1441.66 -151.262 1345.27 -137.31 1297.77L-0.795883 1284L339.846 1310.85L735.222 1294.32L1368.21 1321.17L1858.89 1284L2093.43 1292.26L2336.2 1272.29L2540.17 1294.32L2553.05 1171.78L2623.24 933.565L2709.53 559.037L2817.07 214.803Z" fill="#1A2424" fill-opacity="0.12"/>
    </g>
    <defs>
        <filter id="filter0_f_133_9644" x="-94.9948" y="-111.386" width="280.44" height="272.692" filterUnits="userSpaceOnUse" color-interpolation-filters="sRGB">
            <feFlood flood-opacity="0" result="BackgroundImageFix"/>
            <feBlend mode="normal" in="SourceGraphic" in2="BackgroundImageFix" result="shape"/>
            <feGaussianBlur stdDeviation="7.5" result="effect1_foregroundBlur_133_9644"/>
        </filter>
        <filter id="filter1_f_133_9644" x="-67.3303" y="-192.538" width="188.264" height="198.444" filterUnits="userSpaceOnUse" color-interpolation-filters="sRGB">
            <feFlood flood-opacity="0" result="BackgroundImageFix"/>
            <feBlend mode="normal" in="SourceGraphic" in2="BackgroundImageFix" result="shape"/>
            <feGaussianBlur stdDeviation="15.5" result="effect1_foregroundBlur_133_9644"/>
        </filter>
        <filter id="filter2_f_133_9644" x="49.2805" y="-66.3997" width="220.897" height="143.757" filterUnits="userSpaceOnUse" color-interpolation-filters="sRGB">
            <feFlood flood-opacity="0" result="BackgroundImageFix"/>
            <feBlend mode="normal" in="SourceGraphic" in2="BackgroundImageFix" result="shape"/>
            <feGaussianBlur stdDeviation="7.5" result="effect1_foregroundBlur_133_9644"/>
        </filter>
        <filter id="filter3_f_133_9644" x="52.8615" y="-6.71045" width="148.77" height="152.052" filterUnits="userSpaceOnUse" color-interpolation-filters="sRGB">
            <feFlood flood-opacity="0" result="BackgroundImageFix"/>
            <feBlend mode="normal" in="SourceGraphic" in2="BackgroundImageFix" result="shape"/>
            <feGaussianBlur stdDeviation="15.5" result="effect1_foregroundBlur_133_9644"/>
        </filter>
        <filter id="filter4_f_133_9644" x="-78.0773" y="-124.616" width="442.267" height="303.306" filterUnits="userSpaceOnUse" color-interpolation-filters="sRGB">
            <feFlood flood-opacity="0" result="BackgroundImageFix"/>
            <feBlend mode="normal" in="SourceGraphic" in2="BackgroundImageFix" result="shape"/>
            <feGaussianBlur stdDeviation="45" result="effect1_foregroundBlur_133_9644"/>
        </filter>
        <linearGradient id="paint0_linear_133_9644" x1="-93.3762" y1="-17.6437" x2="244.713" y2="-17.6437" gradientUnits="userSpaceOnUse">
            <stop stop-color="#131415"/>
            <stop offset="0.274275" stop-color="#0D1013"/>
            <stop offset="0.739419" stop-color="#3C3D40"/>
            <stop offset="0.996478" stop-color="#1E2529"/>
        </linearGradient>
        <linearGradient id="paint1_linear_133_9644" x1="257.193" y1="-160.789" x2="-13.7127" y2="-50.7217" gradientUnits="userSpaceOnUse">
            <stop stop-color="white" stop-opacity="0"/>
            <stop offset="1" stop-color="white" stop-opacity="0.24"/>
        </linearGradient>
        <linearGradient id="paint2_linear_133_9644" x1="261.908" y1="155.741" x2="110.566" y2="39.8411" gradientUnits="userSpaceOnUse">
            <stop stop-color="white"/>
            <stop offset="1" stop-color="white" stop-opacity="0.24"/>
        </linearGradient>
        <radialGradient id="paint3_radial_133_9644" cx="0" cy="0" r="1" gradientUnits="userSpaceOnUse" gradientTransform="translate(232.309 57.8846) rotate(-180) scale(323.881 346.281)">
            <stop stop-color="#E9E9E9" stop-opacity="0.6"/>
            <stop offset="0.708333" stop-color="#E6E6E6" stop-opacity="0.303542"/>
            <stop offset="1" stop-color="#E0E0E0" stop-opacity="0"/>
        </radialGradient>
    </defs>
</svg>