<svg xmlns="http://www.w3.org/2000/svg" width="211" height="244" fill="none" preserveAspectRatio="none"><defs/><path fill="#0F0D09" d="M48.5 1.1L66.7.8S91.2.7 91.4.8c.2.1 2.1.8 2.1.8l5.6-1s14.5 1.7 14.6 1.8c0 .1 11.9-1 11.9-1l20.6-.6 20 .2 10.6.8L190.5.5l20.3 1.3-6.2 13.6 1 4 2.3 6s-.2 7.3-.3 7.2c-.1 0-1.9 20-1.9 20s3.5 26.1 3.5 26.3c0 .1-1.7 6-1.7 6l-.2 3.3-.7 34-.4 7.9 3 18.7-1.2 10.6-.7 27.8.6 28.4-1.3 7.9-1 18.6s-8.4.7-8.5.6c-.1 0-1.1-.2-1.3-.3-.2 0-2.2.8-2.2.8s-41.4.1-41.5 0c-.1-.1-10.2.6-10.2.6s-8.7-.4-9-.4h-19.7l-7.1-1.5s-22.6 1-23.3.8c-.7-.2-7.6-1.7-7.6-1.7s-4.7.9-4.8.9l-15.9.4-21.1 1-29.2-2.9 2.6-9.8-.7-4.4s-1.5-7.7-1.5-7.9l.4-8.6-1.3-8.9.6-5.4.5-18.3s.9-6.6.9-7.6-.9-4.2-.9-4.2l.2-8.5-1.4-10.9 1.9-9.9 2.4-15.9-2.3-8.6-1.9-11.9.4-14.9.5-11.2.7-22.6c0-.1-3-11-3-11l1.4-6.5L.6 21.7l6.2-11.5L1.2.3l47.3.8zM14.7 8.4L12.5 16l.4 3.8-4.7 10s3.9 9.3 3.9 10.1c0 .8.4 4.3.4 5.2 0 .9-1.5 7.6-1.5 7.6l2.2 3.3-4.3 12.4s.4 8.3-.2 11.8l1.9 4.2 1.3 6.9s-.4.6-.7 1.2c-.3.6-2 4-1.9 4.8.2.8.7 14.7.7 14.7l3.3 2.4 1.2 16.1-5.9 18.1 1.9 6.5.7 9.9 1.6 16.9-1.7 5.9 1 4.9-2.6 5.8.7 15.7 3.5 18.6 5.4 3.1 5.5-2.5s9.6 2.1 9.7 2.1c.1 0 9-1.4 9-1.4l6.9.5c.1 0 3.4-.7 3.4-.7l3.2 3 4.7-.4 2.9-1.5 9 1.7 4.7-.5 20.2 2.1 19.2-2.5s11 4.4 11 4.5c0 .1 3-2.2 3.1-2.2.1 0 4.9-1.3 5.2-1.3.3 0 4.2 2.1 4.2 2.1l3.7-1.6 23-.5 5.5-1.3 4.9-1.2 8.6-.1 7.9 1.7s3.9-1 4.8-1.1c.9-.1-.2-13.2-.2-13.2l3.3-5.8-2.5-5.3s0-4 .1-4.3c.1-.3 2.1-2.3 2.1-2.3s-1.8-2.7-2.2-9.4c-.4-6.7.2-8 .2-8l1.6-5 2-9.7-3.8-10.1s2.6-14.1 3.6-16.6c0 0-1.9-13-2.4-15.6-.5-2.6-.8-2.7-.7-4.5.2-1.8.5-3.6.8-3.9.3-.3 3.8-5.7 3.5-8.2-.3-2.5-3.3-5.6-3.2-7.4.2-1.8.6-2.1.9-3.8.4-1.7 1.3-7.7.3-10.4-1-2.6-1.8-.7-1-3.7s2-9.6 2-9.8v-2s-2.3-13.9-2.3-15l-.1-11.4c0-.4-1-11.1-.9-11.2.1-.1 2.6-6.5 2.6-6.5l-4.6-10.6-2.2-8.4-2.3-4.5-14.6-.2-14.4 2.7-4.9-1.7-9.6-.8-5.2-3.3s-11.1 6.4-22.3 1.5l-13.5 1.1s-9.9 3.2-10 3.2c-.1 0-26.4-5-26.4-5L52.8 7.5 42.5 5.2 20.6 9.8l-5.9-1.4z"/></svg>