<svg preserveAspectRatio="none" viewBox="0 0 1232 513" fill="none" xmlns="http://www.w3.org/2000/svg"><path d="M278.93 12.8063L43.6259 11.6825L35.0317 36.8874L41.5515 79.4307L20.2141 142.523L30.8828 268.869L32.9573 501.974L98.7475 503.098L179.355 508.877L289.302 493.947L467.41 501.974L592.471 497.319L984.545 503.098L1217.77 496.195L1213.33 443.377L1198.51 419.296L1190.21 375.629L1198.51 310.128V217.175L1211.25 143.808H1240.89L1281.19 545.481C833.998 542.43 -62.0534 537.036 -68.6916 539.862C-75.3299 542.687 -65.9257 206.579 -60.3938 38.1717L-39.0564 -33.1084L1236.74 -15.9305L1268.45 33.516L1240.89 125.345L1209.18 131.125L1211.25 110.415L1213.33 89.7053L1211.25 54.2258L1200.59 19.7095L1192.29 13.9301L1109.61 11.6825L893.565 20.8333H772.653L566.984 23.2414L456.741 15.2144L350.943 18.5858L278.93 12.8063Z" fill="black" fill-opacity="0.17"/><path d="M831.625 2.85339L578.837 15.0545L410.212 6.22474L271.223 11.5226L171.352 9.91718L16.9524 6.38529L19.3232 3.33501L171.648 8.47231L270.037 8.63285L1241.48 -16.251C1241.48 -16.251 1247.31 -6.40447 1250.96 15.0545L1198.21 14.0912L1100.71 9.75665L1014.18 13.2885L910.159 9.75665L831.625 2.85339Z" fill="#306C62" fill-opacity="0.49"/><path d="M146.756 510.161L-5.27334 503.098L-15.053 517.065L206.026 523.165L1234.96 524.931L1246.22 504.864L1156.73 506.63L1081.45 501.492L986.915 507.432L938.906 504.864H886.155L815.623 502.295H654.111L553.351 507.432L200.988 508.395L146.756 510.161Z" fill="#1B433B" fill-opacity="0.52"/></svg>