<svg viewBox="0 0 848 781" fill="none" xmlns="http://www.w3.org/2000/svg" preserveAspectRatio="none"><g opacity="0.95"><mask id="mask0_2320_2024" style="mask-type:luminance" maskUnits="userSpaceOnUse" x="0" y="0" width="848" height="781"><path d="M3.54843 4.98157L28.5707 0L88.1767 6.36534L199.658 4.15131H279.607L307.681 8.02587L312.462 4.56644L370.746 0.830262L425.266 4.98157C425.266 4.98157 484.872 4.42807 544.274 4.42807C603.677 4.42807 739.57 8.85613 739.57 8.85613L786.767 6.36534L789.615 5.25833L832.743 5.53508L844.135 3.5978L846.983 4.98157L846.779 19.096V48.432L845.152 190.407L840.066 194.835L844.948 204.245L847.186 406.552L844.948 420.943L846.373 476.571L847.797 482.936L848 692.162L846.169 748.897L848 756.646L846.983 774.911L839.863 777.956L783.308 771.867L742.418 779.893L656.773 772.974L649.449 781L469.004 774.911L443.371 779.063L398.819 770.76L372.576 775.742L294.661 775.88L224.273 780.17L215.119 776.849L190.504 781L113.199 776.295L110.961 777.402L31.4187 773.804L3.54843 774.911L2.1244 765.225L6.59986 754.432L0.700367 709.321C0.700367 709.321 3.14157 650.372 3.14157 626.294C3.14157 602.217 1.10723 592.807 0.090067 560.981C-0.9271 529.154 7.0068 421.22 7.0068 421.22L1.5141 385.795L4.15873 380.537L3.345 209.78L6.59993 204.245L3.345 154.152V55.3508L4.36217 17.989L3.54843 4.98157Z" fill="white" /></mask><g mask="url(#mask0_2320_2024)"><rect x="-48.9375" y="-57.0114" width="933.759" height="888.381" fill="url(#paint0_radial_2320_2024)" /><g filter="url(#filter0_f_2320_2024)"><path d="M566.013 617.121L434.532 611.453L401.237 571.774L336.686 608.619L86.2949 574.608L23.4423 684.374L0 799.484L347.218 807.015L493.987 790.009L656.385 798.512L840.865 806.656L848 711.627L831.692 690.811L792.622 605.785L767.821 602.95L724.673 622.79L651.288 580.276L620.712 631.301L566.013 617.121Z" fill="url(#paint1_linear_2320_2024)" fill-opacity="0.15" /></g><g filter="url(#filter1_f_2320_2024)"><path d="M281.987 219.443L413.468 227.298L446.763 282.289L511.314 231.226L761.705 278.361L824.558 126.239L848 -33.2907L500.782 -43.7272L354.013 -20.1597L191.615 -31.9434L7.13462 -43.2302L0 88.4685L16.3077 117.317L55.3782 235.154L80.1795 239.082L123.327 211.587L196.712 270.505L227.288 199.791L281.987 219.443Z" fill="url(#paint2_linear_2320_2024)" fill-opacity="0.2" /></g><path d="M275.847 768.323L412.359 767.762L446.928 763.841L513.95 767.482L773.923 764.121L848 770.563L727.008 785.968L503.015 787.089L350.629 785.408L182.017 786.248L64.5524 783.447L2.82196 776.445L0 775.605L40.5657 767.202L66.3161 766.922L111.115 768.883L183.923 769.1L211.39 774.911L217.697 767.992L275.847 768.323Z" fill="url(#paint3_radial_2320_2024)" fill-opacity="0.2" /><path d="M50.3846 -21.0333L3.25513 2.21403L18.7177 10.2399L25.6352 6.6421L71.8194 13.2842L143.279 14.6322L182.256 17.2792L188.806 11.9004L221.233 19.9263L251.162 17.6972L295.416 12.1772L305.451 16.0254L390.714 8.78082L467.276 19.6477L505.381 15.7831L507.416 9.96315L524.433 13.8508L543.485 11.9185L651.023 13.2754L658.682 15.4681L758.561 14.6322L847.796 3.5978C846.779 -14.668 617.842 -14.8548 611.082 -14.8548C604.323 -14.8548 571.248 -5.24389 555.556 -0.438417L468.041 -2.49791L289.994 -0.438417L50.3846 -21.0333Z" fill="url(#paint4_radial_2320_2024)" fill-opacity="0.3" /></g></g><defs><filter id="filter0_f_2320_2024" x="-170" y="401.774" width="1188" height="575.241" filterUnits="userSpaceOnUse" color-interpolation-filters="sRGB"><feFlood flood-opacity="0" result="BackgroundImageFix" /><feBlend mode="normal" in="SourceGraphic" in2="BackgroundImageFix" result="shape" /><feGaussianBlur stdDeviation="85" result="effect1_foregroundBlur_2320_2024" /></filter><filter id="filter1_f_2320_2024" x="-170" y="-213.727" width="1188" height="666.016" filterUnits="userSpaceOnUse" color-interpolation-filters="sRGB"><feFlood flood-opacity="0" result="BackgroundImageFix" /><feBlend mode="normal" in="SourceGraphic" in2="BackgroundImageFix" result="shape" /><feGaussianBlur stdDeviation="85" result="effect1_foregroundBlur_2320_2024" /></filter><radialGradient id="paint0_radial_2320_2024" cx="0" cy="0" r="1" gradientUnits="userSpaceOnUse" gradientTransform="translate(-6.94917 -10.735) rotate(43.9328) scale(1213.73 1951.29)"><stop stop-opacity="0.92" /><stop offset="0.531186" stop-color="#051410" stop-opacity="0.93" /><stop offset="1" stop-opacity="0.92" /></radialGradient><linearGradient id="paint1_linear_2320_2024" x1="424" y1="807.015" x2="424" y2="629.867" gradientUnits="userSpaceOnUse"><stop stop-color="#0E9686" /><stop offset="1" stop-color="#48C89D" stop-opacity="0" /></linearGradient><linearGradient id="paint2_linear_2320_2024" x1="424" y1="-43.7272" x2="424" y2="201.779" gradientUnits="userSpaceOnUse"><stop stop-color="#48C89D" /><stop offset="1" stop-color="#48C89D" stop-opacity="0" /></linearGradient><radialGradient id="paint3_radial_2320_2024" cx="0" cy="0" r="1" gradientUnits="userSpaceOnUse" gradientTransform="translate(393.889 763.841) rotate(2.93059) scale(454.706 617.78)"><stop stop-color="#48A9C8" /><stop offset="1" stop-color="#48C89D" stop-opacity="0.1" /></radialGradient><radialGradient id="paint4_radial_2320_2024" cx="0" cy="0" r="1" gradientUnits="userSpaceOnUse" gradientTransform="translate(192.265 19.9264) rotate(2.80399) scale(548.765 1315.18)"><stop stop-color="#48C8B8" /><stop offset="1" stop-color="#48C89D" stop-opacity="0.1" /></radialGradient></defs></svg>