<svg preserveAspectRatio="none" viewBox="0 0 566 290" fill="none" xmlns="http://www.w3.org/2000/svg">
<mask id="mask0_1009_130291" style="mask-type:alpha" maskUnits="userSpaceOnUse" x="0" y="0" width="566" height="290">
<path d="M3.38566 3.18615L10.7726 1.04041L29.2398 0.682782L72.9456 4.97394C78.2122 3.08094 91.0949 -0.149357 141.274 1.04041L160.973 7.11977L169.283 3.90115L282.549 1.04041L322.561 0.682782L344.722 1.75565L399.816 1.57684L446.842 5.00617L454.909 1.39803L487.464 3.21825L542.53 0C542.53 0 561.486 1.39799 563.292 3.21825C565.097 5.03851 566 18.2367 566 18.2367L563.894 63.2922L564.195 83.5811C561.787 86.8927 561.18 87.4356 561.486 90.4686C561.758 95.3651 562.314 97.6115 564.495 103.87L565.097 144.448L564.195 208.113L565.097 216.151C563.417 239.428 563.543 252.42 565.398 275.697L564.796 284.994L559.079 287.497L553.061 288.212L504.216 288.033C498.489 284.118 492.573 284.679 479.794 287.944L455.371 287.855L437.815 290L388.768 285.709L345.645 287.855H297.476L291.782 285.351L262.235 287.855H191.751L133.58 286.424L120.96 287.855L101.57 285.351L96.6452 287.855H72.33L37.8578 287.139L7.69468 287.855L0.923362 284.994L0 277.484V260.854C2.31195 256.581 2.12846 252.758 0 244.225V210.966L3.07787 148.381L0.903192 122.07L1.80638 96.1047L0 53.2535L2.15451 47.8891L0 38.2333V11.0539L3.38566 3.18615Z" fill="url(#paint0_linear_1009_130291)"/>
<path d="M3.38566 3.18615L10.7726 1.04041L29.2398 0.682782L72.9456 4.97394C78.2122 3.08094 91.0949 -0.149357 141.274 1.04041L160.973 7.11977L169.283 3.90115L282.549 1.04041L322.561 0.682782L344.722 1.75565L399.816 1.57684L446.842 5.00617L454.909 1.39803L487.464 3.21825L542.53 0C542.53 0 561.486 1.39799 563.292 3.21825C565.097 5.03851 566 18.2367 566 18.2367L563.894 63.2922L564.195 83.5811C561.787 86.8927 561.18 87.4356 561.486 90.4686C561.758 95.3651 562.314 97.6115 564.495 103.87L565.097 144.448L564.195 208.113L565.097 216.151C563.417 239.428 563.543 252.42 565.398 275.697L564.796 284.994L559.079 287.497L553.061 288.212L504.216 288.033C498.489 284.118 492.573 284.679 479.794 287.944L455.371 287.855L437.815 290L388.768 285.709L345.645 287.855H297.476L291.782 285.351L262.235 287.855H191.751L133.58 286.424L120.96 287.855L101.57 285.351L96.6452 287.855H72.33L37.8578 287.139L7.69468 287.855L0.923362 284.994L0 277.484V260.854C2.31195 256.581 2.12846 252.758 0 244.225V210.966L3.07787 148.381L0.903192 122.07L1.80638 96.1047L0 53.2535L2.15451 47.8891L0 38.2333V11.0539L3.38566 3.18615Z" fill="#FF0000"/>
</mask>
<g mask="url(#mask0_1009_130291)">
<rect x="-31" y="-14" width="655" height="365" fill="#4C2752"/>
<g filter="url(#filter0_f_1009_130291)">
<path d="M-15.6863 208.027L-22.9997 272.978L-23 297.876C31.0089 297.515 139.927 296.144 143.527 293.546C148.028 290.298 470.956 302.206 566.597 305.453C643.11 308.051 610.104 300.762 584.037 296.793L587.413 210.192L573.911 196.12C568.097 196.481 555.795 197.635 553.095 199.367C549.719 201.532 549.157 209.11 536.78 198.285C524.403 187.46 520.464 201.532 509.213 186.377C497.961 171.222 497.961 201.532 495.148 201.532C492.335 201.532 455.204 208.027 442.264 208.027C429.324 208.027 407.946 193.955 394.444 177.717C380.941 161.48 360.688 203.697 342.685 203.697C324.682 203.697 324.682 210.193 302.741 208.028C280.8 205.863 275.737 185.295 257.734 189.625C239.731 193.955 230.729 216.688 224.541 225.348C218.352 234.008 187.41 223.183 164.906 218.853C142.402 214.523 145.778 226.43 130.025 210.193C114.273 193.955 109.772 195.037 97.3948 193.955C85.0178 192.872 74.3285 205.862 63.0767 212.358C51.8248 218.853 27.6333 223.183 17.5067 219.935C9.40533 217.337 2.12914 208.027 -0.496296 203.697L-15.6863 208.027Z" fill="url(#paint1_linear_1009_130291)" fill-opacity="0.3"/>
</g>
<rect width="572" height="310" fill="url(#paint2_linear_1009_130291)"/>
</g>
<defs>
<filter id="filter0_f_1009_130291" x="-59" y="138" width="709" height="204" filterUnits="userSpaceOnUse" color-interpolation-filters="sRGB">
<feFlood flood-opacity="0" result="BackgroundImageFix"/>
<feBlend mode="normal" in="SourceGraphic" in2="BackgroundImageFix" result="shape"/>
<feGaussianBlur stdDeviation="18" result="effect1_foregroundBlur_1009_130291"/>
</filter>
<linearGradient id="paint0_linear_1009_130291" x1="286.761" y1="4.29101" x2="284.551" y2="281.758" gradientUnits="userSpaceOnUse">
<stop stop-color="#1A1A1A"/>
<stop offset="1" stop-color="#101010"/>
</linearGradient>
<linearGradient id="paint1_linear_1009_130291" x1="295.5" y1="174" x2="295.5" y2="259.97" gradientUnits="userSpaceOnUse">
<stop stop-opacity="0"/>
<stop offset="1"/>
</linearGradient>
<linearGradient id="paint2_linear_1009_130291" x1="149.264" y1="109.529" x2="499.094" y2="269.626" gradientUnits="userSpaceOnUse">
<stop stop-opacity="0.4"/>
<stop offset="1" stop-opacity="0"/>
</linearGradient>
</defs>
</svg>
