<svg aria-hidden="true" role="presentation" viewBox="0 0 64 64" xmlns="http://www.w3.org/2000/svg"><path d="M6.5 45.86C7.225 45.645 7.955 45.37 8.705 45.215C10.57 44.825 12.44 44.485 14.315 44.13C14.45 44.105 14.595 44.09 14.73 44.095C15.825 44.135 16.915 44.18 18.075 44.23C18.125 44.35 18.185 44.505 18.26 44.69C17.6 45.285 16.74 44.975 15.99 45.255C16.05 45.89 16.55 46.525 15.87 47.215C17.275 47.03 18.545 46.86 19.86 46.69C19.96 46.1 20.055 45.56 20.16 44.955C20.57 44.865 21.025 44.73 21.485 44.68C21.955 44.63 22.43 44.67 22.905 44.67C22.805 43.565 22.715 42.5451 22.62 41.4551C22.13 41.3901 21.645 41.3301 21.12 41.2651C20.855 40.4151 20.585 39.5601 20.305 38.6651C19.76 39.5651 19.485 40.6501 18.705 41.3601C18.115 41.3251 17.565 41.3001 17.02 41.2651C16.9 41.2601 16.775 41.2701 16.67 41.2351C16.285 41.1151 15.905 40.9751 15.445 40.8151C15.41 40.0551 15.355 39.2101 15.34 38.3651C15.31 36.9101 15.31 35.4551 15.295 34.0001C15.28 32.5151 14.965 31.0801 14.57 29.6601C14.18 28.2451 13.77 26.8351 13.365 25.4301C13.31 25.2401 13.23 25.0601 13.15 24.8501C13.68 24.6351 14.24 24.6651 14.785 24.6501C16.215 24.6101 17.65 24.6001 19.08 24.5501C19.595 24.5351 20.11 24.4551 20.62 24.3851C22.015 24.2001 23.415 24.0051 24.845 23.8101C25.045 24.1801 25.25 24.5551 25.4 24.8351C25.6 25.5551 25.785 26.1751 25.945 26.8051C26.32 28.2651 26.72 29.7201 27.03 31.1951C27.165 31.8451 27.1 32.5351 27.12 33.2101C27.155 34.5401 27.175 35.8751 27.21 37.2051C27.215 37.4801 27.255 37.7551 27.285 38.0951C28.175 38.3651 29.055 38.6201 29.975 38.1551C30.4 37.9401 30.835 37.7401 31.28 37.5701C31.7 37.4101 32.135 37.3401 32.51 37.7901C32.69 38.7451 32.87 39.7301 33.065 40.7751C31.69 41.1151 30.4 41.5051 29.085 41.7401C28.195 41.9001 27.27 41.8851 26.36 41.8751C25.885 41.8701 25.41 41.7101 24.855 41.6001C24.97 42.6251 25.075 43.5401 25.175 44.415C25.755 44.415 26.27 44.43 26.78 44.41C27.715 44.375 28.65 44.315 29.585 44.26C29.74 44.25 29.9 44.22 30.045 44.165C31.73 43.5551 33.41 42.9351 35.09 42.3251C35.615 42.1351 36.145 41.9651 36.755 41.7551C36.62 39.7351 36.22 37.7351 36.1 35.6901C34.535 35.8801 33.07 36.0701 31.605 36.2301C31.35 36.2601 31.075 36.1451 30.675 36.0751C30.23 36.1001 29.64 36.1351 29.03 36.1701C28.95 35.9901 28.88 35.8301 28.81 35.6751C28.835 35.6751 28.86 35.6701 28.885 35.6701C28.92 35.1601 28.975 34.6551 28.985 34.1451C28.995 33.5151 28.955 32.8851 28.965 32.2551C29 30.2401 28.27 28.3951 27.69 26.5201C27.405 25.5901 27.02 24.7001 26.53 23.8601C26.48 23.7751 26.445 23.6801 26.42 23.5851C26.4 23.5101 26.415 23.4301 26.415 23.2851C26.69 23.2001 26.96 23.0951 27.24 23.0301C27.57 22.9551 27.905 22.8951 28.24 22.8801C28.77 22.8501 29.305 22.8651 29.835 22.8501C31.345 22.8101 32.86 22.7701 34.37 22.7201C34.525 22.7151 34.68 22.6601 34.905 22.6151C34.77 21.7901 34.63 20.9751 34.49 20.1051C33.76 20.0551 33.07 20.0101 32.33 19.9601C32.105 19.4601 31.865 18.9251 31.585 18.2951C31.585 18.2001 31.585 18.0051 31.585 17.7401C32.48 17.4451 33.385 17.1501 34.355 16.8301C34.185 15.4151 34.01 13.9852 33.825 12.4452C33.14 12.9552 32.505 13.4202 31.845 13.9102C30.805 13.7652 29.76 13.7302 28.76 14.1202C28.57 12.6502 28.39 11.2452 28.2 9.77017C28.33 9.77017 28.48 9.76017 28.63 9.77017C29.485 9.82517 30.34 9.87517 31.195 9.93517C31.79 9.97517 32.345 9.88017 32.87 9.50517C32.89 9.35517 32.915 9.18517 32.945 8.99517C33.33 8.65517 33.76 8.44517 34.3 8.50017C34.58 8.79017 34.725 9.09517 34.69 9.51517C34.665 9.80017 34.765 10.0952 34.83 10.5202C34.64 10.9602 34.725 11.5352 34.86 12.1352C34.98 12.6952 35 13.2752 35.04 13.8502C35.1 14.7052 35.135 15.5601 35.185 16.4151C35.19 16.5101 35.215 16.6051 35.235 16.7201C35.905 16.6501 36.555 16.5801 37.185 16.5101C37.51 16.7351 37.8 16.9401 38.15 17.1851C38.195 17.6301 38.24 18.1201 38.29 18.6551C37.6 19.2151 36.925 19.7601 36.25 20.3101C36.25 20.9801 36.25 21.6701 36.25 22.3651C38.27 21.9051 40.24 21.4551 42.16 21.0201C43.25 21.9701 43.74 23.1951 44.26 24.3951C44.855 25.7751 45.38 27.1901 45.875 28.4451C45.765 29.0951 45.66 29.5801 45.605 30.0651C45.505 30.9951 45.24 31.8851 44.94 32.7651C44.885 32.9301 44.705 33.1051 44.545 33.1701C43.98 33.4101 43.395 33.6051 42.775 33.8301C42.505 33.2751 42.26 32.7651 41.99 32.2101C41.33 32.8401 41.19 33.7001 40.845 34.5351C39.935 34.7551 39 34.9801 38.035 35.2151C38.165 36.4051 38.285 37.5301 38.405 38.6551C38.425 38.6451 38.445 38.6401 38.46 38.6301C38.555 38.8451 38.695 39.0501 38.74 39.2751C38.86 39.8551 38.94 40.4401 39.045 41.0951C39.205 41.0951 39.365 41.1251 39.5 41.0901C40.345 40.8601 41.18 40.6001 42.025 40.3801C42.465 40.2701 42.92 40.2251 43.37 40.1551C43.59 40.5901 43.775 40.9651 43.98 41.3701C44.335 41.3051 44.515 40.9701 44.755 40.7201C44.89 40.5801 45.045 40.4201 45.105 40.2401C45.425 39.2901 46.28 38.9701 47.075 38.6701C48.99 37.9401 50.935 37.2851 52.875 36.6201C54.02 36.2251 55.185 35.8751 56.335 35.5001C56.77 35.3601 57.21 35.2751 57.68 35.3801C57.735 35.6301 57.64 35.7851 57.45 35.8901C57.19 36.0301 56.925 36.1701 56.655 36.2951C55.76 36.7151 54.865 37.1451 53.955 37.5451C53.09 37.9301 52.21 38.2801 51.16 38.7151C50.685 39.4201 50.155 40.3101 49.525 41.1201C48.68 42.2001 47.78 43.2401 46.845 44.24C46.55 44.555 46.085 44.74 45.66 44.89C44.91 45.155 44.13 45.33 43.34 45.33C42.805 45.45 42.275 45.6 41.735 45.685C40.01 45.96 38.28 46.21 36.555 46.465C36.225 46.515 35.89 46.54 35.49 46.585C35.23 46.15 34.965 45.695 34.695 45.235C34.55 45.235 34.415 45.235 34.31 45.235C33.905 45.77 33.525 46.28 33.18 46.735C32.22 46.905 31.33 47.005 30.47 47.225C28.66 47.685 26.855 48.185 25.06 48.715C23.155 49.28 21.225 49.71 19.265 50.03C18.215 50.2 17.2 50.575 16.155 50.785C15.4 50.94 14.625 50.98 13.89 51.065C13.615 50.67 13.395 50.355 13.115 49.95C12.82 50.33 12.58 50.63 12.32 50.96C11.94 51.1 10.25 51.205 9.87 51.11C9.535 51.155 9.225 51.2 8.9 51.245C8.71 50.97 8.55 50.72 8.38 50.48C8.01 49.97 7.84 49.425 8.08 48.805C8.305 48.22 8.035 47.805 7.59 47.46C7.495 47.385 7.405 47.3 7.3 47.255C6.705 47.015 6.57 46.495 6.5 45.86ZM15.15 47.36C14.99 46.755 14.84 46.205 14.675 45.575C14.1 45.65 13.49 45.7 12.89 45.815C12.3 45.925 11.675 45.735 11.065 46C11.345 46.635 11.6 47.205 11.88 47.84C13.005 47.67 14.08 47.515 15.15 47.36ZM15.63 47.215L15.625 47.24L15.675 47.23L15.63 47.215Z"></path><path d="M13.965 12.6951C15.15 12.8301 16.215 12.9051 17.265 13.0801C18.32 13.2551 19.355 13.5201 20.48 13.7651C20.325 12.1251 20.075 10.5551 19.77 8.94508C19.075 9.13507 19.24 9.88007 18.82 10.3151C18.385 10.2651 17.89 10.2451 17.41 10.1501C16.46 9.95507 15.505 10.0101 14.55 10.0601C13.76 10.1001 12.975 10.2601 12.185 10.3301C11.735 10.3701 11.285 10.3351 10.785 10.2601C10.95 10.1451 11.1 10.0001 11.285 9.93007C12.335 9.51507 13.385 9.09508 14.455 8.73008C14.82 8.60508 15.24 8.58008 15.625 8.61008C16.35 8.66508 17.045 8.57008 17.755 8.44508C18.495 8.31508 19.25 8.27008 19.86 8.20508C20.295 8.41508 20.595 8.56008 20.875 8.70008C21.275 10.2801 21.455 11.8851 21.545 13.5501C23.175 13.1351 24.765 12.6201 26.45 12.5251C27.01 13.1851 27.335 13.9501 27.6 14.7401C27.88 15.5901 28.135 16.445 28.38 17.3C28.51 17.745 28.53 18.19 28.37 18.65C28.065 19.55 27.795 20.46 27.49 21.42C25.94 21.795 24.425 22.16 22.915 22.525C22.59 22.03 22.81 21.385 22.32 21C21.765 21.395 21.57 22.03 21.24 22.6C19.225 22.795 17.215 23.07 15.17 22.965C14.955 22.455 15.18 21.97 15.225 21.485C15.37 19.985 15.565 18.49 15.715 16.99C15.735 16.785 15.655 16.555 15.565 16.365C15.205 15.5701 14.815 14.7851 14.45 13.9901C14.29 13.6051 14.155 13.2001 13.965 12.6951Z"></path><path d="M46.415 46.9199C45.715 48.6499 45.05 50.2949 44.4 51.9099C43.965 52.2049 43.535 52.3099 42.99 52.1599C42.715 51.9099 42.39 51.6199 42.035 51.2949C41.575 51.4399 41.105 51.5949 40.635 51.7349C38.965 52.2349 37.305 52.7699 35.615 53.1999C34.915 53.3799 34.16 53.3849 33.43 53.3849C32.06 53.3799 30.685 53.3449 29.315 53.2699C28.225 53.2099 27.14 53.0599 26.195 52.9649C25.11 53.3799 24.145 53.7349 23.19 54.1199C22.14 54.5449 21.105 54.9999 20.06 55.4349C19.395 55.7149 18.725 55.8299 17.98 55.7049C17.14 55.5649 16.28 55.5449 15.425 55.5049C14.51 55.4649 13.595 55.4599 12.68 55.4399C12.54 55.4349 12.4 55.4299 12.26 55.4199C11.205 55.3299 11.205 55.3299 10.545 54.4849C10.375 54.2649 10.185 54.0649 9.95496 53.8049C9.92496 53.6949 9.87996 53.5249 9.82996 53.3499C9.85496 53.3299 9.87996 53.2899 9.90996 53.2849C11.485 53.1999 13.06 53.1149 14.635 53.0349C14.87 53.0249 15.11 53.0299 15.35 53.0349C15.95 53.0549 16.505 52.9299 17.075 52.7099C18.58 52.1399 20.115 51.6549 21.635 51.1349C22.35 50.8949 23.055 50.6299 23.78 50.4299C24.815 50.1449 25.86 49.9049 26.905 49.6649C27.93 49.4299 28.965 49.2299 29.995 49.0049C30.34 48.9299 30.675 48.7699 31.02 48.7349C32.525 48.5949 34.025 48.4649 35.535 48.3799C37.425 48.2749 39.315 48.2199 41.205 48.1449C41.485 48.1349 41.765 48.1499 42.04 48.1449C42.86 48.1349 43.64 47.9749 44.4 47.6399C45.05 47.3899 45.71 47.1799 46.415 46.9199Z"></path></svg>