<svg aria-hidden="true" role="presentation" xmlns="http://www.w3.org/2000/svg" viewBox="0 0 30.83 29.66"><path d="M28.5 0c-1.22 2.19-2.14 3.94-3.16 5.63a21.85 21.85 0 0 1-2.16 3c-1.52 1.78-3.18 3.37-4.67 5.2a2 2 0 0 0-.24 1.9c2.66 3.16 5.42 6.24 8.19 9.3 1.4 1.55 2.88 3 4.37 4.59-2 .57-13.55-6.78-17.25-10.91C11 20.81 8.36 22.93 5.72 25a38.83 38.83 0 0 1-3.19 2.25C1.67 27.8.2 26.71.1 25.37a15.12 15.12 0 0 1 .06-4 3.5 3.5 0 0 1 1.51-1.81c2-1.39 4.17-2.61 6.16-4.05a2 2 0 0 0 .08-1.92C5.66 11.1 3.24 8.74.95 6.26A1.82 1.82 0 0 1 1 3.31C1.93 2.56 2.6 1.47 3.59 1a2.77 2.77 0 0 1 2.56.22C7.75 2.88 9 4.84 10.48 6.68c.88 1.13 1.88 2.16 2.69 3.34.69 1 1.29.94 2.1.22 3.8-3.33 7.61-6.65 11.45-9.92.28-.26.89-.18 1.78-.32z" fill="#005c37"></path></svg>