<svg aria-hidden="true" role="presentation" viewBox="0 0 64 64" xmlns="http://www.w3.org/2000/svg"><path d="M60.3434 32.5759C58.9118 32.8319 57.4755 33.0878 56.0392 33.3343C54.6172 33.5808 53.1903 33.8178 51.7683 34.0691C51.3274 34.1497 50.8913 34.2587 50.4173 34.3677C50.3984 34.216 50.3794 34.0833 50.3604 33.9458C50.3035 33.5429 49.986 33.2395 49.583 33.2206C49.4456 33.2158 49.3034 33.2301 49.1706 33.268C48.6065 33.4339 48.0282 33.4623 47.4499 33.5002C47.1228 33.5239 46.791 33.5619 46.4734 33.6472C45.6155 33.8747 44.7717 34.1449 43.8663 34.107C43.5582 34.0928 43.3259 34.2587 43.1742 34.5289C43.1173 34.6237 43.051 34.7137 42.9846 34.8038C42.7713 35.0977 42.5817 35.3869 42.6338 35.785C42.667 36.0458 42.6481 36.316 42.6338 36.5814C42.6291 36.643 42.5722 36.7378 42.5201 36.7568C42.0271 36.9132 41.5341 37.0554 41.0364 37.1976C40.9653 37.2166 40.8847 37.2213 40.8136 37.2356C40.8041 37.1929 40.7899 37.1739 40.7946 37.1597C40.7994 36.2259 40.7994 35.2873 40.8089 34.3535C40.8089 34.3013 40.8705 34.2208 40.9226 34.2065C41.3303 34.0833 41.7332 33.9458 42.1456 33.87C42.6149 33.7894 43.0178 33.5666 43.4302 33.3628C43.8284 33.1684 44.2218 32.9693 44.6247 32.7892C45.0703 32.5949 45.5349 32.4289 45.9805 32.2299C46.189 32.1351 46.3739 31.9834 46.5777 31.8743C46.8669 31.7179 47.0233 31.4856 47.047 31.1633C47.0517 31.0969 47.0565 31.0258 47.0897 30.9737C47.2319 30.7509 47.3646 30.5186 47.54 30.3195C47.7865 30.0446 47.8908 29.7033 47.9761 29.3715C48.1562 28.6699 48.2984 27.9541 48.4454 27.2431C48.488 27.0298 48.5307 26.8165 48.5354 26.5984C48.5497 26.058 48.5449 25.5129 48.5402 24.9725C48.5354 24.1999 48.5781 23.4225 48.3316 22.6688C48.1562 22.1284 47.9761 21.588 47.7817 21.0571C47.6727 20.7679 47.5258 20.4882 47.3883 20.2086C47.2698 19.9716 47.156 19.7345 47.0091 19.5165C46.7341 19.1136 46.4355 18.7249 46.1511 18.3267C45.7577 17.7768 45.3737 17.2222 44.9755 16.6771C44.9376 16.6202 44.8333 16.5775 44.767 16.587C43.4397 16.715 42.1172 16.8477 40.7946 16.9899C40.7283 16.9947 40.6382 17.0658 40.6145 17.1227C40.4676 17.5114 40.3396 17.9095 40.3348 18.3362C40.3348 18.4973 40.2637 18.6064 40.1073 18.6443C39.9604 18.6775 39.8276 18.6111 39.785 18.4736C39.7091 18.2224 39.6428 17.9664 39.6048 17.7105C39.5764 17.5019 39.6001 17.2886 39.6001 17.0705C39.4721 17.0705 39.3394 17.061 39.2114 17.0705C38.5809 17.1321 37.9458 17.1985 37.3153 17.2744C36.6564 17.3549 36.0023 17.4877 35.3434 17.5208C33.9497 17.5919 32.5514 17.6157 31.153 17.6536C30.6363 17.6678 30.1196 17.6536 29.6029 17.6536H29.4323C29.5366 17.7768 29.6409 17.8953 29.7499 18.0138C29.7878 18.0565 29.8352 18.0992 29.8826 18.1276C30.3993 18.4262 30.9112 18.7201 31.2336 19.2605C31.4895 19.6966 31.8071 20.0995 32.0821 20.5262C32.2148 20.73 32.3049 20.9623 32.4329 21.1708C32.6082 21.4505 32.7125 21.7539 32.7457 22.081C32.7884 22.4744 32.85 22.8679 32.9021 23.2613C32.9211 23.3845 32.9685 23.4556 33.1107 23.4746C33.2908 23.4983 33.471 23.5694 33.6511 23.6073C34.0303 23.6927 34.3621 23.9202 34.7793 23.8823C35.0495 23.8586 35.2343 24.0529 35.2391 24.2994C35.2438 24.5506 35.0637 24.7213 34.784 24.7497C34.6987 24.7592 34.6086 24.7924 34.5375 24.8398C34.2436 25.0436 33.9403 25.1621 33.5942 24.9678C33.5279 24.9299 33.452 24.9156 33.3525 24.8825C33.3667 25.0436 33.3762 25.1764 33.3951 25.3091C33.5326 26.2808 33.471 27.2526 33.4046 28.2243C33.3477 29.0112 33.0728 29.746 32.8405 30.4902C32.7505 30.7746 32.6035 31.059 32.4281 31.3008C32.1579 31.6752 31.8735 32.0402 31.4801 32.3104C31.3805 32.3815 31.3094 32.4953 31.2194 32.5854C31.0677 32.7371 30.916 32.8888 30.7548 33.0215C30.5699 33.1732 30.5273 33.4481 30.7074 33.5951C30.8733 33.7278 31.0677 33.8747 31.2715 33.9126C31.736 34.0027 32.2148 34.0359 32.6888 34.088C33.3382 34.1591 33.9924 34.216 34.6418 34.2871C35.4145 34.3725 36.1919 34.472 36.9645 34.5431C37.2442 34.5715 37.5286 34.5478 37.832 34.5478C37.8509 34.818 37.8604 35.0503 37.8841 35.2778C37.9505 35.8419 37.6756 36.3965 37.8841 36.9796C37.9837 37.264 37.9031 37.61 37.8983 37.9276C37.8983 37.9798 37.8557 38.0651 37.8178 38.0746C37.5381 38.1457 37.2537 38.2073 36.9693 38.2642C36.5806 38.3448 36.1919 38.4206 35.8032 38.506C35.4097 38.5913 35.0163 38.6813 34.6228 38.7619C34.2389 38.8378 33.8549 38.8994 33.4757 38.98C33.0349 39.07 32.5988 39.1743 32.1579 39.2691C32.0631 39.2881 31.9588 39.2834 31.8593 39.2881C31.4706 39.3071 31.0819 39.326 30.6884 39.3497C30.314 39.3734 29.9348 39.3971 29.5603 39.4445C28.8255 39.5346 28.0813 39.3639 27.3513 39.563C27.3181 39.4161 27.2802 39.2691 27.2518 39.1222C27.2186 38.9278 27.1665 38.7335 27.1665 38.5391C27.1665 38.0272 27.1949 37.52 27.2091 37.008C27.2091 36.9369 27.2091 36.8658 27.2091 36.79C27.2992 36.7852 27.3561 36.7758 27.4129 36.7758C28.233 36.7758 29.0578 36.7758 29.8779 36.7852C30.4088 36.79 30.9349 36.8232 31.4658 36.8326C31.8972 36.8421 32.2338 36.5435 32.2575 36.1311C32.2575 36.0979 32.2575 36.0695 32.2575 36.0363C31.5275 35.5291 28.7876 34.7375 28.2662 34.2492C27.9818 33.9838 27.7969 33.5002 28.1003 33.1637C29.802 31.2391 32.4945 27.6792 31.153 24.9867C30.2523 23.176 29.1194 21.4458 28.105 19.6824C27.9391 19.6255 27.759 19.6018 27.5504 19.6397C27.4983 19.6492 27.4414 19.6208 27.3892 19.6018C27.3039 19.5781 27.2139 19.526 27.1333 19.5307C26.4981 19.5781 25.8581 19.5971 25.2372 19.7061C24.2275 19.8768 23.2226 20.0995 22.2224 20.3176C21.4497 20.4882 20.6771 20.6826 19.9092 20.8675C19.8665 20.8769 19.8286 20.8959 19.7812 20.9196C19.9613 21.0855 20.1319 21.2325 20.2884 21.3889C20.4875 21.5927 20.6297 21.8297 20.606 22.1331C20.5917 22.3606 20.4401 22.4602 20.2267 22.3938C20.1983 22.3843 20.1699 22.3796 20.1509 22.3796C20.1272 22.5076 20.1082 22.6261 20.0845 22.7399C20.0561 22.7446 20.0324 22.7493 20.004 22.7541C19.8807 22.555 19.7243 22.3654 19.6484 22.1521C19.5394 21.844 19.3735 21.6022 19.1033 21.4173C19.0227 21.3605 18.9421 21.2988 18.871 21.2325C18.7715 21.1377 18.6672 21.1329 18.544 21.1661C18.2406 21.2419 17.9372 21.2988 17.6338 21.3652C17.3115 21.4316 16.9892 21.5027 16.6668 21.569C16.6621 21.6212 16.6573 21.6591 16.6573 21.7018C16.6621 22.555 16.9323 23.3182 17.3921 24.0292C17.942 24.8777 18.1837 25.8447 18.4018 26.8117C18.4681 27.1056 18.5297 27.4043 18.6056 27.6982C18.7051 28.0964 18.8805 28.4851 18.909 28.888C18.9943 30.1584 18.9895 31.4335 18.8284 32.6991C18.8094 32.865 18.7999 33.0357 18.7431 33.1874C18.4444 33.9743 18.1647 34.7659 17.7097 35.4817C17.577 35.6902 17.5864 35.932 17.7523 36.1074C17.942 36.3112 18.1647 36.4534 18.4634 36.4439C18.6388 36.4392 18.8189 36.4866 18.9943 36.5103C19.4399 36.5719 19.8854 36.681 20.331 36.6904C21.3028 36.7094 22.2793 36.681 23.251 36.6715C23.7535 36.6667 24.2559 36.6715 24.7869 36.6715C24.7015 37.776 24.6209 38.8473 24.5309 39.9707H23.0377C23.1136 40.2598 23.142 40.5158 23.2558 40.7339C23.4359 41.0894 23.6587 41.426 23.8862 41.7578C23.9573 41.8621 24.0711 41.9758 24.1848 41.9995C24.602 42.0801 25.0239 42.1749 25.441 42.1607C26.0525 42.1417 26.6592 42.0327 27.2707 41.9711C27.9723 41.8952 28.6786 41.8289 29.3849 41.7578C29.5935 41.7388 29.8068 41.7341 30.0201 41.7056C31.1151 41.5539 32.2101 41.4117 33.3051 41.2411C34.4901 41.061 35.6704 40.8524 36.8508 40.658C37.4765 40.5537 38.1022 40.4305 38.7326 40.3547C39.5527 40.2551 40.3775 40.1698 41.1739 39.9185C41.3682 39.8569 41.5768 39.8522 41.7806 39.819C42.3826 39.7147 42.9846 39.6294 43.5772 39.5061C44.2882 39.3592 44.9945 39.1838 45.7055 39.0226C45.8856 38.98 46.0705 38.9658 46.2459 38.9089C46.6156 38.7904 46.9664 38.596 47.3741 38.6576C47.4357 38.6671 47.5068 38.6387 47.5637 38.615C47.8481 38.4917 48.123 38.34 48.4169 38.2405C49.2702 37.9513 50.1282 37.6764 50.9814 37.4015C51.0335 37.3825 51.0857 37.3588 51.1615 37.3304C51.0193 37.0981 51.0146 36.8848 51.1283 36.6573C51.2089 36.4961 51.2374 36.3065 51.299 36.1311C51.318 36.0837 51.3606 36.0315 51.408 36.0173C52.2328 35.7282 53.0529 35.4343 53.8824 35.1641C54.347 35.0124 54.8257 34.9128 55.295 34.7659C55.6363 34.6616 55.9539 34.491 56.2952 34.3867C57.2196 34.107 58.1486 33.8558 59.073 33.5761C59.8362 33.3438 60.5946 33.0831 61.353 32.8319C61.391 32.8176 61.4241 32.7939 61.4526 32.7702C61.6943 32.5901 61.9314 32.4147 62.1921 32.2251C61.5521 32.3436 60.9501 32.4669 60.3434 32.5759Z"></path><path d="M9.69863 39.2219C10.3765 39.1697 11.0449 39.1176 11.7085 39.0749C12.6139 39.0133 13.5193 38.9612 14.4246 38.9138C14.4768 38.909 14.5621 38.9564 14.5858 39.0038C14.7328 39.3309 14.856 39.6675 15.0124 39.9898C15.1025 40.1747 15.2305 40.3358 15.3537 40.5302C15.5433 40.3406 15.5433 40.1604 15.5386 39.9756C15.5386 39.8855 15.5623 39.8002 15.5765 39.7101C15.6287 39.4589 15.7045 39.2077 15.7282 38.9564C15.7424 38.781 15.8135 38.7289 15.9605 38.7099C16.5767 38.6341 17.1929 38.5345 17.8139 38.4824C18.6766 38.4065 19.5441 38.3639 20.4116 38.3023C20.6012 38.288 20.7955 38.2786 20.9851 38.2359C21.1179 38.2075 21.1842 38.2596 21.2458 38.3544C21.4402 38.6388 21.5682 38.9375 21.554 39.2977C21.5445 39.5727 21.5682 39.8523 21.5919 40.132C21.6014 40.2505 21.6203 40.3832 21.6867 40.4733C21.919 40.8099 21.9427 41.2033 22.0327 41.5778C22.0706 41.7342 22.1465 41.8859 22.2366 42.0234C22.4593 42.3741 22.6774 42.7297 22.9381 43.052C23.0471 43.1895 23.2462 43.308 23.4216 43.3364C24.0141 43.436 24.6114 43.5213 25.2134 43.5545C25.5452 43.5734 25.8818 43.4786 26.2136 43.436C26.5075 43.398 26.8014 43.3459 27.1 43.3175C27.721 43.2558 28.342 43.2132 28.9582 43.1515C29.6503 43.0804 30.3424 42.9999 31.0297 42.9098C31.6459 42.8292 32.2622 42.7344 32.8784 42.6396C33.7127 42.5069 34.5517 42.3647 35.386 42.2225C36.3151 42.066 37.2394 41.8954 38.1685 41.7484C38.908 41.6299 39.6522 41.5399 40.3917 41.4356C40.3964 41.4356 40.4059 41.4356 40.4106 41.4308C41.1785 41.1512 42.0033 41.1654 42.7902 41.0042C43.2311 40.9141 43.6624 40.7862 44.0985 40.6771C44.4114 40.6013 44.729 40.5254 45.0466 40.4543C45.1177 40.4401 45.1983 40.4117 45.2599 40.4306C45.7102 40.5586 46.1179 40.4022 46.535 40.2647C46.7009 40.2078 46.8858 40.2126 47.0564 40.1604C47.374 40.0656 47.6869 39.9614 47.995 39.8428C48.4832 39.658 48.962 39.4447 49.455 39.2693C49.8627 39.1223 50.2845 39.0086 50.7586 38.8616C50.7112 39.1413 50.7112 39.3878 50.6258 39.5964C50.422 40.0941 50.4267 40.6155 50.3841 41.1369C50.3651 41.3265 50.3035 41.5114 50.2561 41.6963C50.2466 41.7295 50.2182 41.7721 50.185 41.7864C49.8816 41.9333 49.5782 42.0755 49.2701 42.2177C48.8956 42.3931 48.5164 42.5685 48.1419 42.7439C48.0993 42.7628 48.0661 42.796 48.0234 42.815C47.5826 43.0141 47.1418 43.2037 46.7057 43.4075C46.4686 43.5213 46.2458 43.6682 45.9994 43.7678C45.3499 44.0332 44.6958 44.2797 44.0464 44.5357C43.8331 44.621 43.6245 44.73 43.4064 44.8012C42.8092 44.9955 42.2119 45.1946 41.6052 45.3558C41.316 45.4316 40.9984 45.4079 40.695 45.4411C40.1309 45.5027 39.5621 45.5643 38.998 45.6354C38.3249 45.7208 37.6518 45.8345 36.9739 45.9104C36.5094 45.9625 36.0354 45.9815 35.5661 46.0147C35.2248 46.0431 34.8788 46.0668 34.5375 46.1095C33.8881 46.19 33.2386 46.2896 32.5892 46.3654C31.8308 46.4555 31.0724 46.5266 30.3139 46.6024C29.7878 46.6593 29.2616 46.702 28.7354 46.7778C28.3515 46.8347 27.9722 46.9437 27.5883 47.0243C27.4319 47.0575 27.2754 47.0717 27.119 47.0907C26.5691 47.1571 26.0193 47.2424 25.4694 47.2898C24.7726 47.3467 24.09 47.5647 23.3789 47.4604C22.9665 47.4036 22.5494 47.4367 22.137 47.5315C21.7104 47.6263 21.2743 47.688 20.8382 47.7164C20.1556 47.7543 19.5157 47.9724 18.8473 48.0909C18.3259 48.181 17.7949 48.1999 17.2735 48.2947C16.6905 48.399 16.0837 48.3658 15.5149 48.5886C15.2352 48.7024 14.9271 48.7498 14.6332 48.8209C14.5811 48.8351 14.51 48.8256 14.4626 48.8019C14.1876 48.6597 13.9174 48.5839 13.5904 48.655C13.3059 48.7166 12.9978 48.6739 12.6992 48.6645C12.0924 48.6455 11.5189 48.8019 10.9358 48.9347C10.6088 49.0105 10.2912 49.1243 9.94512 49.2238C9.91194 49.0863 9.88349 48.9678 9.85505 48.8446C9.58486 47.7496 9.13928 46.7257 8.66999 45.7065C8.55149 45.4458 8.43772 45.1851 8.31448 44.9291C8.02532 44.3461 8.12961 43.7725 8.38084 43.2274C8.56571 42.8245 8.93071 42.6538 9.37629 42.6633C9.80291 42.668 10.2201 42.6586 10.5945 42.3931C10.8221 42.2319 10.9311 42.0328 10.8742 41.7674C10.841 41.6015 10.7841 41.4308 10.6988 41.2839C10.5376 41.0137 10.3575 40.7482 10.1632 40.497C9.85979 40.132 9.79343 39.6912 9.69863 39.2219ZM12.211 42.6965C12.211 42.7012 12.211 42.7012 12.211 42.706C12.3958 42.6823 12.5807 42.668 12.7608 42.6301C13.0026 42.578 13.14 42.3789 13.1021 42.1703C13.0689 41.976 12.7608 41.6584 12.5665 41.6394C12.3911 41.6204 12.211 41.6204 12.0308 41.6347C11.7511 41.6631 11.4904 42.0139 11.5047 42.3173C11.5141 42.5448 11.7417 42.6965 12.0687 42.6965C12.1209 42.6965 12.1635 42.6965 12.211 42.6965Z"></path><path d="M49.6162 43.9763C49.5641 44.0759 49.5214 44.128 49.5072 44.1896C49.4361 44.4266 49.3745 44.6684 49.3034 44.9054C49.256 45.0666 49.2038 45.223 49.1517 45.3842C49.109 45.5216 49.0521 45.6591 49.0284 45.7966C48.872 46.8252 48.5923 47.8207 48.123 48.7498C47.8813 49.2333 47.5447 49.6646 47.2651 50.1292C47.1086 50.3851 46.9712 50.6553 46.8527 50.9303C46.7152 51.2479 46.5588 51.537 46.208 51.6603C46.1653 51.6745 46.1274 51.7029 46.0895 51.7266C45.7434 51.9873 45.4496 51.9731 45.1035 51.6887C44.7527 51.3996 44.639 51.0014 44.8333 50.6506C44.9092 50.5131 44.9092 50.3899 44.9139 50.2429C44.9234 49.8684 44.9708 49.494 44.9992 49.1148C45.004 49.0816 45.004 49.0531 45.0087 49.0057C44.7812 49.1527 44.5584 49.2807 44.3546 49.4371C43.909 49.7879 43.397 50.0154 42.8803 50.2382C42.1978 50.5368 41.5104 50.8307 40.8231 51.1199C39.9272 51.4896 39.0313 51.8736 38.1211 52.2101C37.7467 52.3476 37.3343 52.3713 36.9361 52.4566C36.4573 52.5562 35.9786 52.6557 35.5045 52.7695C34.5091 53.0065 33.5089 53.1866 32.485 53.2245C32.4092 53.2293 32.3286 53.2198 32.248 53.2009C31.7835 53.1013 31.3236 52.9496 30.8544 52.8975C29.6646 52.7695 28.5554 52.3997 27.4556 51.9542C26.6498 51.6318 25.8392 51.319 25.0334 50.9919C24.8627 50.9208 24.6968 50.8307 24.5546 50.717C24.2465 50.4657 23.9194 50.4278 23.5781 50.6127C23.3363 50.7454 23.1088 50.9113 22.8671 51.044C22.5827 51.1957 22.2888 51.3379 21.9901 51.4612C21.0468 51.8357 20.113 52.2338 19.1555 52.5562C18.4207 52.8027 17.6528 52.9401 16.9038 53.1345C16.7379 53.1771 16.6479 53.144 16.5863 52.9781C16.3208 52.2528 15.9084 51.6176 15.3822 51.0488C15.2969 50.9587 15.2163 50.8592 15.1452 50.7549C15.0504 50.6127 15.1073 50.4515 15.2542 50.4088C15.9226 50.2145 16.61 50.1244 17.2973 50.0344C17.9751 49.9443 18.6483 49.8685 19.3214 49.7547C19.7053 49.6883 20.0751 49.5461 20.4543 49.475C21.1511 49.347 21.8479 49.238 22.5495 49.1385C22.8623 49.0958 23.1847 49.1148 23.5023 49.0816C24.0474 49.0294 24.5973 48.982 25.1376 48.9014C25.8913 48.7924 26.6308 48.636 27.3987 48.6265C27.7827 48.6218 28.1619 48.4748 28.5411 48.3942C28.6359 48.3753 28.7355 48.3326 28.8303 48.3326C29.821 48.3279 30.7833 48.0719 31.7692 47.9866C32.4566 47.9297 33.1392 47.8633 33.8218 47.7875C34.2484 47.7401 34.6703 47.65 35.1016 47.6121C35.8743 47.5457 36.6469 47.5125 37.4196 47.4509C37.7135 47.4272 38.0074 47.3466 38.3013 47.3087C38.9554 47.2187 39.6143 47.1191 40.2685 47.0575C40.7046 47.0148 41.1454 47.0433 41.5768 47.0101C41.8375 46.9911 42.0982 46.9248 42.3542 46.8537C42.8709 46.7114 43.3876 46.574 43.8948 46.3986C44.4541 46.2042 44.9992 45.9672 45.5538 45.7539C45.8145 45.6544 46.08 45.5785 46.3312 45.4648C46.7863 45.2562 47.2319 45.0239 47.6822 44.8011C47.7201 44.7822 47.7533 44.7585 47.7865 44.7442C48.3221 44.5072 48.8625 44.275 49.3982 44.0427C49.4503 44.0142 49.5025 44.0048 49.6162 43.9763Z"></path><path d="M22.4073 16.317C22.1797 16.3596 22.0328 16.3881 21.8669 16.4213C21.7721 16.1179 21.6773 15.8145 21.5825 15.5111C21.5967 15.5111 21.6156 15.5111 21.6299 15.5159C21.6488 15.4495 21.6915 15.3784 21.682 15.3168C21.5588 14.729 21.426 14.1412 21.2933 13.5581C21.1985 13.1173 21.1179 12.6764 20.9994 12.2403C20.8951 11.8516 20.7434 11.4772 20.6107 11.0979C20.5491 10.9226 20.4922 10.7519 20.4258 10.5576C20.6249 10.5149 20.7908 10.4628 20.9567 10.4438C22.0233 10.3253 23.0282 9.96502 24.0663 9.73275C25.1519 9.491 26.2089 9.15444 27.266 8.79892C28.1003 8.51925 28.9535 8.30594 29.8068 8.08314C30.4609 7.91249 31.0535 7.60912 31.6602 7.33418C32.0773 7.14457 32.4945 6.96918 32.9116 6.77957C33.0491 6.71795 33.1581 6.71795 33.234 6.87438C33.3619 7.14931 33.5136 7.41003 33.6227 7.69444C33.7696 8.08314 33.8692 8.49081 34.0114 8.87951C34.2057 9.40567 34.419 9.9271 34.6323 10.4485C34.9167 11.1359 35.1158 11.8469 35.2296 12.5816C35.277 12.8755 35.3386 13.1647 35.3955 13.4586C35.4287 13.6387 35.4666 13.8141 35.5045 13.9942C35.6325 14.6437 35.1632 15.184 34.4996 15.1935C33.6985 15.2077 32.8974 15.2457 32.101 15.3025C31.3284 15.3547 30.5605 15.4448 29.7878 15.5016C29.2427 15.5443 28.6928 15.5633 28.1429 15.5917C28.124 15.5917 28.105 15.5917 28.0813 15.5917C27.7495 15.6154 27.6642 15.696 27.7211 16.0278C27.7779 16.3644 27.8206 16.6914 27.6784 17.0233C27.5552 17.3172 27.3608 17.5068 27.0385 17.5542C26.2848 17.6679 25.5311 17.7722 24.7821 17.8955C24.2133 17.9855 23.6445 18.0851 23.0804 18.1894C22.7817 18.2462 22.5258 18.1894 22.3219 17.9571C22.1134 17.7201 22.1086 17.4451 22.1987 17.1512C22.2888 16.9 22.3362 16.6346 22.4073 16.317Z"></path><path d="M15.1073 25.693C15.1073 25.5508 15.1073 25.4418 15.1073 25.3043C15.1405 25.3375 15.1594 25.3565 15.1689 25.3754C15.5718 26.0817 15.9842 26.7833 16.1738 27.5844C16.1833 27.6223 16.1928 27.6602 16.2118 27.6981C16.5815 28.4187 16.5436 29.2293 16.719 29.9877C16.937 30.9263 16.9038 31.8554 16.8517 32.7939C16.8232 33.2632 16.6147 33.6946 16.3492 34.0928C16.0316 34.5715 15.733 35.0598 15.4201 35.5433C15.259 35.7945 15.0931 36.041 14.9129 36.278C14.8608 36.3444 14.7423 36.3776 14.6522 36.3823C14.3488 36.4013 14.0407 36.387 13.7374 36.4202C13.1875 36.4818 12.6376 36.5814 12.0877 36.6477C11.6659 36.6951 11.244 36.7236 10.8221 36.7473C10.5377 36.7615 10.5377 36.7426 10.514 36.4534C10.4713 35.9509 10.4381 35.4485 10.3576 34.9507C10.2817 34.472 10.2485 33.9979 10.3007 33.5097C10.3528 33.0452 10.3718 32.5616 10.3149 32.1018C10.2628 31.7037 10.0969 31.3102 9.9499 30.931C9.69393 30.2721 9.40004 29.6227 9.13932 28.9685C9.06822 28.7884 8.94971 28.6794 8.79329 28.5798C8.36192 28.3096 7.9353 28.0252 7.50868 27.7456C7.46128 27.7124 7.41862 27.6744 7.32855 27.5986C7.66511 27.4754 7.96374 27.3426 8.27186 27.2573C9.78399 26.8307 11.2866 26.3946 12.7561 25.8352C13.2823 25.6314 13.8511 25.5319 14.401 25.3849C14.5764 25.3375 14.7328 25.347 14.8655 25.4987C14.9224 25.565 15.0077 25.6124 15.1073 25.693Z"></path><path d="M41.8564 24.8825C41.8944 24.3421 41.9323 23.778 41.9702 23.2092C41.9844 23.0291 42.0887 22.939 42.2594 22.9627C42.6907 23.0243 43.1126 23.1428 43.4255 23.4557C43.6246 23.6548 43.7051 23.9392 43.6577 24.2284C43.6435 24.3137 43.5677 24.4085 43.4871 24.4559C43.3496 24.5412 43.1932 24.6123 43.0368 24.6502C42.667 24.7403 42.2831 24.8019 41.8564 24.8825Z"></path><path d="M39.4579 24.5033C39.51 24.2426 39.5385 24.0198 39.5954 23.797C39.6333 23.65 39.7186 23.5173 39.7613 23.3751C39.8371 23.1191 39.9651 22.92 40.2827 22.8916C40.2874 22.9674 40.2969 23.0575 40.2922 23.1428C40.2779 23.5268 40.259 23.9108 40.2495 24.2947C40.2448 24.418 40.1926 24.4748 40.0741 24.4796C39.8892 24.4843 39.6996 24.4938 39.4579 24.5033Z"></path><path d="M25.2751 8.09256V4.37146L26.3701 5.18678L26.9199 7.54743L25.2751 8.09256Z"></path></svg>