<svg aria-hidden="true" role="presentation" viewBox="0 0 64 64" xmlns="http://www.w3.org/2000/svg"><path d="M16.8049 48.3498C18.0049 48.3848 19.1399 48.0448 20.3599 47.9348C20.3099 47.3698 20.2649 46.8448 20.2199 46.3598C20.3799 46.0448 20.6049 45.9848 20.8899 45.9948C21.4999 46.0098 22.1149 45.9848 22.7249 45.9948C23.4899 46.0048 24.2799 45.8948 24.9349 46.4298C25.0549 46.7698 25.1749 47.0998 25.2799 47.4048C26.1749 47.3348 27.0099 47.2298 27.8399 47.2048C29.9949 47.1448 32.1149 46.8098 34.2499 46.5448C34.4849 46.5148 34.6999 46.3498 34.8799 46.2648C34.9299 45.8598 34.9449 45.5698 34.7199 45.3198C34.4399 45.0098 34.0799 45.2648 33.7799 45.2148C33.6149 44.5049 33.1349 43.9499 33.1049 43.2249C33.0749 42.5199 32.7949 41.8299 32.9649 41.0549C34.4649 40.5299 35.9599 40.0099 37.4199 39.4999C37.8449 37.5349 38.3099 35.8049 38.6599 35.4749C39.0799 35.5149 39.1849 35.8699 39.3099 36.1699C39.4899 36.5899 39.5999 37.0349 39.7699 37.4549C39.8699 37.7049 40.0249 37.9299 40.1949 38.2299C41.1899 37.5899 42.3049 37.3149 43.0599 36.3399C43.2799 35.4049 43.4999 34.4149 43.7449 33.4349C43.9249 32.7149 44.0449 31.9999 43.7999 31.2699C43.6799 30.9149 43.5599 30.5549 43.4249 30.2049C42.7749 28.5149 42.1449 26.8249 41.3399 25.1999C41.1349 24.7849 40.8949 24.4599 40.4699 24.2699C40.3599 24.2249 40.2599 24.1599 40.1999 24.1249C39.8699 23.7199 40.0199 23.2799 39.9749 22.8149C39.2799 22.0949 38.9149 21.0599 37.9549 20.4799C37.0499 19.9349 36.3299 19.0899 35.3499 18.8049C33.6849 19.3299 32.1049 19.7649 30.4299 19.7299C30.2849 19.1649 30.1549 18.6499 30.0349 18.1649C30.4449 17.8749 30.8249 17.6099 31.2399 17.3149C31.2399 16.34 31.2399 15.33 31.2399 14.3C31.0699 14.18 30.9099 14.07 30.8099 14C29.8799 14.1 29.0349 14.34 28.1849 14.02C27.9149 13.015 27.6449 12.06 27.4049 11.1C27.1599 10.125 26.9449 9.13998 26.7049 8.10498C26.4199 8.16498 26.1999 8.20998 25.9599 8.25998C25.9099 9.02998 25.8649 9.75497 25.8149 10.565C24.0799 11.145 22.2799 11.745 20.4549 12.355C20.6399 12.645 20.8999 12.665 21.1849 12.69C22.3499 12.795 23.5149 12.925 24.6799 13.055C25.2049 13.115 25.7299 13.2 26.2549 13.275C26.3149 13.665 26.3699 13.995 26.4199 14.32C25.7999 14.67 25.1949 15.005 24.5799 15.35C24.4399 16.25 24.9349 16.9349 25.2099 17.6749C25.3499 17.6749 25.4599 17.6749 25.5599 17.6749C25.6849 17.2599 25.7999 16.8699 25.9349 16.415C26.0999 16.54 26.2249 16.59 26.2649 16.675C26.3749 16.9049 26.4699 17.1499 26.5349 17.3949C26.6799 17.9499 26.8449 18.4749 27.4849 18.5799C27.5749 19.0649 27.6549 19.4849 27.7299 19.8649C27.1949 19.8649 26.6849 19.8199 26.1849 19.8749C24.5249 20.0499 22.8649 20.2549 21.2049 20.4499C20.2199 20.5649 19.2299 20.6899 18.2449 20.8099C17.9299 20.8499 17.6199 20.8799 17.3049 20.9199C17.2649 20.9249 17.2299 20.9449 17.1399 20.9799C17.0799 21.0949 17.0049 21.2499 16.9199 21.4249C17.4349 22.4099 17.9399 23.3699 18.4099 24.2649C19.0149 24.5099 19.6149 24.3899 20.1149 24.7549C19.8449 25.1849 19.5949 25.5799 19.3549 25.9699C19.4249 26.1149 19.4799 26.2199 19.5249 26.3299C19.7899 26.9699 20.1499 27.5899 20.2899 28.2599C20.4199 28.8599 20.6399 29.3849 20.9299 29.9049C21.1749 30.3549 21.4399 30.7899 21.4749 31.3349C21.5549 32.4849 21.6899 33.6349 21.7849 34.7849C21.8199 35.2149 21.8349 35.6499 21.8049 36.0799C21.7299 37.2649 21.6299 38.4499 21.5349 39.7249C24.3949 40.5549 27.3399 41.2499 30.3249 41.6399C30.5949 42.8749 30.8549 44.0549 31.1199 45.2748C30.6049 45.2748 30.1299 45.2398 29.6599 45.2848C28.9749 45.3498 28.4349 45.0948 27.8999 44.6999C27.0699 44.0849 26.2149 43.5049 25.3449 42.9499C25.1299 42.8149 24.8249 42.7849 24.5599 42.7849C23.7899 42.7749 23.0199 42.8299 22.2499 42.8099C21.3799 42.7849 20.5099 42.6799 19.6399 42.6499C18.7249 42.6199 17.8099 42.6249 16.8949 42.6399C16.5849 42.6449 16.2749 42.7399 15.8849 42.8099C16.1399 44.5449 16.3849 46.2398 16.6349 47.9298C16.6549 48.0648 16.7349 48.1848 16.8049 48.3498Z"></path><path d="M45.9849 46.6997C45.4649 46.7897 44.9399 46.8697 44.5249 46.9347C44.0399 47.5597 44.1949 48.4547 43.2749 48.6897C42.9999 48.3347 42.7249 47.9797 42.4099 47.5797C42.2899 47.5947 42.1349 47.5947 41.9899 47.6347C41.6049 47.7497 41.2199 47.8297 40.8149 47.7147C40.7249 47.6897 40.6199 47.7247 40.5199 47.7297C39.2299 47.8247 37.9399 47.9597 36.6499 47.9997C35.2549 48.0447 33.8749 48.2097 32.5099 48.4297C32.1899 48.3747 31.8649 48.3247 31.5499 48.3397C31.2149 48.3547 30.8799 48.4397 30.5449 48.4897C28.8949 48.7547 27.2449 49.0097 25.5999 49.2947C24.5299 49.4797 23.4749 49.7297 22.4049 49.8947C21.5899 50.0197 20.7599 50.0597 19.9399 50.1497C19.2549 50.2247 18.5799 50.3597 17.8949 50.4097C16.4849 50.5097 15.0699 50.5747 13.6599 50.6497C13.3649 50.6647 13.0699 50.6497 12.7599 50.6497C12.3299 49.7447 12.0149 48.7947 11.0299 48.2847C11.1499 47.9497 11.2449 47.6797 11.3699 47.3247C11.3299 47.1997 11.2649 46.9947 11.1999 46.7897C11.2049 46.7947 11.2099 46.7997 11.2149 46.8047C11.1599 46.4947 11.1049 46.1847 11.0449 45.8747C10.9499 45.3648 10.7649 44.8698 10.7549 44.3448C11.8199 44.3448 12.8249 44.3298 13.8349 44.3548C14.1049 44.3598 14.3449 44.3948 14.5149 44.1498C14.4999 43.7998 14.4849 43.4698 14.4649 43.1148C14.2449 43.0748 14.0349 43.0098 13.8199 42.9948C12.2699 42.8848 10.7249 42.7848 9.17495 42.6698C8.53995 42.6248 7.90995 42.5448 7.27495 42.5048C6.79995 42.4798 6.32495 42.4998 5.77995 42.4998C5.47495 42.7098 5.47495 42.7098 5.53995 43.9048C5.94995 44.1248 6.37495 44.2998 6.88495 44.2498C7.15995 44.2248 7.44995 44.3198 7.66995 44.3498C8.41495 46.4897 9.12995 48.5447 9.84495 50.6097C9.22995 50.9897 9.19495 51.0797 9.50995 51.7747C9.79995 52.4097 10.0949 53.0397 10.4099 53.6597C10.7899 54.3997 11.2349 55.1097 11.5799 55.8647C11.7999 56.3497 12.1449 56.5597 12.6199 56.6347C12.8349 56.6697 13.0549 56.6547 13.2749 56.6547C14.4899 56.6747 15.7149 56.6047 16.9149 56.7497C17.6149 56.8347 18.2349 56.7497 18.8749 56.5647C20.4799 56.0897 21.9599 55.3447 23.4049 54.5297C24.0049 54.2997 24.6799 54.0647 24.9349 54.0647C25.4349 54.0647 28.9349 55.0647 30.9349 55.5647C32.9349 56.0647 37.4349 55.0647 37.4349 55.0647L39.8799 54.3097C39.8799 54.3097 43.4349 54.5647 43.9349 54.5647C44.3249 54.5647 46.2799 52.2697 47.1299 51.2497C47.2149 51.2497 47.2949 51.2497 47.3949 51.2497C47.6449 50.9397 47.9049 50.6197 48.0599 50.4297C48.4399 48.9397 49.1299 47.7097 49.2649 46.2347C48.6799 46.2947 48.1549 46.3397 47.6299 46.4147C47.0749 46.4847 46.5299 46.6047 45.9849 46.6997Z"></path><path d="M57.8349 39.2998C56.9949 39.5348 56.2299 39.9048 55.4549 40.2598C54.0649 40.8998 52.6849 41.5548 51.2899 42.1748C50.8599 42.3648 50.3799 42.4498 49.9249 42.5948C48.0399 43.2048 46.1099 43.5348 44.1349 43.6798C42.7699 43.7798 41.4099 43.9698 40.0499 44.1298C39.0249 44.2498 38.0049 44.3998 36.9799 44.5198C36.4849 44.5798 36.0999 44.7548 35.9249 45.3598C36.1399 45.7548 36.3849 46.1998 36.6549 46.6998C36.9749 46.7248 37.2949 46.8148 37.5849 46.7548C38.7149 46.5398 39.8399 46.2848 40.9599 46.0248C41.8449 45.8198 42.7199 45.5548 43.6099 45.3598C44.6199 45.1448 45.6349 44.9648 46.6549 44.7948C47.8699 44.5898 49.0899 44.4098 50.2849 44.2248C50.7649 44.5748 51.2149 44.9048 51.6799 45.2448C51.5699 45.7098 51.5849 46.2148 51.0399 46.4948C50.8799 46.5748 50.7549 46.9048 50.7699 47.1148C50.7949 47.5998 50.9149 48.0798 51.0049 48.6298C51.3799 48.5798 51.6799 48.5398 52.0399 48.4948C52.0699 48.0848 52.0949 47.7398 52.1099 47.4748C52.7099 47.2548 53.2749 47.0498 53.8549 46.8348C53.8549 46.5248 53.8749 46.2948 53.8499 46.0648C53.8199 45.8148 53.7499 45.5698 53.6949 45.2998C54.4099 44.8098 54.1949 44.1348 54.0749 43.4798C54.4999 43.1098 54.9049 42.7598 55.3049 42.4098C56.0499 41.7498 56.7899 41.0898 57.5349 40.4298C57.8749 40.1398 58.0549 39.7998 57.8349 39.2998Z"></path><path d="M24.6299 10.055C24.7149 9.37 25.2999 8.85 25.0449 8C23.4699 8.55 21.8799 8.8 20.5099 9.70499C21.8599 10.005 23.1949 10.37 24.6299 10.055Z"></path></svg>