<svg preserveAspectRatio="none" viewBox="0 0 567 290" fill="none" xmlns="http://www.w3.org/2000/svg"><g id="company">
<path opacity="0.18" d="M127.463 15.1023L187.31 12.3387L369.179 14.1497L397.421 11.7977L533.254 16.5017C533.254 16.5017 536.509 16.2273 541.323 15.8823V3.92633L491.563 3.56177L412.215 5.12977L332.867 3.95377L241.415 5.52177L128.445 5.12977L24.8887 3.92633V15.8823C68.7318 17.3915 127.463 15.1023 127.463 15.1023Z" fill="#000000"/>
<path opacity="0.05" d="M67.9249 14.15C71.9596 13.758 174.171 8.66201 174.171 8.66201L258.898 16.502L357.075 11.798L451.216 15.718C451.216 15.718 509.046 10.622 514.426 11.014C517.828 11.261 523.06 9.14025 541.323 7.56049V4.82041L425.664 5.13401L363.799 3.95801L303.279 5.52601L268.312 4.74201L197.034 5.52601C197.034 5.52601 112.306 4.74201 106.926 5.52601C102.596 6.15713 54.0054 5.78865 24.8887 4.82041V7.56049C41.1214 9.41857 65.9614 14.3382 67.9249 14.15Z" fill="#000000"/>
<path d="M57.1658 8.66184L176.86 6.30983L206.448 7.87783L299.245 5.91783L400.111 8.66184L466.01 6.30983L541.323 6.56071V2.64855L525.185 2.77791L515.771 2.38591C515.771 2.38591 479.459 0.42591 476.769 0.0339101C474.079 -0.35809 439.112 2.77791 439.112 2.77791L421.629 0.0339101H343.626L284.451 3.16991L209.138 0.0339101L188.964 2.38591L62.5454 2.77791L24.8887 2.64855V6.55679L57.1658 8.66184Z" fill="#000000"/>
<path opacity="0.5" d="M70.6147 7.09472L120.375 10.6227L266.967 7.09472L330.177 6.70272L394.731 10.2307L541.323 7.59256V3.26488L397.421 1.99872C397.421 1.99872 374.558 1.21472 373.213 0.43072C371.868 -0.35328 310.004 0.43072 310.004 0.43072L261.588 1.21472L172.826 0.43072L96.1674 3.17472L24.8887 3.26488V7.59256L70.6147 7.09472Z" fill="#000000"/>
<path d="M57.1658 8.66184L176.86 6.30983L206.448 7.87783L299.245 5.91783L400.111 8.66184L466.01 6.30983L541.323 6.56071V2.64855L525.185 2.77791L515.771 2.38591C515.771 2.38591 479.459 0.42591 476.769 0.0339101C474.079 -0.35809 439.112 2.77791 439.112 2.77791L421.629 0.0339101H343.626L284.451 3.16991L209.138 0.0339101L188.964 2.38591L62.5454 2.77791L24.8887 2.64855V6.55679L57.1658 8.66184Z" fill="#E2DFD8"/>
<path opacity="0.18" d="M115.004 270.715L266.973 279.731L369.182 275.811L397.424 278.163L533.254 273.459C533.254 273.459 536.509 273.764 541.323 274.109V286.065L491.564 286.395L412.217 284.827L332.871 286.003L241.42 284.435L128.452 284.827L24.8848 286.065V274.109C68.7271 272.6 115.004 270.715 115.004 270.715Z" fill="#000000"/>
<path opacity="0.05" d="M67.9337 275.811C71.9682 276.203 174.177 281.299 174.177 281.299L266.973 275.454L409.07 275.862L451.218 274.247C451.218 274.247 509.047 279.343 514.426 278.951C517.829 278.704 523.06 280.856 541.323 282.439V285.179L425.666 284.831L363.802 286.007L303.284 284.439L268.317 285.223L197.04 284.439C197.04 284.439 112.314 285.223 106.935 284.439C102.604 283.807 54.0009 284.211 24.8848 285.179V282.439C41.1172 280.573 65.9702 275.619 67.9337 275.811Z" fill="#000000"/>
<path d="M57.1748 281.299L176.867 283.651L206.454 282.083L299.249 284.043L400.113 281.299L466.011 283.651L541.323 283.431V287.34L525.185 287.175L515.771 287.567C515.771 287.567 479.46 289.527 476.77 289.919C474.081 290.311 437.124 289.155 437.124 289.155L421.631 289.923H343.629L284.456 286.787L209.144 289.923L188.971 287.571L62.5542 287.179L24.8848 287.343V283.435L57.1748 281.299Z" fill="#000000"/>
<path opacity="0.5" d="M70.6234 282.867L120.383 279.339L266.973 282.867L330.181 283.259L394.734 279.731L541.323 282.404V286.732L444.682 289.523C444.682 289.523 374.561 288.751 373.216 289.535C371.871 290.319 310.008 289.535 310.008 289.535C310.008 289.535 288.705 288.719 286.016 288.327C283.326 287.935 261.593 288.747 261.593 288.747L172.833 289.531L96.1757 286.787L24.8848 286.728V282.4L70.6234 282.867Z" fill="#000000"/>
<path d="M57.1748 281.299L176.867 283.651L206.454 282.083L299.249 284.043L400.113 281.299L466.011 283.651L541.323 283.431V287.34L525.185 287.175L515.771 287.567C515.771 287.567 479.46 289.527 476.77 289.919C474.081 290.311 437.124 289.155 437.124 289.155L421.631 289.923H343.629L284.456 286.787L209.144 289.923L188.971 287.571L62.5542 287.179L24.8848 287.343V283.435L57.1748 281.299Z" fill="#E2DFD8"/>
<path opacity="0.18" d="M561.677 251.483L561.689 251.057V250.938L560.847 170.362C561.043 169.191 561.199 168.239 561.301 167.581C562.085 162.595 560.518 142.652 560.518 142.652L562.477 63.0277L561.262 24.7378H552.213C554.485 47.6316 558.559 60.5348 558.559 60.5348L553.662 86.5479L550.312 102.314L553.913 118.862L554.152 175.142L553.129 193.889L554.892 204.048L552.389 221.969L551.527 255.924L551.523 256.125L551.539 256.482L552.216 265.27H561.266L561.677 251.483Z" fill="#000000"/>
<path opacity="0.05" d="M560.518 186.274L560.91 112.744L563.084 24.7378H555.096L555.426 96.1133L548.766 151.447L549.941 245.955L555.096 265.266H563.084L560.518 186.274Z" fill="#000000"/>
<path d="M565.219 145.144L562.085 116.481L565.541 24.7417H556.707C557.114 50.2414 558.56 89.7156 558.56 89.7156L556.209 143.903L558.951 161.354L556.992 199.989L556.209 247.205L556.707 265.27H565.537L565.219 145.144Z" fill="#000000"/>
<path opacity="0.5" d="M565.22 208.602L563.261 79.2256L564.66 71.6967L564.091 52.9996L565.231 46.4603L565.255 24.7378H558.83L558.164 43.1718C558.164 43.1718 558.164 100.278 558.164 104.017C558.164 107.757 555.422 157.609 555.422 157.609L559.339 197.39L557.772 255.924L558.83 265.27H565.255L565.22 208.602Z" fill="#000000"/>
<path d="M565.219 145.144L562.085 116.481L565.541 24.7417H556.707C557.114 50.2414 558.56 89.7156 558.56 89.7156L556.209 143.903L558.951 161.354L556.992 199.989L556.209 247.205L556.707 265.27H565.537L565.219 145.144Z" fill="#E2DFD8"/>
<path opacity="0.18" d="M6.81286 251.481L6.8011 251.056V250.937L7.64338 170.361C7.4475 169.19 7.2908 168.238 7.18894 167.58C6.40543 162.594 6.27615 151.608 6.27615 151.608L6.01367 63.0276L7.30255 24.738H16.3521C14.08 47.6316 16.0858 64.8378 16.0858 64.8378L18.8124 134.17L14.3424 175.147L16.9672 255.922L16.9711 256.123L16.9555 256.48L16.3521 265.274H7.30255L6.81286 251.481Z" fill="#000000"/>
<path opacity="0.05" d="M7.97207 186.274L5.88008 121.702L5.47266 24.7339H13.4645L20.857 63.9947L12.2814 90.3711L18.5495 245.955L13.4645 265.266H5.47266L7.97207 186.274Z" fill="#000000"/>
<path d="M0 191.541L4.70501 125.441L3.02045 24.7339H11.8507C11.4432 50.2331 12.407 80.3737 12.407 80.3737L10.5774 152.856L9.53146 161.35L11.4902 199.984L12.2738 247.199L11.8467 265.27H3.02045L0 191.541Z" fill="#000000"/>
<path opacity="0.5" d="M1.57031 217.56L3.5291 88.1845L3.30188 24.7339H9.7267L10.3183 43.174C10.3183 43.174 8.62195 109.237 8.62195 112.976C8.62195 116.715 13.0606 157.611 13.0606 157.611L9.14298 197.391L10.71 255.924L9.7267 265.27H3.30188L1.57031 217.56Z" fill="#000000"/>
<path d="M0 191.541L4.70501 125.441L3.02045 24.7339H11.8507C11.4432 50.2331 12.407 80.3737 12.407 80.3737L10.5774 152.856L9.53146 161.35L11.4902 199.984L12.2738 247.199L11.8467 265.27H3.02045L0 191.541Z" fill="#E2DFD8"/>
<path opacity="0.18" d="M550.726 14.5416C550.726 14.8709 551.334 19.2025 552.215 24.7375H561.265L560.912 12.5816L559.345 5.52562L542.499 3.95762L541.324 3.93018V15.8862C544.76 15.0355 550.726 13.7067 550.726 14.5416Z" fill="#000000"/>
<path opacity="0.05" d="M546.809 5.9177L556.211 11.0137L555.098 24.7376H563.09L563.267 17.2857L561.7 5.9177L552.689 4.7417L541.328 4.8201V7.56018C544.4 6.6429 546.809 5.9177 546.809 5.9177Z" fill="#000000"/>
<path d="M555.428 6.70194C555.428 6.70194 558.562 11.0139 558.562 11.7979C558.562 12.5819 556.603 19.2459 556.603 20.0299C556.603 20.1397 556.642 22.0997 556.709 24.7379H565.539L566.001 12.1899L564.826 2.78193L560.125 0.429932L551.898 2.38993L541.32 2.65257V6.56081L555.428 6.70194Z" fill="#000000"/>
<path opacity="0.5" d="M552.65 7.58394L558.53 14.5419L558.836 24.7379H565.257L565.613 15.3259L565.221 5.91793L562.479 0.429932L550.597 1.56281L541.324 3.26409V7.59178L552.65 7.58394Z" fill="#000000"/>
<path d="M555.428 6.70194C555.428 6.70194 558.562 11.0139 558.562 11.7979C558.562 12.5819 556.603 19.2459 556.603 20.0299C556.603 20.1397 556.642 22.0997 556.709 24.7379H565.539L566.001 12.1899L564.826 2.78193L560.125 0.429932L551.898 2.38993L541.32 2.65257V6.56081L555.428 6.70194Z" fill="#E2DFD8"/>
<path opacity="0.18" d="M17.8371 14.5419C17.8371 14.8711 17.2299 19.1988 16.3484 24.7378H7.29883L7.65141 12.5819L9.21844 5.52586L23.7135 3.95786L24.8887 3.93042V15.8864C21.453 15.0358 17.8371 13.7069 17.8371 14.5419Z" fill="#000000"/>
<path opacity="0.05" d="M21.7546 5.9177L12.3524 11.0137L13.465 24.7376H5.47317L5.29688 17.2857L6.8639 5.9177L15.8743 4.7417L24.8847 4.8201V7.56018C21.8134 6.6429 21.7546 5.9177 21.7546 5.9177Z" fill="#000000"/>
<path d="M13.136 6.70194C13.136 6.70194 10.002 11.0139 10.002 11.7979C10.002 12.5819 11.9608 19.2459 11.9608 20.0299C11.9608 20.1397 11.9216 22.0958 11.855 24.7379H3.02087L2.55859 12.1899L3.73387 2.78193L8.43495 0.429932L16.6619 2.38993L24.8888 2.65257V6.56081L13.136 6.70194Z" fill="#000000"/>
<path opacity="0.5" d="M17.838 7.09394L9.21929 11.0139L9.72858 24.7339H3.30375L2.95117 15.3259L3.34293 5.91793L6.08523 0.429932L16.2709 3.56593L24.8896 3.26409V7.59178L17.838 7.09394Z" fill="#000000"/>
<path d="M13.136 6.70194C13.136 6.70194 10.002 11.0139 10.002 11.7979C10.002 12.5819 11.9608 19.2459 11.9608 20.0299C11.9608 20.1397 11.9216 22.0958 11.855 24.7379H3.02087L2.55859 12.1899L3.73387 2.78193L8.43495 0.429932L16.6619 2.38993L24.8888 2.65257V6.56081L13.136 6.70194Z" fill="#E2DFD8"/>
<path opacity="0.18" d="M547.083 274.474C547.4 274.395 551.334 270.805 552.211 265.266H561.261L560.908 277.414L559.341 284.47L542.496 286.038L541.32 286.065V274.109C544.76 274.956 544.07 275.223 547.083 274.474Z" fill="#000000"/>
<path opacity="0.05" d="M546.809 284.078L549.649 279.731L555.094 265.266H563.086L563.263 272.71L561.696 284.078L552.685 285.254L541.324 285.175V282.435C544.4 283.349 546.809 284.078 546.809 284.078Z" fill="#000000"/>
<path d="M555.428 283.294C555.428 283.294 558.562 278.982 558.562 278.198C558.562 277.414 556.603 270.75 556.603 269.966C556.603 269.856 556.642 267.908 556.709 265.266H565.539L566.001 277.806L564.826 287.214L560.125 289.566L551.898 287.606L541.32 287.343V283.435L555.428 283.294Z" fill="#000000"/>
<path opacity="0.5" d="M550.726 282.902L559.345 278.982L558.836 265.266H565.257L565.613 274.67L565.221 284.078L562.479 289.566L552.293 286.43L541.324 286.728V282.404L550.726 282.902Z" fill="#000000"/>
<path d="M555.428 283.294C555.428 283.294 558.562 278.982 558.562 278.198C558.562 277.414 556.603 270.75 556.603 269.966C556.603 269.856 556.642 267.908 556.709 265.266H565.539L566.001 277.806L564.826 287.214L560.125 289.566L551.898 287.606L541.32 287.343V283.435L555.428 283.294Z" fill="#E2DFD8"/>
<path opacity="0.18" d="M17.8371 275.454C17.8371 275.125 17.2299 270.805 16.3484 265.27H7.29883L7.65141 277.414L9.21844 284.47L23.7095 286.038L24.8848 286.066V274.11C21.4491 274.956 17.8371 276.289 17.8371 275.454Z" fill="#000000"/>
<path opacity="0.05" d="M21.7546 284.078L12.3524 278.982L13.465 265.27H5.47317L5.29688 272.71L6.8639 284.078L15.8743 285.254L24.8808 285.176V282.436C21.8094 283.349 21.7546 284.078 21.7546 284.078Z" fill="#000000"/>
<path d="M13.5905 281.628C13.5905 281.628 13.4769 276.646 13.4769 275.862C13.4769 275.078 11.9608 270.75 11.9608 269.966C11.9608 269.856 11.9216 267.908 11.855 265.27H3.02087L2.55859 277.806L3.73387 287.214L8.43495 289.566L16.6619 287.606L24.8848 287.344V283.435L13.5905 281.628Z" fill="#000000"/>
<path opacity="0.5" d="M17.838 282.902L9.21929 278.982L9.72857 265.266H3.30375L2.95117 274.67L3.34293 284.078L6.08523 289.566L16.2709 286.43L24.8857 286.728V282.404L17.838 282.902Z" fill="#000000"/>
<path d="M13.5905 281.628C13.5905 281.628 13.4769 276.646 13.4769 275.862C13.4769 275.078 11.9608 270.75 11.9608 269.966C11.9608 269.856 11.9216 267.908 11.855 265.27H3.02087L2.55859 277.806L3.73387 287.214L8.43495 289.566L16.6619 287.606L24.8848 287.344V283.435L13.5905 281.628Z" fill="#E2DFD8"/>
</g></svg>
