<svg preserveAspectRatio="none" viewBox="0 0 566 290" fill="none" xmlns="http://www.w3.org/2000/svg">
<g clip-path="url(#clip0_1006_132885)">
<g filter="url(#filter0_d_1006_132885)">
<mask id="mask0_1006_132885" style="mask-type:alpha" maskUnits="userSpaceOnUse" x="0" y="0" width="572" height="290">
<path d="M3.42519 3.85161L10.8983 1.71085L29.5812 1.35405L38.9861 10.7657L67.0074 17.8306L113.303 15.4756L142.924 1.71085L162.852 7.7761L171.26 4.56496L228.554 3.1379L238.485 9.08353L257.201 2.42437L285.848 1.71085L326.327 1.35405L348.747 2.42443L376.615 2.33523L383.465 10.4292L392.907 8.07425L404.484 2.24604L452.06 5.6674L460.221 2.06764L500.424 0L530.272 14.1299L548.864 0.672854C548.864 0.672854 568.043 2.0676 569.869 3.88364C571.696 5.69967 570.781 16.8213 570.781 16.8213L563.471 23.2135L556.162 47.7726L570.478 63.8182L570.782 84.06C570.597 84.3115 570.422 84.5471 570.257 84.7689L570.254 84.7733C568.258 87.4616 567.756 88.1375 568.043 90.9315C568.317 95.8167 568.88 98.0578 571.087 104.302L571.696 144.785L571.467 160.665L568.649 162.158L567.126 163.84L567.719 168.419L564.748 170.362L564.081 174.356L564.971 179.098L570.535 182.343L571.168 181.492L570.782 208.303L571.696 216.322C569.995 239.546 570.123 252.507 572 275.73L571.391 285.005L565.607 287.503L559.519 288.216L510.104 288.038C508.529 286.977 506.769 285.055 504.78 282.885C499.449 277.068 492.479 269.461 483.063 271.833L460.688 287.86L442.927 290L393.307 285.719L349.681 287.86H300.95L295.189 285.362L265.297 287.86H193.99L135.139 286.432L122.373 287.86L102.756 285.362L97.7736 287.86L81.0181 275.197L53.6059 271.497L34.1129 286.636L23.7572 280.916L16.1427 271.833L8.8328 268.805L1.5229 260.731C3.4587 257.202 2.62203 254.112 1.05534 248.325C0.729072 247.12 0.371143 245.798 0 244.331V211.149L0.641391 206.064C1.73054 205.398 2.82529 204.724 3.65519 204.211L12.488 197.819L4.26435 182.007L7.61472 168.886L5.71548 165.835L7.91906 148.364L2.74121 123.132L5.17785 108.329L9.13737 85.4524L0 53.8028L2.17967 48.4509L0 38.8174V11.7011L3.42519 3.85161Z" fill="#FF0000"/>
<path d="M485.804 277.889L488.24 275.87L495.55 278.561L503.165 285.963L499.51 288.318H492.505L490.068 288.654H469.052V286.972L476.362 282.599L485.833 278.022L485.804 277.889Z" fill="#FF0000"/>
<path d="M0.913738 279.907L1.5229 260.731L8.8328 263.759L14.3152 269.142L17.361 276.206L18.5793 282.262L24.0618 287.981L8.52822 289.327L0.609158 288.991L0.913738 279.907Z" fill="#FF0000"/>
<path d="M561.949 39.0255L569.258 22.2042L570.172 34.3155V52.1462C570.172 52.4153 568.954 54.5012 568.345 55.5104L561.339 44.4084L561.949 39.0255Z" fill="#FF0000"/>
<path d="M62.4387 11.1021L40.509 4.03712L45.6869 2.35499C59.2914 2.24285 86.6832 2.01856 87.4142 2.01856C88.1452 2.01856 113.303 3.36427 125.791 4.03712L108.126 11.7749L77.0585 11.1021H62.4387Z" fill="#FF0000"/>
<path d="M65.0045 285.638L44.7252 283.837L44.0397 282.288L53.4677 278.941L62.5323 276.533L77.7138 282.662L87.5163 287.202L86.7897 289.081L76.8073 286.482L65.0045 285.638Z" fill="#FF0000"/>
<path d="M5.787 87.471L1.82748 67.6218L0.609158 70.3132L1.5229 78.7239L0.609158 88.4803C0.913738 99.9188 2.13205 102.812 2.13205 103.619C2.13205 104.427 3.75648 102.498 3.95953 99.2459L5.787 87.471Z" fill="#FF0000"/>
<path d="M8.52822 197.146L3.95953 200.51L2.13205 197.819L1.5229 192.436L3.35037 188.063L8.52822 197.146Z" fill="#FF0000"/>
</mask>
<g mask="url(#mask0_1006_132885)">
<g filter="url(#filter1_ii_1006_132885)">
<path d="M3.43118 3.85161L10.9174 1.71085L29.6329 1.35405L39.0543 10.7657L67.1246 17.8306L113.502 15.4756L143.174 1.71085L163.137 7.7761L171.559 4.56496L228.953 3.1379L238.902 9.08353L257.65 2.42437L286.348 1.71085L326.898 1.35405L349.356 2.42443L377.274 2.33523L384.136 10.4292L393.594 8.07425L405.191 2.24604L452.85 5.6674L461.026 2.06764L501.298 0L531.199 14.1299L549.824 0.672854C549.824 0.672854 569.036 2.0676 570.865 3.88364C572.695 5.69967 571.779 16.8213 571.779 16.8213L564.457 23.2135L557.134 47.7726L571.475 63.8182L571.78 84.06C571.594 84.3115 571.419 84.5471 571.254 84.7689L571.251 84.7733C569.252 87.4616 568.749 88.1375 569.036 90.9315C569.311 95.8167 569.874 98.0578 572.085 104.302L572.695 144.785L572.466 160.665L569.643 162.158L568.118 163.84L568.711 168.419L565.736 170.362L565.067 174.356L565.959 179.098L571.533 182.343L572.166 181.492L571.78 208.303L572.695 216.322C570.992 239.546 571.12 252.507 573 275.73L572.39 285.005L566.596 287.503L560.497 288.216L510.995 288.038C509.418 286.977 507.655 285.055 505.663 282.885C500.322 277.068 493.34 269.461 483.907 271.833L461.494 287.86L443.701 290L393.995 285.719L350.292 287.86H301.476L295.705 285.362L265.76 287.86H194.33L135.376 286.432L122.587 287.86L102.935 285.362L97.9446 287.86L81.1597 275.197L53.6996 271.497L34.1725 286.636L23.7987 280.916L16.1709 271.833L8.84824 268.805L1.52556 260.731C3.46475 257.202 2.62661 254.112 1.05719 248.325C0.730347 247.12 0.371792 245.798 0 244.331V211.149L0.642513 206.064C1.73357 205.398 2.83022 204.724 3.66158 204.211L12.5098 197.819L4.2718 182.007L7.62803 168.886L5.72547 165.835L7.9329 148.364L2.746 123.132L5.1869 108.329L9.15335 85.4524L0 53.8028L2.18348 48.4509L0 38.8174V11.7011L3.43118 3.85161Z" fill="url(#paint0_linear_1006_132885)"/>
<path d="M486.653 277.889L489.094 275.87L496.417 278.561L504.044 285.963L500.383 288.318H493.366L490.925 288.654H469.872V286.972L477.195 282.599L486.682 278.022L486.653 277.889Z" fill="url(#paint1_linear_1006_132885)"/>
<path d="M0.915335 279.907L1.52556 260.731L9.45846 267.796L16.476 271.16L18.3067 277.216L20.7476 280.916C23.1037 282.415 26.4891 287.664 28.0099 288.496C28.3438 288.588 28.5079 288.654 28.3754 288.654C28.3222 288.654 28.196 288.598 28.0099 288.496C27.1135 288.25 24.9931 287.818 24.1038 287.981L8.54313 289.327L0.610223 288.991L0.915335 279.907Z" fill="url(#paint2_linear_1006_132885)"/>
<path d="M562.931 39.0255L570.254 22.2042L571.169 34.3155V52.1462C571.169 52.4153 569.949 54.5012 569.338 55.5104L562.321 44.4084L562.931 39.0255Z" fill="url(#paint3_linear_1006_132885)"/>
<path d="M62.5479 11.1021L40.5798 4.03712L45.7667 2.35499C59.3951 2.24285 86.8348 2.01856 87.567 2.01856C88.2993 2.01856 113.502 3.36427 126.011 4.03712L108.315 11.7749L77.1932 11.1021H62.5479Z" fill="url(#paint4_linear_1006_132885)"/>
<path d="M65.1182 285.638L44.8034 283.837L44.1167 282.288L53.5612 278.941L62.6416 276.533L77.8496 282.662L87.6693 287.202L86.9414 289.081L76.9416 286.482L65.1182 285.638Z" fill="url(#paint5_linear_1006_132885)"/>
<path d="M5.79712 87.471L1.83067 67.6218L0.610223 70.3132L1.52556 78.7239L0.610223 88.4803C0.915335 99.9188 2.13578 102.812 2.13578 103.619C2.13578 104.427 3.76304 102.498 3.96645 99.2459L5.79712 87.471Z" fill="url(#paint6_linear_1006_132885)"/>
<path d="M8.54313 197.146L3.96645 200.51L2.13578 197.819L1.52556 192.436L3.35623 188.063L8.54313 197.146Z" fill="url(#paint7_linear_1006_132885)"/>
<path d="M5.1869 171.241L2.13578 177.633L1.52556 170.905L3.05112 167.204L5.1869 171.241Z" fill="url(#paint8_linear_1006_132885)"/>
<path d="M6.10223 148.364C5.1869 145.336 3.23418 139.079 2.746 138.271L1.83067 145.336L1.52556 157.448L3.05112 159.803L6.10223 148.364Z" fill="url(#paint9_linear_1006_132885)"/>
</g>
<g filter="url(#filter2_f_1006_132885)">
<path d="M49.543 107.903C46.578 107.903 2.88238 110.335 -18.5948 111.551C-22.206 129.899 -30.3408 171.105 -33.99 189.144C-37.6392 207.182 -37.2211 208.818 -36.5558 207.381C-19.07 205.613 17.3272 202.076 23.0291 202.076C30.1565 202.076 50.1132 193.123 91.4521 193.123C132.791 193.123 125.949 190.801 147.901 189.144C169.853 187.486 181.542 192.459 194.657 184.17C207.771 175.88 234 180.191 274.768 185.496C315.537 190.801 322.094 193.786 331.217 193.786C340.34 193.786 383.105 188.48 419.312 183.175C455.519 177.869 468.633 202.076 499.709 207.381C530.784 212.687 515.104 205.06 524.227 202.076C533.35 199.091 563 172.564 563 157.642C563 145.705 556.158 94.9713 552.737 71.0967C541.903 74.6337 519.095 81.7076 514.534 81.7076C508.832 81.7076 490.016 80.7129 472.34 80.7129C454.664 80.7129 420.737 88.3395 387.666 88.3395C354.595 88.3395 357.731 88.3395 344.332 97.2925C330.932 106.245 310.405 105.582 302.708 103.261C295.01 100.94 244.548 96.6293 236.566 93.6449C228.583 90.6606 214.043 93.6449 160.16 103.261C106.277 112.877 121.957 106.577 96.8689 115.53C71.7805 124.483 53.2493 107.903 49.543 107.903Z" fill="#0A261C" fill-opacity="0.3"/>
</g>
<g filter="url(#filter3_d_1006_132885)">
<path d="M29.5067 5.10259L0.138319 2.8064L-15 -7.36243L27.9928 -19.4994L146.072 -22.4517C255.774 -21.9049 476.027 -20.8115 479.418 -20.8115C482.808 -20.8115 524.227 -15.3444 544.512 -12.6109L576 1.16627L544.512 6.08667L529.677 18.5517L498.189 3.13443L462.463 6.08667L450.655 9.03891L426.736 6.4147L403.726 6.08667L379.807 16.5835L371.027 4.77456L335.603 7.39878L276.261 4.11851L251.51 4.93858L238.415 17.8956L226.759 5.75864L177.257 7.39878L166.357 14.9434L146.072 6.74273L128.814 11.9912L114.281 20.5199L70.9856 26.4243L38.8924 17.2396L29.5067 5.10259Z" fill="white" fill-opacity="0.52" style="mix-blend-mode:overlay" shape-rendering="crispEdges"/>
<path d="M9.52408 199.294L13.1573 193.062L6.79918 196.014L0.138319 200.279L3.16598 201.919L9.52408 199.294Z" fill="white" fill-opacity="0.52" style="mix-blend-mode:overlay" shape-rendering="crispEdges"/>
<path d="M62.5082 267.524L43.7367 275.397H47.9754L62.2054 272.116C66.0405 273.319 73.7105 275.856 73.7105 276.381C73.7105 276.906 84.4083 279.442 89.7572 280.645L84.9129 276.053L62.5082 267.524Z" fill="white" fill-opacity="0.52" style="mix-blend-mode:overlay" shape-rendering="crispEdges"/>
<path d="M478.206 275.397C477.722 275.397 470.133 278.458 466.399 279.989V278.021C470.335 275.506 478.328 270.345 478.812 269.82C479.418 269.164 482.445 267.524 483.353 266.868C484.262 266.212 488.5 267.196 489.106 267.524C489.59 267.786 494.152 270.476 496.372 271.788L502.428 279.989L492.436 272.444L486.381 270.476L486.078 271.46C483.656 272.772 478.691 275.397 478.206 275.397Z" fill="white" fill-opacity="0.52" style="mix-blend-mode:overlay" shape-rendering="crispEdges"/>
<path d="M562.073 176.005L562.375 169.772C564.495 170.209 569.036 171.15 570.247 171.412C571.458 171.675 572.367 175.02 572.67 176.661L567.523 179.285L562.073 176.005Z" fill="white" fill-opacity="0.52" style="mix-blend-mode:overlay" shape-rendering="crispEdges"/>
<path d="M562.678 36.2651L568.431 21.1759L563.889 20.5199C562.678 24.2375 560.196 31.7384 559.953 32.0008C559.711 32.2632 559.045 37.5772 558.742 40.2015L562.678 36.2651Z" fill="white" fill-opacity="0.52" style="mix-blend-mode:overlay" shape-rendering="crispEdges"/>
</g>
</g>
</g>
<g opacity="0.08">
<path d="M459.338 247.269C458.583 247.204 458.061 247.53 457.728 248.204C455.632 251.984 453.104 255.446 450.211 258.565L449.326 260.694L447.615 261.963L446.532 264.85L448.095 268.718L460.541 276.234C460.565 276.3 460.612 276.387 460.704 276.472C462.58 278.362 464.601 278.499 466.72 276.841C468.697 272.091 471.586 268.153 475.363 264.963C476.518 262.229 478.243 260.03 480.538 258.323C480.921 257.825 481.052 257.046 480.887 256.034C480.75 253.118 479.232 251.35 476.352 250.664C472.822 249.755 469.393 248.51 466.086 246.952C462.89 245.369 464.701 246.597 461.273 246.082C460.718 246.763 459.494 247.287 458.721 247.377L459.338 247.269ZM414.17 49.7572C410.689 48.9789 407.075 48.2047 403.397 47.4987C400.982 46.8205 398.635 46.1623 396.355 45.5242C391.06 44.1599 385.605 43.3314 380.013 43.0601C378.35 43.0446 376.711 43.0505 375.117 43.0993C373.961 43.6877 373.012 44.5131 372.249 45.5983C371.367 46.4438 370.488 47.3777 369.656 48.3986C367.804 50.7781 365.746 52.9647 363.483 55.0028C359.5 58.6862 355.386 62.4179 351.096 66.1993C347.729 69.0454 344.293 71.783 340.765 74.435C338.887 76.0188 337.994 77.9265 338 80.2048C338.241 91.3688 337.881 102.396 336.941 113.353C336.603 117.367 336.246 121.493 335.89 125.663C335.685 128.987 336.688 131.987 338.944 134.661C338.505 136.909 338.984 138.73 340.334 140.083C341.3 141.203 342.556 141.696 344.103 141.56C353.204 139.291 362.446 137.238 371.872 135.401C372.588 137.746 373.542 139.885 374.822 141.815C375.382 142.726 375.969 143.748 376.535 144.837C383.227 156.777 389.305 168.913 394.812 181.243C395.52 182.593 396.519 183.358 397.81 183.54L444.789 170.356C446.237 168.497 446.769 166.38 446.318 164.026C446.219 162.99 446.185 161.929 446.152 160.868C446.565 156.409 446.405 152.056 445.606 147.789C445.372 146.712 445.12 145.747 444.805 144.893C443.705 142.317 442.865 139.599 442.266 136.764C441.791 134.345 441.357 131.837 440.898 129.218C442.395 128.221 443.683 126.899 444.74 125.274C445.114 124.51 445.533 123.745 445.998 123.023C447.295 122.01 448.502 120.911 449.616 119.727C451.404 118.101 453.101 116.39 454.707 114.638C455.931 113.384 457.017 112.001 457.902 110.558C459.766 107.847 460.001 104.764 458.543 101.38C458.235 100.748 457.883 100.117 457.555 99.5523C456.622 98.0766 455.643 96.5581 454.642 95.0181C454.008 93.9093 453.442 92.8205 452.94 91.6634C449.678 82.3838 445.832 73.5423 441.398 65.0506C440.78 63.7422 440.14 62.4123 439.521 61.0597C438.596 59.1193 437.515 57.1614 436.235 55.2318C435.401 54.0627 434.246 53.2796 432.836 52.8582C428.65 52.1899 424.506 51.4761 420.428 50.7382C418.228 50.5622 416.135 50.228 414.17 49.7572ZM364.58 88.3284L365.615 88.1419C366.332 89.0712 367.049 90.0447 367.79 91.0396C368.39 91.8176 368.988 92.5072 369.563 93.1754C370.054 93.9789 370.525 94.8493 370.975 95.7868C372.432 98.3968 373.843 101.008 375.3 103.618L374.204 105.421L352.273 104.19L349.668 92.5676L364.58 88.3284ZM410.435 76.0192C411.856 75.4227 413.301 74.8475 414.766 74.2496L425.399 86.069L426.01 87.2006C423.415 89.2267 421.052 91.5554 418.962 94.1412C417.44 95.7584 415.893 97.31 414.346 98.8174C412.484 100.202 410.576 101.543 408.58 102.887L403.238 101.436L400.537 81.8304C403.91 79.8911 407.217 77.9759 410.435 76.0192ZM419.802 141.809L419.14 143.29L395.677 151.087C395.793 148.451 395.929 145.748 395.997 142.98C396.028 139.75 395.908 136.634 395.567 133.57C395.114 128.341 396.628 123.671 400.065 119.518C404.012 123.135 407.834 126.978 411.51 131.113C414.692 134.356 417.419 137.901 419.802 141.809ZM348.446 10.3572C345.268 9.34837 342.006 8.47488 338.57 7.7394C335.784 7.22738 333.466 8.1832 331.569 10.564C329.656 13.1444 327.539 15.5762 325.172 17.8165C320.182 22.5705 320.346 22.1673 316.09 27.0095C315.082 28.08 314.209 29.1907 313.447 30.3201C311.028 33.7123 308.221 36.7404 305.004 39.4271C302.616 41.6902 300.687 44.4702 299.22 47.8112L267.035 75.5189C265.746 78.213 265.831 80.9092 267.292 83.6518C267.598 84.2397 267.726 84.7888 267.743 85.3192C268.039 91.1724 269.254 96.6877 271.39 101.865C272.2 103.654 273.075 105.419 273.951 107.184C276.353 111.668 276.896 116.253 275.56 120.961C273.474 122.95 271.158 124.679 268.612 126.151C257.306 130.899 246.203 135.752 235.281 140.732C234.457 142.018 234.389 143.369 235.121 144.785C235.288 145.156 235.538 145.347 235.893 145.381C245.393 149.403 255.454 152.237 266.119 153.879C267.009 153.985 273.001 157.805 284.142 165.384C284.651 168.178 285.204 170.926 285.821 173.65C286.113 175.168 286.249 176.668 286.274 178.149C286.274 179.565 286.404 180.888 286.688 182.14C288.155 188.621 290.371 194.947 293.382 201.159C294.581 203.357 296.189 205.166 298.205 206.542C300.219 207.874 302.53 208.799 305.185 209.359C322.163 213.02 338.535 218.558 354.369 225.993L361.148 226.649C364.598 229.242 368.621 231.043 373.174 232.099C379.498 233.785 377.317 232.082 383.296 234.045C385.286 236.042 387.767 237.426 390.74 238.242C392.996 238.814 394.977 238.4 396.681 236.91C397.97 235.631 399.323 234.285 400.698 232.915C404.168 229.823 407.321 226.519 410.114 223.049C411.776 223.064 412.795 222.347 413.259 220.895C413.625 219.866 413.485 218.919 412.794 218.1C410.946 216.409 408.739 215.282 406.15 214.697C404.835 214.45 403.828 214.149 403.127 213.706C394.092 208.961 393.121 208.393 383.638 204.901C369.645 199.622 355.536 194.191 341.245 188.589C340.437 188.26 339.806 187.926 339.349 187.497C333.886 184.302 328.187 181.357 322.229 178.642C320.856 177.954 320.01 177.117 319.669 176.154C317.075 169.774 314.811 163.361 312.9 156.85C310.982 150.161 309.698 143.166 309.002 135.865C308.783 133.129 308.453 130.418 308.035 127.71C306.639 119.28 304.999 110.835 303.071 102.422C302.894 101.012 302.608 99.6709 302.28 98.42C301.894 96.7285 301.683 94.9431 301.69 93.0625C301.893 88.2781 301.33 83.7604 300.02 79.4868C303.032 75.9215 306.108 72.288 309.226 68.5646C310.422 67.1565 311.511 65.8622 312.493 64.6819C323.047 53.6521 328.898 48.0754 339.688 37.525C339.879 37.2758 340.164 37.1565 340.563 37.1885C342.967 35.4116 344.288 33.0484 344.553 30.2087C348.809 26.0524 353.246 22.0232 357.888 18.1426C360.276 15.8795 360.14 13.6936 357.459 11.5635C354.256 11.9049 351.452 11.504 348.579 10.3531L348.446 10.3572ZM346.524 -28.0754C345.142 -29.0286 343.673 -29.9349 342.14 -30.7728C334.316 -35.0683 326.293 -37.234 318.071 -37.2699L316.709 -36.1885L316.213 -33.6515C314.834 -32.4147 313.633 -31.1392 312.544 -29.8449C312.161 -29.3465 311.889 -28.8294 311.772 -28.3392C310.659 -25.6948 309.456 -23.0918 308.184 -20.5532C306.324 -17.0232 306.737 -13.7618 309.427 -10.6808C309.652 -10.555 309.944 -10.4533 310.299 -10.4199C326.199 -7.2122 341.88 -3.22356 357.296 1.50321C360.36 2.4049 363.506 3.08288 366.733 3.53716C370.961 4.11564 375.071 5.14019 378.994 6.59075C381.533 7.6855 384.2 8.64359 387.06 9.39668C392.742 11.1252 398.488 12.7412 404.339 14.1991C409.765 15.5152 414.913 17.1274 419.824 18.9902C423.729 20.5519 427.691 21.8243 431.712 22.8516C440.16 25.1591 448.641 27.7975 457.132 30.7452C457.767 31.8982 458.572 32.8248 459.48 33.5049C459.914 33.912 460.192 34.3017 460.293 34.6967C465.103 46.6721 469.865 58.5605 474.604 70.3832C475.153 71.6273 475.723 72.8487 476.292 74.0258C480.01 80.9025 483.07 87.9762 485.449 95.2698C487.353 100.83 489.061 106.508 490.508 112.326C492.003 118.275 494.638 123.835 498.435 128.984C494.75 134.406 490.859 139.591 486.851 144.58C483.26 148.76 479.945 153.242 476.861 158.026C475.564 160.455 473.892 162.917 471.887 165.412C464.008 174.103 456.446 183.051 449.115 192.256L450.703 196.234C446.193 197.279 442.797 199.883 440.537 204.111C439.216 206.474 437.896 208.881 436.599 211.31C431.897 220.28 425.971 228.403 418.866 235.678C417.903 236.747 416.874 237.84 415.759 239.025C412.65 243.013 409.541 247.002 406.432 250.99C401.906 256.438 397.139 261.959 392.177 267.597C391.321 268.553 390.483 269.397 389.619 270.087C385.561 272.799 384.422 276.02 386.157 279.749L385.771 282.261C385.845 282.502 386.099 282.826 386.556 283.254C389.877 285.298 393.229 287.585 396.633 290.135C398.947 291.834 401.162 293.227 403.302 294.333C405.639 295.368 407.846 295.079 409.965 293.422C413.45 289.4 416.773 285.183 419.914 280.796C425.268 273.509 429.919 265.734 433.89 257.45C435.037 257.282 435.994 256.722 436.809 255.856C439.229 253.194 441.356 250.386 443.167 247.41C446.925 241.5 451.23 236.103 456.038 231.178C458.634 228.466 461.047 225.582 463.21 222.508C465.371 219.389 467.484 216.139 469.505 212.758C472.556 207.643 475.97 202.783 479.68 198.157C480.537 197.245 481.236 196.229 481.798 195.083C488.1 184.825 495.563 175.571 504.122 167.345C508.186 163.438 512.045 159.338 515.722 155.067C518.933 151.518 522.486 148.246 526.336 145.252C528.613 143.7 530.278 141.702 531.398 139.279C531.773 138.515 531.884 137.804 531.731 137.189C528.9 126.813 526.204 116.52 523.666 106.333C526.094 103.206 528.821 100.446 531.849 98.0971C534.399 96.0724 536.693 93.6352 538.819 90.7828C540.05 89.0639 541.513 87.6918 543.209 86.6666C547.296 84.1524 550.137 80.8136 551.69 76.6514C553.061 75.8795 553.778 74.7072 553.883 73.1334C554.065 71.889 553.548 70.9315 552.307 70.2395C550.002 68.8057 547.45 67.999 544.653 67.8191C533.677 66.872 522.531 66.1513 511.194 65.724L500.019 31.0918C500.433 28.7785 501.188 26.6982 502.26 24.8735C503.5 22.734 503.366 20.5923 501.881 18.4698C498.856 14.6027 494.887 12.4235 490.018 11.8867C488.527 11.689 487.12 11.356 485.8 10.9319C482.213 10.3116 478.577 9.56016 474.85 8.72299C468.291 7.28676 461.724 5.62953 455.147 3.66288C441.971 0.393965 429.056 -3.70148 416.451 -8.53638C413.289 -9.74476 410.182 -10.6009 407.086 -11.1034C393.777 -12.9525 380.785 -16.0059 368.107 -20.3077C365.844 -21.1011 363.7 -21.6549 361.652 -21.9462C356.003 -22.6139 350.996 -24.6949 346.524 -28.0754ZM401.741 -56.8641C398.498 -57.8046 396.432 -62.1878 392.613 -61.0533C390.768 -60.5102 390.072 -58.7192 388.831 -57.3097C387.29 -55.5813 385.587 -54.0912 383.977 -52.4271C381.038 -49.395 378.24 -46.0575 375.484 -42.8098C373.733 -40.721 374.564 -42.4719 373.173 -40.2172C372.751 -39.5406 372.811 -38.37 372.452 -37.806C371.564 -36.4515 369.87 -36.0679 369.845 -34.0319C369.788 -30.2253 374.848 -28.5662 377.652 -28.2095C382.168 -27.6178 386.72 -25.921 391.125 -24.6621C396.111 -23.2441 399.522 -26.7773 403.345 -29.925C406.023 -32.1306 404.434 -30.5334 406.451 -33.3161C408.511 -36.1444 411.36 -38.5322 413.87 -41.153C415.435 -42.8158 417.774 -45.9401 416.099 -48.4549C415.028 -50.1034 411.22 -52.0884 409.484 -53.0307C406.939 -54.3465 404.246 -55.4144 401.741 -56.8641Z" fill="white"/>
</g>
</g>
<defs>
<filter id="filter0_d_1006_132885" x="-3" y="-3" width="578" height="296" filterUnits="userSpaceOnUse" color-interpolation-filters="sRGB">
<feFlood flood-opacity="0" result="BackgroundImageFix"/>
<feColorMatrix in="SourceAlpha" type="matrix" values="0 0 0 0 0 0 0 0 0 0 0 0 0 0 0 0 0 0 127 0" result="hardAlpha"/>
<feOffset/>
<feGaussianBlur stdDeviation="1.5"/>
<feComposite in2="hardAlpha" operator="out"/>
<feColorMatrix type="matrix" values="0 0 0 0 0.170833 0 0 0 0 0.971893 0 0 0 0 1 0 0 0 1 0"/>
<feBlend mode="normal" in2="BackgroundImageFix" result="effect1_dropShadow_1006_132885"/>
<feBlend mode="normal" in="SourceGraphic" in2="effect1_dropShadow_1006_132885" result="shape"/>
</filter>
<filter id="filter1_ii_1006_132885" x="0" y="0" width="573" height="290" filterUnits="userSpaceOnUse" color-interpolation-filters="sRGB">
<feFlood flood-opacity="0" result="BackgroundImageFix"/>
<feBlend mode="normal" in="SourceGraphic" in2="BackgroundImageFix" result="shape"/>
<feColorMatrix in="SourceAlpha" type="matrix" values="0 0 0 0 0 0 0 0 0 0 0 0 0 0 0 0 0 0 127 0" result="hardAlpha"/>
<feOffset/>
<feGaussianBlur stdDeviation="5.5"/>
<feComposite in2="hardAlpha" operator="arithmetic" k2="-1" k3="1"/>
<feColorMatrix type="matrix" values="0 0 0 0 0.225 0 0 0 0 1 0 0 0 0 1 0 0 0 1 0"/>
<feBlend mode="screen" in2="shape" result="effect1_innerShadow_1006_132885"/>
<feColorMatrix in="SourceAlpha" type="matrix" values="0 0 0 0 0 0 0 0 0 0 0 0 0 0 0 0 0 0 127 0" result="hardAlpha"/>
<feOffset/>
<feGaussianBlur stdDeviation="33"/>
<feComposite in2="hardAlpha" operator="arithmetic" k2="-1" k3="1"/>
<feColorMatrix type="matrix" values="0 0 0 0 0.195833 0 0 0 0 0.95175 0 0 0 0 1 0 0 0 0.2 0"/>
<feBlend mode="normal" in2="effect1_innerShadow_1006_132885" result="effect2_innerShadow_1006_132885"/>
</filter>
<filter id="filter2_f_1006_132885" x="-112" y="-3.90332" width="750" height="288.114" filterUnits="userSpaceOnUse" color-interpolation-filters="sRGB">
<feFlood flood-opacity="0" result="BackgroundImageFix"/>
<feBlend mode="normal" in="SourceGraphic" in2="BackgroundImageFix" result="shape"/>
<feGaussianBlur stdDeviation="37.5" result="effect1_foregroundBlur_1006_132885"/>
</filter>
<filter id="filter3_d_1006_132885" x="-20" y="-27.4517" width="601" height="313.097" filterUnits="userSpaceOnUse" color-interpolation-filters="sRGB">
<feFlood flood-opacity="0" result="BackgroundImageFix"/>
<feColorMatrix in="SourceAlpha" type="matrix" values="0 0 0 0 0 0 0 0 0 0 0 0 0 0 0 0 0 0 127 0" result="hardAlpha"/>
<feOffset/>
<feGaussianBlur stdDeviation="2.5"/>
<feComposite in2="hardAlpha" operator="out"/>
<feColorMatrix type="matrix" values="0 0 0 0 1 0 0 0 0 1 0 0 0 0 1 0 0 0 0.5 0"/>
<feBlend mode="overlay" in2="BackgroundImageFix" result="effect1_dropShadow_1006_132885"/>
<feBlend mode="normal" in="SourceGraphic" in2="effect1_dropShadow_1006_132885" result="shape"/>
</filter>
<linearGradient id="paint0_linear_1006_132885" x1="280.703" y1="-34.3155" x2="287.75" y2="289.973" gradientUnits="userSpaceOnUse">
<stop stop-color="#092122"/>
<stop offset="1" stop-color="#0E7678"/>
</linearGradient>
<linearGradient id="paint1_linear_1006_132885" x1="280.703" y1="-34.3155" x2="287.75" y2="289.973" gradientUnits="userSpaceOnUse">
<stop stop-color="#092122"/>
<stop offset="1" stop-color="#0E7678"/>
</linearGradient>
<linearGradient id="paint2_linear_1006_132885" x1="280.703" y1="-34.3155" x2="287.75" y2="289.973" gradientUnits="userSpaceOnUse">
<stop stop-color="#092122"/>
<stop offset="1" stop-color="#0E7678"/>
</linearGradient>
<linearGradient id="paint3_linear_1006_132885" x1="280.703" y1="-34.3155" x2="287.75" y2="289.973" gradientUnits="userSpaceOnUse">
<stop stop-color="#092122"/>
<stop offset="1" stop-color="#0E7678"/>
</linearGradient>
<linearGradient id="paint4_linear_1006_132885" x1="280.703" y1="-34.3155" x2="287.75" y2="289.973" gradientUnits="userSpaceOnUse">
<stop stop-color="#092122"/>
<stop offset="1" stop-color="#0E7678"/>
</linearGradient>
<linearGradient id="paint5_linear_1006_132885" x1="280.703" y1="-34.3155" x2="287.75" y2="289.973" gradientUnits="userSpaceOnUse">
<stop stop-color="#092122"/>
<stop offset="1" stop-color="#0E7678"/>
</linearGradient>
<linearGradient id="paint6_linear_1006_132885" x1="280.703" y1="-34.3155" x2="287.75" y2="289.973" gradientUnits="userSpaceOnUse">
<stop stop-color="#092122"/>
<stop offset="1" stop-color="#0E7678"/>
</linearGradient>
<linearGradient id="paint7_linear_1006_132885" x1="280.703" y1="-34.3155" x2="287.75" y2="289.973" gradientUnits="userSpaceOnUse">
<stop stop-color="#092122"/>
<stop offset="1" stop-color="#0E7678"/>
</linearGradient>
<linearGradient id="paint8_linear_1006_132885" x1="280.703" y1="-34.3155" x2="287.75" y2="289.973" gradientUnits="userSpaceOnUse">
<stop stop-color="#092122"/>
<stop offset="1" stop-color="#0E7678"/>
</linearGradient>
<linearGradient id="paint9_linear_1006_132885" x1="280.703" y1="-34.3155" x2="287.75" y2="289.973" gradientUnits="userSpaceOnUse">
<stop stop-color="#092122"/>
<stop offset="1" stop-color="#0E7678"/>
</linearGradient>
<clipPath id="clip0_1006_132885">
<rect width="566" height="290" fill="white"/>
</clipPath>
</defs>
</svg>
