<svg preserveAspectRatio="none" viewBox="0 0 566 290" fill="none" xmlns="http://www.w3.org/2000/svg">
<mask id="mask0_1006_132781" style="mask-type:alpha" maskUnits="userSpaceOnUse" x="0" y="0" width="566" height="290">
<path d="M3.38566 3.18615L10.7726 1.04041L29.2398 0.682782L72.9456 4.97394C78.2122 3.08094 91.0949 -0.149357 141.274 1.04041L160.973 7.11977L169.283 3.90115L282.549 1.04041L322.561 0.682782L344.722 1.75565L399.816 1.57684L446.842 5.00617L454.909 1.39803L487.464 3.21825L542.53 0C542.53 0 561.486 1.39799 563.292 3.21825C565.097 5.03851 566 18.2367 566 18.2367L563.894 63.2922L564.195 83.5811C561.787 86.8927 561.18 87.4356 561.486 90.4686C561.758 95.3651 562.314 97.6115 564.495 103.87L565.097 144.448L564.195 208.113L565.097 216.151C563.417 239.428 563.543 252.42 565.398 275.697L564.796 284.994L559.079 287.497L553.061 288.212L504.216 288.033C498.489 284.118 492.573 284.679 479.794 287.944L455.371 287.855L437.815 290L388.768 285.709L345.645 287.855H297.476L291.782 285.351L262.235 287.855H191.751L133.58 286.424L120.96 287.855L101.57 285.351L96.6452 287.855H72.33L37.8578 287.139L7.69468 287.855L0.923362 284.994L0 277.484V260.854C2.31195 256.581 2.12846 252.758 0 244.225V210.966L3.07787 148.381L0.903192 122.07L1.80638 96.1047L0 53.2535L2.15451 47.8891L0 38.2333V11.0539L3.38566 3.18615Z" fill="url(#paint0_linear_1006_132781)"/>
<path d="M3.38566 3.18615L10.7726 1.04041L29.2398 0.682782L72.9456 4.97394C78.2122 3.08094 91.0949 -0.149357 141.274 1.04041L160.973 7.11977L169.283 3.90115L282.549 1.04041L322.561 0.682782L344.722 1.75565L399.816 1.57684L446.842 5.00617L454.909 1.39803L487.464 3.21825L542.53 0C542.53 0 561.486 1.39799 563.292 3.21825C565.097 5.03851 566 18.2367 566 18.2367L563.894 63.2922L564.195 83.5811C561.787 86.8927 561.18 87.4356 561.486 90.4686C561.758 95.3651 562.314 97.6115 564.495 103.87L565.097 144.448L564.195 208.113L565.097 216.151C563.417 239.428 563.543 252.42 565.398 275.697L564.796 284.994L559.079 287.497L553.061 288.212L504.216 288.033C498.489 284.118 492.573 284.679 479.794 287.944L455.371 287.855L437.815 290L388.768 285.709L345.645 287.855H297.476L291.782 285.351L262.235 287.855H191.751L133.58 286.424L120.96 287.855L101.57 285.351L96.6452 287.855H72.33L37.8578 287.139L7.69468 287.855L0.923362 284.994L0 277.484V260.854C2.31195 256.581 2.12846 252.758 0 244.225V210.966L3.07787 148.381L0.903192 122.07L1.80638 96.1047L0 53.2535L2.15451 47.8891L0 38.2333V11.0539L3.38566 3.18615Z" fill="#FF0000"/>
</mask>
<g mask="url(#mask0_1006_132781)">
<rect width="572" height="310" fill="#4D2C14"/>
<rect width="572" height="310" fill="url(#paint1_radial_1006_132781)" fill-opacity="0.7"/>
<g opacity="0.04">
<path d="M436.336 228.857C436.336 232.768 436.336 235.609 436.336 239.367C425.198 249.549 409.713 249.571 394.163 254.859C407.748 258.88 419.235 260.409 431.313 255.974C450.75 248.828 470.493 250.183 490.717 254.903C493.032 242.295 500.152 234.56 513.059 230.277C523.127 226.934 531.994 219.92 541.582 214.435C564.601 225.798 579.147 245.485 589.499 268.254C596.531 283.724 588.756 306.755 573.861 314.665C562.941 320.477 550.58 323.558 538.852 327.841C538.241 327.054 537.629 326.268 537.039 325.503C534.659 330.922 532.278 336.363 529.614 342.416C547.654 339.422 564.427 337.521 580.697 333.61C591.093 331.119 600.768 325.612 608.98 322.203C618.742 307.367 615.903 292.006 619.397 278.021C624.442 257.787 616.798 240.547 607.298 223.263C600.004 209.978 594.478 195.709 588.407 181.746C587.337 179.299 587.489 176.327 587.009 173.093C590.001 172.722 592.01 172.46 594.587 172.132C594.587 168.33 594.587 164.484 594.587 160.442C591.486 157.798 588.166 155.482 585.48 152.597C581.658 148.489 578.229 143.966 574.713 139.574C573.119 137.586 571.918 135.291 570.17 133.456C544.203 105.989 518.082 78.6541 492.224 51.0783C486.153 44.6105 479.47 40.9177 470.384 40.6992C464.75 40.5681 459.137 38.6233 452.76 37.3341C454.485 32.7455 455.948 28.8997 458.154 23C450.816 23.5026 444.613 22.9126 439.022 24.4859C408.665 32.9421 386.498 45.7467 369.637 63.9266C371.581 69.149 373.656 74.6772 375.709 80.2055C375.163 80.6207 374.617 81.0358 374.071 81.451C369.288 78.6541 364.527 75.8572 358.761 72.4921C349.239 80.4458 339.258 87.7222 330.609 96.3751C324.341 102.646 318.03 105.902 307.809 103.695C306.345 99.3031 304.598 94.1026 302.633 88.2684C292.827 94.7581 283.545 100.92 273.236 107.759C270.834 102.865 268.715 98.4946 266.007 92.9882C264.326 95.5229 262.709 97.2491 261.858 99.3031C253.559 119.493 236.633 131.358 219.619 143.005C210.075 149.538 199.985 155.307 189 162.102C198.02 170.362 206.232 177.901 215.077 186.007C215.47 181.462 215.819 177.354 216.234 172.547C220.362 173.727 223.747 174.689 227.744 175.825C230.932 174.383 234.536 172.744 238.62 170.886C260.045 180.501 281.797 190.246 304.86 200.582C307.066 197.26 308.857 194.551 311.15 191.12C319.69 193.393 327.748 195.534 336.637 197.894C315.933 221.253 315.824 223.94 334.147 243.431C335.349 240.787 336.441 238.427 337.838 235.368C341.027 236.526 343.888 237.575 349.02 239.454C346.225 233.183 344.237 228.726 341.682 223.001C344.609 219.046 347.95 214.523 350.942 210.48C369.812 209.781 387.721 210.546 404.341 203.379C404.341 201.39 404.341 199.795 404.341 196.299C407.922 198.987 412.006 200.451 412.531 202.723C415.523 215.724 425.394 222.323 436.336 228.857ZM263.801 127.076C268.388 132.669 272.275 137.433 277.08 143.333C271.795 147.266 267.711 150.281 262.731 153.974C258.123 148.205 254.541 143.704 250.741 138.941C255.328 134.767 258.494 131.883 263.801 127.076Z" fill="white"/>
<path d="M518.388 342.35C520.507 337.565 522.516 332.998 525.071 327.229C476.805 329.676 429.653 322.75 380.732 325.59C392.722 336.516 472 345.54 518.388 342.35Z" fill="white"/>
</g>
<g filter="url(#filter0_f_1006_132781)">
<path d="M-15.6863 208.027L-22.9997 272.978L-23 297.876C31.0089 297.515 139.927 296.144 143.527 293.546C148.028 290.298 470.956 302.206 566.597 305.453C643.11 308.051 610.104 300.762 584.037 296.793L587.413 210.192L573.911 196.12C568.097 196.481 555.795 197.635 553.095 199.367C549.719 201.532 549.157 209.11 536.78 198.285C524.403 187.46 520.464 201.532 509.213 186.377C497.961 171.222 497.961 201.532 495.148 201.532C492.335 201.532 455.204 208.027 442.264 208.027C429.324 208.027 407.946 193.955 394.444 177.717C380.941 161.48 360.688 203.697 342.685 203.697C324.682 203.697 324.682 210.193 302.741 208.028C280.8 205.863 275.737 185.295 257.734 189.625C239.731 193.955 230.729 216.688 224.541 225.348C218.352 234.008 187.41 223.183 164.906 218.853C142.402 214.523 145.778 226.43 130.025 210.193C114.273 193.955 109.772 195.037 97.3948 193.955C85.0178 192.872 74.3285 205.862 63.0767 212.358C51.8248 218.853 27.6333 223.183 17.5067 219.935C9.40533 217.337 2.12914 208.027 -0.496296 203.697L-15.6863 208.027Z" fill="url(#paint2_linear_1006_132781)" fill-opacity="0.3"/>
</g>
<rect width="572" height="310" fill="url(#paint3_linear_1006_132781)"/>
</g>
<defs>
<filter id="filter0_f_1006_132781" x="-59" y="138" width="709" height="204" filterUnits="userSpaceOnUse" color-interpolation-filters="sRGB">
<feFlood flood-opacity="0" result="BackgroundImageFix"/>
<feBlend mode="normal" in="SourceGraphic" in2="BackgroundImageFix" result="shape"/>
<feGaussianBlur stdDeviation="18" result="effect1_foregroundBlur_1006_132781"/>
</filter>
<linearGradient id="paint0_linear_1006_132781" x1="286.761" y1="4.29101" x2="284.551" y2="281.758" gradientUnits="userSpaceOnUse">
<stop stop-color="#1A1A1A"/>
<stop offset="1" stop-color="#101010"/>
</linearGradient>
<radialGradient id="paint1_radial_1006_132781" cx="0" cy="0" r="1" gradientUnits="userSpaceOnUse" gradientTransform="translate(272.939 36.0332) rotate(82.3231) scale(303.281 988.547)">
<stop offset="0.0682189" stop-color="#E9BC79" stop-opacity="0.38"/>
<stop offset="0.693651" stop-color="#BF4D1D" stop-opacity="0.19"/>
</radialGradient>
<linearGradient id="paint2_linear_1006_132781" x1="295.5" y1="174" x2="295.5" y2="259.97" gradientUnits="userSpaceOnUse">
<stop stop-opacity="0"/>
<stop offset="1"/>
</linearGradient>
<linearGradient id="paint3_linear_1006_132781" x1="149.264" y1="109.529" x2="499.094" y2="269.626" gradientUnits="userSpaceOnUse">
<stop stop-opacity="0.4"/>
<stop offset="1" stop-opacity="0"/>
</linearGradient>
</defs>
</svg>
