<svg preserveAspectRatio="none" viewBox="0 0 566 290" fill="none" xmlns="http://www.w3.org/2000/svg">
<mask id="mask0_1006_132817" style="mask-type:alpha" maskUnits="userSpaceOnUse" x="0" y="0" width="566" height="290">
<path d="M3.38566 3.18615L10.7726 1.04041L29.2398 0.682782L72.9456 4.97394C78.2122 3.08094 91.0949 -0.149357 141.274 1.04041L160.973 7.11977L169.283 3.90115L282.549 1.04041L322.561 0.682782L344.722 1.75565L399.816 1.57684L446.842 5.00617L454.909 1.39803L487.464 3.21825L542.53 0C542.53 0 561.486 1.39799 563.292 3.21825C565.097 5.03851 566 18.2367 566 18.2367L563.894 63.2922L564.195 83.5811C561.787 86.8927 561.18 87.4356 561.486 90.4686C561.758 95.3651 562.314 97.6115 564.495 103.87L565.097 144.448L564.195 208.113L565.097 216.151C563.417 239.428 563.543 252.42 565.398 275.697L564.796 284.994L559.079 287.497L553.061 288.212L504.216 288.033C498.489 284.118 492.573 284.679 479.794 287.944L455.371 287.855L437.815 290L388.768 285.709L345.645 287.855H297.476L291.782 285.351L262.235 287.855H191.751L133.58 286.424L120.96 287.855L101.57 285.351L96.6452 287.855H72.33L37.8578 287.139L7.69468 287.855L0.923362 284.994L0 277.484V260.854C2.31195 256.581 2.12846 252.758 0 244.225V210.966L3.07787 148.381L0.903192 122.07L1.80638 96.1047L0 53.2535L2.15451 47.8891L0 38.2333V11.0539L3.38566 3.18615Z" fill="url(#paint0_linear_1006_132817)"/>
<path d="M3.38566 3.18615L10.7726 1.04041L29.2398 0.682782L72.9456 4.97394C78.2122 3.08094 91.0949 -0.149357 141.274 1.04041L160.973 7.11977L169.283 3.90115L282.549 1.04041L322.561 0.682782L344.722 1.75565L399.816 1.57684L446.842 5.00617L454.909 1.39803L487.464 3.21825L542.53 0C542.53 0 561.486 1.39799 563.292 3.21825C565.097 5.03851 566 18.2367 566 18.2367L563.894 63.2922L564.195 83.5811C561.787 86.8927 561.18 87.4356 561.486 90.4686C561.758 95.3651 562.314 97.6115 564.495 103.87L565.097 144.448L564.195 208.113L565.097 216.151C563.417 239.428 563.543 252.42 565.398 275.697L564.796 284.994L559.079 287.497L553.061 288.212L504.216 288.033C498.489 284.118 492.573 284.679 479.794 287.944L455.371 287.855L437.815 290L388.768 285.709L345.645 287.855H297.476L291.782 285.351L262.235 287.855H191.751L133.58 286.424L120.96 287.855L101.57 285.351L96.6452 287.855H72.33L37.8578 287.139L7.69468 287.855L0.923362 284.994L0 277.484V260.854C2.31195 256.581 2.12846 252.758 0 244.225V210.966L3.07787 148.381L0.903192 122.07L1.80638 96.1047L0 53.2535L2.15451 47.8891L0 38.2333V11.0539L3.38566 3.18615Z" fill="#FF0000"/>
</mask>
<g mask="url(#mask0_1006_132817)">
<rect opacity="0.95" width="572" height="310" fill="#4E242B"/>
<g filter="url(#filter0_f_1006_132817)">
<path d="M-15.6863 208.027L-22.9997 272.978L-23 297.876C31.0089 297.515 139.927 296.144 143.527 293.546C148.028 290.298 470.956 302.206 566.597 305.453C643.11 308.051 610.104 300.762 584.037 296.793L587.413 210.192L573.911 196.12C568.097 196.481 555.795 197.635 553.095 199.367C549.719 201.532 549.157 209.11 536.78 198.285C524.403 187.46 520.464 201.532 509.213 186.377C497.961 171.222 497.961 201.532 495.148 201.532C492.335 201.532 455.204 208.027 442.264 208.027C429.324 208.027 407.946 193.955 394.444 177.717C380.941 161.48 360.688 203.697 342.685 203.697C324.682 203.697 324.682 210.193 302.741 208.028C280.8 205.863 275.737 185.295 257.734 189.625C239.731 193.955 230.729 216.688 224.541 225.348C218.352 234.008 187.41 223.183 164.906 218.853C142.402 214.523 145.778 226.43 130.025 210.193C114.273 193.955 109.772 195.037 97.3948 193.955C85.0178 192.872 74.3285 205.862 63.0767 212.358C51.8248 218.853 27.6333 223.183 17.5067 219.935C9.40533 217.337 2.12914 208.027 -0.496296 203.697L-15.6863 208.027Z" fill="url(#paint1_linear_1006_132817)" fill-opacity="0.3"/>
</g>
<rect width="572" height="310" fill="url(#paint2_linear_1006_132817)"/>
<g opacity="0.04">
<path d="M273.641 108.744C270.738 103.447 269.64 95.6598 268.111 89.7665C269.332 89.8459 274.736 94.1459 276.027 95.0726C279.23 96.9996 282.429 98.9345 285.632 100.862C288.14 102.809 289.637 106.885 291.557 109.709C292.64 111.301 294.131 112.872 294.9 114.864L294.677 114.926C292.246 116.963 288.005 116.213 285.643 115.891L282.57 115.554C280.517 114.787 274.783 110.832 273.633 108.739L273.641 108.744ZM319.679 176.786L315.958 173.29C314.053 171.595 312.154 169.898 310.248 168.202C307.804 166.344 304.528 165.564 301.83 164.109C299.938 163.084 297.863 161.569 296.126 160.333C293.737 158.626 289.018 154.942 286.082 154.667C286.243 157.348 288.9 160.328 290.263 161.967L290.356 162.301C286.935 162.628 274.959 160.954 271.795 163.302L271.573 163.364C272.827 165.355 274.715 166.795 276.194 168.396C278.695 171.105 280.879 173.796 283.671 175.971L286.217 177.408C288.125 178.969 289.808 181.013 292.188 181.71C296.844 183.065 301.771 182.138 308.041 180.39C311.059 179.549 317.771 178.405 319.679 176.786ZM336.464 212.185C332.032 211.394 327.593 210.605 323.159 209.808C320.022 213.449 311.528 217.737 306.039 219.827C307.337 221.758 313.072 222.466 315.757 222.604C319.345 222.637 322.933 222.67 326.515 222.705C330.597 222.434 338.446 215.279 341.173 213.252C340.359 212.173 337.809 212.37 336.462 212.179L336.464 212.185ZM446.534 36.8092C449.402 33.5431 452.264 30.2787 455.134 27.0188C456.167 26.0174 457.199 25.0097 458.227 24.01C458.736 22.6814 459.443 12.425 458.389 10.4855C456.999 7.91321 447.7 -0.580796 445.337 -1.26216C444.706 -1.44621 443.913 -1.13825 443.333 -1.18349C441.924 1.36266 443.761 4.96373 444.157 8.60658C444.672 11.6028 445.193 14.5972 445.71 17.5996L446.45 20.2533C446.231 23.1741 446.014 26.1011 445.796 29.022C445.677 30.9882 444.737 35.2168 445.952 36.8513L446.534 36.8092ZM452.717 265.188L446.938 260.712C445.241 259.479 443.016 259.006 441.418 257.598L441.233 256.936C444.353 255.48 445.404 253.587 444.249 249.776L443.191 249.831C443.353 249.406 443.295 249.415 443.84 249.17C444.011 248.302 443.458 247.203 442.907 246.683L443.273 245.868C440.002 239.18 432.538 241.808 424.113 244.29L423.883 245.187C425.994 246.638 430.378 246.563 432.587 248.607C436.465 252.192 430.742 258.987 428.61 260.448C428.588 261.301 436.404 264.402 437.839 265.749L439.997 264.074L440.028 264.185L439.143 266.578C440.122 267.532 441.37 267.897 442.461 268.633C445.748 267.704 449.002 266.443 452.658 265.431L452.707 265.177L452.717 265.188ZM297.658 55.8843C302.019 61.7484 307.179 64.5032 313.48 66.8597C317.728 68.4487 322.415 70.3686 326.975 71.2107C328.206 71.441 329.528 71.6657 330.587 71.7573L331.168 71.7152C331.822 70.7395 330.916 66.1257 330.808 64.4227C330.596 61.2018 329.869 54.5983 327.81 51.5391C324.265 46.2607 319.605 43.0002 316.008 36.5765L315.563 36.7006C315.849 40.4539 315.266 44.6964 316.335 48.8913L316.144 49.0647C309.317 43.4615 303.224 37.8868 297.166 30.6162C295.912 29.1059 294.291 27.5244 293.348 25.4807C292.386 25.5891 291.423 25.6974 290.46 25.8058C289.624 28.952 287.53 35.6623 287.776 38.8402C287.95 41.0915 292.646 48.2086 293.78 49.6925L297.654 55.8922L297.658 55.8843ZM362.672 110.284C365.023 106.882 367.375 103.487 369.726 100.085C370.708 98.8979 371.69 97.7109 372.664 96.5194C372.894 92.6354 373.126 88.7576 373.35 84.8754C373.712 81.3477 371.186 77.9521 370.103 74.0878C369.703 72.6527 368.583 70.0248 369.191 69.0956L369.605 68.8601C373.132 70.23 378.59 76.8281 380.685 80.804C381.647 83.3956 382.611 85.9934 383.568 88.5867C385.999 91.882 388.426 95.1853 390.857 98.4807C392.118 100.109 394.403 104.505 395.974 105.287C398.557 100.594 401.146 95.8927 403.735 91.1976C404.413 89.9954 406.638 87.4819 406.465 86.0236C405.522 82.7865 404.58 79.5494 403.638 76.3122L403.718 76.1699L404.194 76.1571C407.501 80.3217 410.81 84.4925 414.117 88.6571C415.436 91.6691 416.749 94.6828 418.069 97.6949C421.389 100.663 425.963 102.681 429.825 104.797L431.253 103.919C431.663 102.305 430.028 98.9275 429.501 96.7744C428.746 93.2051 427.993 89.642 427.232 86.0744L424.803 82.9316L424.549 82.8823L422.631 87.1169L422.328 87.3214C419.254 80.1452 416.181 72.969 413.108 65.7928C410.096 61.0127 404.896 59.7156 400.827 56.8101C398.392 55.3423 395.957 53.8746 393.516 52.4086C392.894 54.0284 395.145 61.6473 395.222 64.099C394.863 65.7788 392.275 67.9671 391.181 69.2786L390.736 69.4027C387.266 63.6502 383.79 57.8995 380.321 52.147C378.494 50.5897 376.667 49.0324 374.846 47.4734C372.396 43.8234 369.951 40.1716 367.501 36.5215C366.93 36.6007 366.353 36.6816 365.782 36.7608C363.405 42.0765 361.034 47.3904 358.657 52.7061C358.608 56.3796 358.56 60.053 358.509 63.7203C358.113 65.5771 357.72 67.4401 357.318 69.2986C358.801 72.8983 360.28 76.5059 361.764 80.1055C361.091 81.6862 360.419 83.2669 359.745 84.8414L359.257 85.2175L353.186 82.2565C352.299 82.8973 354.794 89.3879 355.271 91.455C355.637 94.0595 356.008 96.656 356.374 99.2605C356.418 100.281 356.463 101.302 356.514 102.321C358.369 104.984 360.224 107.647 362.081 110.316L362.663 110.273L362.672 110.284ZM522.638 116.029C522.986 116.846 523.333 117.662 523.682 118.485C519.706 124.013 519.634 133.533 515.696 138.604C511.189 144.406 504.897 149.067 498.858 153.917C497.225 155.325 495.592 156.734 493.952 158.144C490.435 160.158 483.329 159.719 480.645 161.734L480.818 161.925C482.823 162.28 484.834 162.633 486.84 162.993C489.554 162.757 492.271 162.513 494.99 162.275C499.451 162.304 503.911 162.334 508.371 162.364L508.384 162.841C504.9 165.119 502.484 168.932 498.722 171.381C496.707 172.689 492.178 174.205 491.04 175.908L491.356 176.18C495.218 176.31 503.062 179.204 505.822 181.454L505.835 181.931C504.249 182.412 502.534 183.357 501.295 184.029C500.161 184.385 499.027 184.741 497.894 185.097C493.323 187.538 488.446 188.811 483.478 191.143C481.12 192.247 476.486 194.511 473.515 194.753C469.972 195.048 466.82 194.093 463.672 193.677C461.279 193.511 458.885 193.338 456.493 193.172C454.405 192.901 451.142 191.357 448.715 193.073C445.904 195.064 444.655 199.285 442.714 201.906C441.315 203.796 439.729 204.565 439.254 207.044L439.915 207.693C443.381 208.293 446.352 205.085 449.674 203.779C451.006 204.041 451.543 205.058 452.678 205.568C455.869 206.998 461.376 209.563 465.023 209.64C470.659 209.755 475.863 204.778 480.688 203.366C482.16 204.729 489.157 205.825 491.414 206.343L493.876 213.049C494.55 214.341 496.494 216.559 496.465 218.054C495.772 219.994 495.082 221.939 494.39 223.879L494.625 224.293C495.612 224.198 497.877 224.387 498.519 224.994C500.127 229.039 501.728 233.086 503.335 237.131C503.945 238.601 503.031 243.929 502.903 245.838C502.641 250.324 502.385 254.809 502.123 259.295L499.522 266.22C499.008 267.629 498.815 269.256 497.826 270.392C492.81 271.264 487.591 270.206 482.82 270.042C478.541 269.895 474.699 270.626 470.238 270.69C466.122 270.744 461.216 270.598 456.982 271.045L448.795 273.327C448.94 272.007 450.841 270.364 451.61 269.323C452.974 267.496 458.925 259.704 459.054 257.941C458.651 256.067 458.249 254.193 457.845 252.312C463.07 251.095 468.296 249.879 473.52 248.656C476.027 248.47 483.188 248.961 485.045 248.069C485.052 247.234 485.058 246.393 485.059 245.559L482.869 237.703C483.344 234.984 483.82 232.272 484.295 229.553L483.556 226.899C483.877 225.063 484.202 223.219 484.524 221.383L484.969 221.259C487.563 223.582 487.822 227.596 489.7 231.393C491.492 235 492.983 237.697 493.508 242.497C493.701 243.477 493.895 244.456 494.088 245.436L493.834 245.386C493.232 244.421 489.266 239.64 488.49 239.483L490.619 247.122C492.566 250.4 494.511 253.671 496.457 256.948C497.156 256.539 498.038 255.4 498.209 254.673C498.52 252.06 496.46 249.761 496.253 247.225C496.057 243.106 495.861 238.982 495.665 234.863C494.938 233.399 494.214 231.928 493.484 230.458C492.245 227.303 491.012 224.147 489.773 220.993C488.618 219.122 487.725 218.237 486.541 215.807C485.372 215.46 484.2 215.107 483.03 214.759L482.759 215.075C481.859 219.259 480.961 223.449 480.062 227.633C479.72 228.942 479.909 231.509 478.642 231.962C479.192 236.062 479.736 240.163 480.287 244.269C475.948 244.959 471.61 245.655 467.271 246.345C463.794 246.76 459.945 248.92 456.716 248.694C456.187 246.654 455.659 244.615 455.131 242.576C453.828 240.413 450.966 239.017 448.877 238.12C444.332 236.16 439.583 232.944 433.248 234.243C431.727 234.907 430.2 235.573 428.677 236.231C424.731 237.638 421.22 239.196 418.904 241.815C416.909 244.078 414.649 248.234 414.706 251.571C414.759 254.483 416.245 258.429 415.715 261.19C412.94 261.923 410.16 262.658 407.385 263.392L402.004 265.485C400.35 263.4 398.696 261.314 397.043 259.235L396.932 259.266L395.839 267.324C393.624 268.654 391.417 269.99 389.203 271.32L388.918 271.16C387.173 267.313 385.421 263.468 383.676 259.622C379.463 254.909 375.244 250.199 371.034 245.493L370.922 245.524C370.047 246.521 369.174 247.525 368.299 248.522C368.846 250.483 368.175 251.137 368.241 252.591C368.484 254.47 368.73 256.355 368.98 258.232C369.519 262.295 370.054 266.365 370.594 270.428L373.379 276.571C375.972 281.448 377.318 287.639 380.977 290.559L381.169 290.386C380.66 285.048 382.457 282.6 380.521 275.654C380.112 274.188 379.48 270.391 378.613 270.099C378.1 272.109 377.589 274.124 377.076 276.134C377.706 277.391 378.335 278.643 378.959 279.902L378.848 279.933C377.15 279.46 376.022 276.321 375 274.686C373.834 272.824 375.182 270.342 375.245 268.298C374.819 265.91 374.393 263.522 373.963 261.142L373.912 254.957C375.179 255.177 376.615 258.057 377.451 259.097C379.393 261.495 381.336 263.9 383.278 266.299C384.322 269.901 385.368 273.509 386.414 277.117L386.525 277.086C390.167 274.971 394.14 272.704 398.307 270.582L408.319 266.718C411.042 265.799 413.771 264.878 416.494 263.959C418.18 266.182 422.113 273.119 424.291 273.952C425.641 274.469 427.266 273.842 428.916 273.856C431.673 273.874 435.097 274.179 437.398 275.191L437.892 276.96C436.453 277.081 435.02 277.201 433.582 277.328C429.716 278.566 425.843 279.806 421.976 281.043C420.242 281.253 417.339 281.743 415.526 282.721C413.932 283.839 412.333 284.965 410.738 286.083C408.355 287.5 405.966 288.926 403.576 290.346C399.489 293.232 395.41 296.122 391.323 299.008C389.986 299.854 387.671 301.879 385.435 301.842C379.832 301.751 376.756 293.442 373.601 288.915C370.477 284.26 367.347 279.606 364.224 274.95C364.063 273.802 363.903 272.653 363.743 271.504C363.462 267.603 363.342 263.85 362.994 260.26C362.495 258.613 361.994 256.959 361.495 255.312C361.152 252.168 359.638 245.59 360.215 243.023C362.577 240.378 364.944 237.731 367.304 235.08C369.2 235.185 371.103 235.294 372.998 235.399C379.04 235.508 386.643 235.002 392.803 232.859C393.196 230.562 393.588 228.266 393.981 225.97C394.532 224.024 395.496 222.248 396.259 220.442C396.697 219.407 397.302 217.465 399.074 217.271C401.279 217.03 402.482 218.501 404.143 219.198L405.794 217.424C405.551 216.792 399.433 209.738 398.917 209.442C397.43 208.576 383.964 209.59 380.603 211.327C378.75 212.284 377.263 214.551 375.932 215.969L369.096 221.808C367.427 222.946 365.761 224.091 364.086 225.231L360.437 226.248L354.945 228.372C352.409 229.579 347.836 232.421 344.809 231.791C345.451 226.519 347.857 220.829 350.759 216.773C351.759 215.221 352.753 213.671 353.753 212.119L353.722 212.008C350.29 212.344 345.583 209.517 342.7 208.4C341.803 208.171 340.901 207.949 340.004 207.719C337.736 206.564 335.461 205.405 333.193 204.251C329.805 202.975 326.26 202.237 322.957 200.905C320.383 199.515 317.81 198.126 315.237 196.737C313.209 195.869 304.369 192.2 303.585 190.439C303.956 189.642 304.005 188.695 304.718 188.097C305.469 187.467 307.396 187.063 308.447 186.937C313.715 185.588 318.984 184.24 324.253 182.891C326.5 181.391 328.742 179.893 330.988 178.387C330.285 176.916 328.563 175.856 327.49 174.829C323.272 170.765 318.901 167.424 314.432 163.916C309.292 159.583 304.145 155.251 299.006 150.917C296.233 147.237 293.455 143.558 290.683 139.878C288.8 137.45 280.756 127.193 280.942 123.748C284.389 123.06 289.647 124.448 293.196 124.505C299.401 123.529 305.614 122.556 311.82 121.58C306.44 115.407 301.061 109.233 295.686 103.052C293.607 101.165 291.534 99.2761 289.457 97.3953C286.236 92.7002 284.757 86.6061 282.003 81.3408C280.375 78.228 277.473 73.0508 277.632 69.0799C277.72 66.8621 278.465 64.2278 278.717 61.8576C278.904 60.1123 278.544 57.3862 279.481 56.0383C281.131 56.3384 282.28 58.2379 283.578 59.1893C287.206 61.5178 290.841 63.8445 294.469 66.173C297.343 67.6383 300.217 69.1036 303.085 70.5707C307.25 73.2696 311.357 75.9311 316.443 76.9866C321.571 78.0502 326.527 79.1154 331.268 80.9669C333.032 81.8684 334.79 82.7717 336.552 83.667C338.286 84.4104 341.655 85.4044 342.827 86.9309C347.159 92.5497 349.749 99.9274 353.463 106.272C354.937 109.001 356.417 111.728 357.893 114.463C357.98 120.205 358.074 125.945 358.162 131.687C358.256 134.007 358.343 136.33 358.431 138.652C362.318 147.121 367.931 153.009 373.339 159.188C374.985 160.956 376.631 162.724 378.276 164.491C376.632 166.983 376.516 170.322 375.304 173.073C374.476 174.957 372.773 176.138 372.636 178.47C374.861 177.223 376.114 174.114 377.455 172.233C380.571 167.871 385.923 162.326 385.922 156.394C385.923 154.747 386.286 149.093 385.098 147.437C384.587 146.726 383.355 146.443 382.583 146.112C380.244 145.11 377.482 143.161 376.212 140.375L376.261 140.121C380.286 138.899 382.976 136.789 384.068 133.892C381.42 130.537 376.032 127.179 378.375 121.166L379.179 121.062C380.3 121.283 384.317 123.883 385.194 122.965C381.264 117.761 378.485 113.289 382.797 108.367C383.687 107.352 385.004 105.312 386.954 105.302L386.985 105.413C386.912 107.3 387.517 108.252 388.474 109.891C389.209 111.239 389.937 112.583 390.673 113.931L393.553 115.275C397.605 117.019 399.197 118.475 404.644 118.27C408.439 117.492 412.241 116.712 416.034 115.928C416.197 116.562 416.371 116.921 416.739 117.165C417.23 116.728 417.312 116.138 417.475 115.526C424.397 113.463 427.194 115.537 431.948 116.978C434.292 123.044 437.306 127.497 434.777 133.129L434.035 133.455C432.102 132.641 431.239 129.688 429.122 129.099C427.693 129.257 426.271 129.413 424.844 129.578C423.532 130.37 420.048 137.548 419.417 139.204C420.753 140.578 422.091 141.958 423.427 143.332C427.759 147.398 432.368 151.093 437.054 154.566C439.136 156.106 444.332 158.177 445.36 160.837L444.934 161.436C443.11 161.944 441.051 161.851 439.863 162.489C439.836 164.997 439.803 170.472 439.023 172.743L435.875 173.86C434.782 179.452 431.722 183.345 428.955 187.956C425.746 188.757 422.767 187.081 420.114 186.601C417.265 186.088 414.226 186.255 411.205 185.864C409.152 185.483 407.094 185.103 405.042 184.722L405.073 184.834C406.704 186.046 409.029 186.284 411.008 186.879L414.389 188.323C417.337 189.168 420.301 189.521 423.31 190.369C424.699 190.762 427.668 192.781 429.535 191.734C433.24 189.654 435.836 182.158 438.358 178.895C439.83 178.531 441.457 178.104 442.217 177.339C442.437 173.898 442.761 169.228 444.151 166.3C446.246 165.736 452.501 165.319 453.538 164.044C450.413 161.535 447.288 159.026 444.163 156.518C441.996 154.935 438.377 153.357 436.877 150.916C435.574 148.799 438.332 146.19 439.032 144.949C442.051 139.594 444.454 133.991 446.633 128.157C443.828 117.759 440.465 105.098 435.478 97.9883L435.527 97.7346L440.282 96.409L440.251 96.2976L439.936 96.0257C437.917 95.9084 434.937 94.7794 433.241 93.8386C433.172 83.0453 433.106 72.244 433.036 61.4507C433.79 59.4207 435.952 57.4713 437.287 55.7326C440.692 51.2837 444.401 47.8766 448.472 43.6684C451.008 41.0484 453.619 38.0806 456.508 35.702L463.516 30.0487C465.241 27.8477 465.991 25.2055 467.051 22.6236C468.648 19.0784 470.238 15.5288 471.835 11.9836C472.438 10.5824 473.04 9.18124 473.642 7.78004L474.304 7.5956C477.343 19.0011 477.63 30.9072 477 40.3623L476.55 49.434L473.914 54.9421C471.999 60.0491 470.083 65.156 468.168 70.263C467.221 72.6737 464.605 77.156 464.607 79.722L464.75 79.8023C467.986 78.8602 471.222 77.9181 474.458 76.976C477.24 76.6272 483.331 75.5758 486.17 74.071C488.62 72.7682 491.208 70.9134 493.821 69.4318C496.894 67.6886 500.392 66.7535 503.178 64.9167L503.383 65.2197C506.914 69.6618 502.572 81.245 501.35 84.872C499.534 90.1913 497.718 95.5106 495.901 100.824L493.726 107.99C491.914 110.455 487.704 113.521 485.067 115.417C483.899 116.222 482.729 117.022 481.567 117.826C478.379 122.647 475.193 127.475 472.006 132.297L472.13 132.742C473.786 132.467 474.896 133.031 476.18 133.167C478.073 133.119 479.97 133.063 481.863 133.016C487.998 130.785 494.136 128.561 500.272 126.331C504.606 124.163 510.049 122.485 514.372 120.013C516.125 119.011 520.603 116.117 522.683 116.023L522.638 116.029ZM398.6 132.234C400.257 132.605 401.909 132.985 403.565 133.356C405.157 132.659 410.147 129.308 410.92 128.086C409.193 126.794 406.24 125.618 404.119 125.089L398.476 131.788L398.6 132.234ZM402.728 227.465C401.905 226.781 401.35 225.269 400.269 225.051C399.619 226.639 397.259 231.323 397.193 232.828C397.014 236.898 403.535 242.479 405.726 243.335C406.716 242.366 407.096 240.98 407.577 239.719C407.982 238.66 408.888 237.394 408.847 236.146C408.745 233.101 404.213 228.704 402.73 227.471L402.728 227.465ZM418.735 228.849C417.203 227.01 413.652 226.487 410.798 226.889C410.496 227.98 410.906 229.332 411.013 230.649C411.461 236.343 414.69 238.41 418.526 240.481L418.717 240.307C418.808 238.169 420.425 231.132 418.742 228.848L418.735 228.849ZM462.327 224.811L462.519 224.637C462.92 221.272 465.327 217.881 463.266 214.049C461.006 213.28 458.427 211.418 455.706 211.744C455.531 213.819 455.35 215.896 455.178 217.977C455.275 219.043 461.436 224.386 462.327 224.811ZM440.806 224.61C441.505 227.022 445.719 232.147 447.64 232.011C451.313 226.514 452.326 223.599 446.64 217.737C446.022 217.79 445.397 217.844 444.779 217.896C443.365 220.164 441.982 222.209 440.806 224.61ZM498.145 111.171C496.483 112.188 494.816 113.212 493.155 114.235L489.549 115.834C487.328 117.693 483.05 123.052 482.544 125.779L481.586 127.48C482.352 127.553 488.251 125.262 490.125 124.739C493.679 123.789 497.226 122.84 500.78 121.889C504.836 118.892 508.884 115.89 512.94 112.893C514.281 111.319 513.336 102.263 513.244 99.4488C513.208 98.3125 513.497 95.5985 512.56 94.8665C510.021 98.1876 506.965 100.806 504.14 104.013C502.171 106.249 500.663 109.349 498.145 111.171ZM506.712 46.5126L506.6 46.5436C506.33 42.4191 507.999 39.034 507.356 34.287C507.046 32.0066 505.401 29.572 504.477 27.8098C501.766 22.6259 499.51 18.095 496.268 13.7589C494.523 11.3456 492.775 8.92621 491.03 6.51298L490.479 6.6664C489.06 9.12867 487.233 12.7112 487.328 15.8978C487.407 18.5956 487.805 20.6446 487.554 23.1145C487.017 28.2437 485.46 33.5577 484.46 38.5295C484.229 40.2604 483.994 41.9992 483.766 43.7362C481.67 51.8534 477.658 59.0248 475.251 67.102C474.643 68.6249 474.034 70.1478 473.424 71.6645L473.263 71.9492C475.406 72.8453 485.121 67.7971 487.721 66.4856C494.418 63.1122 501.654 59.9751 507.654 56.2761C508.534 55.8708 509.414 55.4655 510.294 55.0602C510.423 54.6641 510.555 54.2742 510.678 53.8798C513.287 49.9461 515.296 45.5595 515.892 40.5003C515.063 39.2715 507.611 45.6285 506.72 46.517L506.712 46.5126Z" fill="white"/>
</g>
</g>
<defs>
<filter id="filter0_f_1006_132817" x="-59" y="138" width="709" height="204" filterUnits="userSpaceOnUse" color-interpolation-filters="sRGB">
<feFlood flood-opacity="0" result="BackgroundImageFix"/>
<feBlend mode="normal" in="SourceGraphic" in2="BackgroundImageFix" result="shape"/>
<feGaussianBlur stdDeviation="18" result="effect1_foregroundBlur_1006_132817"/>
</filter>
<linearGradient id="paint0_linear_1006_132817" x1="286.761" y1="4.29101" x2="284.551" y2="281.758" gradientUnits="userSpaceOnUse">
<stop stop-color="#1A1A1A"/>
<stop offset="1" stop-color="#101010"/>
</linearGradient>
<linearGradient id="paint1_linear_1006_132817" x1="295.5" y1="174" x2="295.5" y2="259.97" gradientUnits="userSpaceOnUse">
<stop stop-opacity="0"/>
<stop offset="1"/>
</linearGradient>
<linearGradient id="paint2_linear_1006_132817" x1="149.264" y1="109.529" x2="499.094" y2="269.626" gradientUnits="userSpaceOnUse">
<stop stop-opacity="0.4"/>
<stop offset="1" stop-opacity="0"/>
</linearGradient>
</defs>
</svg>
