<svg preserveAspectRatio="none" viewBox="0 0 566 290" fill="none" xmlns="http://www.w3.org/2000/svg">
<mask id="mask0_1006_132811" style="mask-type:alpha" maskUnits="userSpaceOnUse" x="0" y="0" width="566" height="290">
<path d="M3.38566 3.18615L10.7726 1.04041L29.2398 0.682782L72.9456 4.97394C78.2122 3.08094 91.0949 -0.149357 141.274 1.04041L160.973 7.11977L169.283 3.90115L282.549 1.04041L322.561 0.682782L344.722 1.75565L399.816 1.57684L446.842 5.00617L454.909 1.39803L487.464 3.21825L542.53 0C542.53 0 561.486 1.39799 563.292 3.21825C565.097 5.03851 566 18.2367 566 18.2367L563.894 63.2922L564.195 83.5811C561.787 86.8927 561.18 87.4356 561.486 90.4686C561.758 95.3651 562.314 97.6115 564.495 103.87L565.097 144.448L564.195 208.113L565.097 216.151C563.417 239.428 563.543 252.42 565.398 275.697L564.796 284.994L559.079 287.497L553.061 288.212L504.216 288.033C498.489 284.118 492.573 284.679 479.794 287.944L455.371 287.855L437.815 290L388.768 285.709L345.645 287.855H297.476L291.782 285.351L262.235 287.855H191.751L133.58 286.424L120.96 287.855L101.57 285.351L96.6452 287.855H72.33L37.8578 287.139L7.69468 287.855L0.923362 284.994L0 277.484V260.854C2.31195 256.581 2.12846 252.758 0 244.225V210.966L3.07787 148.381L0.903192 122.07L1.80638 96.1047L0 53.2535L2.15451 47.8891L0 38.2333V11.0539L3.38566 3.18615Z" fill="url(#paint0_linear_1006_132811)"/>
<path d="M3.38566 3.18615L10.7726 1.04041L29.2398 0.682782L72.9456 4.97394C78.2122 3.08094 91.0949 -0.149357 141.274 1.04041L160.973 7.11977L169.283 3.90115L282.549 1.04041L322.561 0.682782L344.722 1.75565L399.816 1.57684L446.842 5.00617L454.909 1.39803L487.464 3.21825L542.53 0C542.53 0 561.486 1.39799 563.292 3.21825C565.097 5.03851 566 18.2367 566 18.2367L563.894 63.2922L564.195 83.5811C561.787 86.8927 561.18 87.4356 561.486 90.4686C561.758 95.3651 562.314 97.6115 564.495 103.87L565.097 144.448L564.195 208.113L565.097 216.151C563.417 239.428 563.543 252.42 565.398 275.697L564.796 284.994L559.079 287.497L553.061 288.212L504.216 288.033C498.489 284.118 492.573 284.679 479.794 287.944L455.371 287.855L437.815 290L388.768 285.709L345.645 287.855H297.476L291.782 285.351L262.235 287.855H191.751L133.58 286.424L120.96 287.855L101.57 285.351L96.6452 287.855H72.33L37.8578 287.139L7.69468 287.855L0.923362 284.994L0 277.484V260.854C2.31195 256.581 2.12846 252.758 0 244.225V210.966L3.07787 148.381L0.903192 122.07L1.80638 96.1047L0 53.2535L2.15451 47.8891L0 38.2333V11.0539L3.38566 3.18615Z" fill="#FF0000"/>
</mask>
<g mask="url(#mask0_1006_132811)">
<rect opacity="0.95" width="572" height="310" fill="#4E242B"/>
<g filter="url(#filter0_f_1006_132811)">
<path d="M-15.6863 208.027L-22.9997 272.978L-23 297.876C31.0089 297.515 139.927 296.144 143.527 293.546C148.028 290.298 470.956 302.206 566.597 305.453C643.11 308.051 610.104 300.762 584.037 296.793L587.413 210.192L573.911 196.12C568.097 196.481 555.795 197.635 553.095 199.367C549.719 201.532 549.157 209.11 536.78 198.285C524.403 187.46 520.464 201.532 509.213 186.377C497.961 171.222 497.961 201.532 495.148 201.532C492.335 201.532 455.204 208.027 442.264 208.027C429.324 208.027 407.946 193.955 394.444 177.717C380.941 161.48 360.688 203.697 342.685 203.697C324.682 203.697 324.682 210.193 302.741 208.028C280.8 205.863 275.737 185.295 257.734 189.625C239.731 193.955 230.729 216.688 224.541 225.348C218.352 234.008 187.41 223.183 164.906 218.853C142.402 214.523 145.778 226.43 130.025 210.193C114.273 193.955 109.772 195.037 97.3948 193.955C85.0178 192.872 74.3285 205.862 63.0767 212.358C51.8248 218.853 27.6333 223.183 17.5067 219.935C9.40533 217.337 2.12914 208.027 -0.496296 203.697L-15.6863 208.027Z" fill="url(#paint1_linear_1006_132811)" fill-opacity="0.3"/>
</g>
<rect width="572" height="310" fill="url(#paint2_linear_1006_132811)"/>
<g opacity="0.04">
<path fill-rule="evenodd" clip-rule="evenodd" d="M349.299 86.3428L349.299 86.3428C346.583 84.3301 343.771 82.2456 343.417 80.975C343.148 80.0095 342.347 78.3665 341.494 76.6141L341.494 76.614C340.142 73.8382 338.657 70.788 338.936 69.7212C339.392 67.9808 343.285 57.3504 346.193 53.3133C349.101 49.2762 352.538 40.3861 352.321 38.1611C352.104 35.9362 348.96 24.176 348.308 23.2823C347.656 22.3887 336.139 12.4247 335.69 13.2223C335.33 13.8604 335.03 17.1252 334.925 18.6779L333.85 25.4307C331.456 27.9353 326.381 33.2666 325.235 34.5542C323.801 36.1637 310.664 51.2532 311.374 54.2818C311.942 56.7047 315.085 64.54 316.586 68.1548L310.509 69.9834C311.444 72.053 313.435 76.2393 313.917 76.4274C314.4 76.6155 317.482 80.8561 318.963 82.9528L331.986 88.1954C333.974 89.7025 338.29 92.6761 339.643 92.514C340.996 92.352 347.115 91.5067 350.005 91.1043L354.124 92.376L354.594 91.1688C354.443 90.1552 351.916 88.2823 349.299 86.3428ZM384.945 174.806C384.756 172.774 384.576 170.835 384.85 169.582C385.159 168.168 385.886 166.181 386.625 164.161C387.785 160.99 388.976 157.735 388.627 156.483C388.17 154.844 386.025 145.23 385.01 140.628L392.39 128.934L393.96 124.482C395.711 122.12 399.394 117.185 400.122 116.34C400.85 115.494 401.097 110.714 401.129 108.43L412.568 97.6117L425.547 82.9522L432.451 70.9901C432.991 69.5681 433.917 66.1654 433.293 63.93C432.67 61.6945 427.88 57.4749 425.563 55.6445L402.102 39.9002C401.705 39.6762 400.766 39.4291 400.187 40.2329C399.608 41.0368 401.198 44.0999 402.066 45.531C403.601 49.1182 406.732 56.7978 406.974 58.8182C407.216 60.8387 404.376 66.3015 402.925 68.7804C401.504 69.4442 398.59 70.511 398.299 69.4678C398.076 68.6685 397.056 67.7143 395.953 66.6833C395.257 66.0323 394.528 65.3507 393.947 64.6582C392.744 63.2266 382.158 59.5793 377.015 57.9346L371.479 59.6788L368.674 49.6194L362.136 42.0065L360.273 42.5252L357.714 52.0713L351.678 73.6292C351.775 74.9404 352.151 77.633 352.872 77.9139C353.592 78.1948 356.204 80.2641 357.419 81.2637C361.753 84.8069 370.918 92.2366 372.907 93.6096C374.895 94.9825 376.494 100.238 377.045 102.695L378.108 110.83L371.321 125.37C369.274 132.432 365.268 147.013 365.618 148.843C365.967 150.673 368.27 159.078 369.378 163.052L377.963 178.728L383.062 183.33C385.692 182.86 385.303 178.665 384.945 174.806ZM477.755 278.666C475.074 279.102 474.042 276.978 473.86 275.861C471.009 273.543 464.154 268.683 459.547 267.788C454.94 266.894 446.552 265.834 442.934 265.416L441.023 258.555C439.156 257.908 435.87 257.77 433.015 259.811C431.189 261.116 427.764 262.039 425.118 262.752C423.626 263.154 422.382 263.489 421.811 263.789C417.005 258.644 405.455 248.471 396.497 245.366C393.027 244.163 390.049 243.115 387.503 242.219C381.832 240.223 378.308 238.983 376.286 238.473C373.357 237.733 350.238 230.172 347.686 226.603C345.646 223.748 340.325 213.222 337.92 208.316L334.547 204.587C334.144 203.143 333.074 199.862 332.013 198.291C330.687 196.326 323.871 185.1 322.344 182.413C321.77 181.402 321.33 180.256 320.82 178.924C320.245 177.425 319.58 175.69 318.531 173.647C319.816 168.49 322.948 157.397 325.192 154.281C327.436 151.166 329.078 147.752 329.619 146.434L334.832 144.202L333.927 140.952L350.302 124.326L358.279 116.655C360.54 117.321 365.163 119.016 365.565 120.46C366.068 122.265 361.429 139.121 359.666 141.169C357.902 143.217 351.185 147.035 349.279 147.177C347.755 147.291 341.207 145.666 338.123 144.84L337.845 148.03C341.351 149.906 348.194 154.171 347.522 156.226C346.85 158.281 341.861 166.624 339.45 170.538C341.094 176.434 345.166 183.918 347.718 188.166C349.731 191.517 355.264 198.423 357.072 200.253L359.463 204.645C365.944 205.561 379.439 207.636 381.575 208.597C383.71 209.558 390.494 216.512 392.497 219.974L434.287 241.369L433.167 223.395L442.742 207.497L445.505 202.058L450.518 199.105L458.093 189.99L463.266 186.213L465.686 178.146C469.992 170.332 478.568 154.012 478.421 151.252C478.237 147.801 475.779 120.128 473.21 119.288C472.896 119.185 472.389 119.015 471.733 118.795C468.092 117.574 459.87 114.816 454.673 113.517L451.636 105.415C450.976 106.767 449.177 109.992 447.269 112.08C445.361 114.168 441.956 116.284 440.493 117.081L426.609 167.5C426.609 167.5 412.621 151.137 410.325 149.599C408.028 148.06 398.238 145.605 392.994 144.473L390.997 139.976L394.829 131.329L402.628 129.452L412.175 137.045L416.015 136.744L424.877 115.968L424.536 108.69L429.407 103.831L437.135 86.8915C442.525 86.6859 454.412 86.8997 458.844 89.3994C461.508 90.9022 463.445 92.698 464.989 94.1303C466.655 95.6761 467.865 96.7985 469.042 96.6725C470.855 96.4782 475.87 96.9738 478.151 97.2459C482.44 100.071 491.251 106.278 492.184 108.508C493.117 110.738 495.024 124.502 493.209 125.454C492.009 126.083 487.73 120.223 484.745 116.134C483.214 114.037 482.023 112.406 481.762 112.355C481.285 112.263 483.189 115.503 485.36 119.2C487.565 122.954 490.046 127.177 490.591 128.858C491.457 131.528 494.022 143.948 494.571 149.001C497.17 152.522 500.243 163.979 500.278 165.721C500.312 167.463 496.261 170.53 494.63 170.48L489.542 181.602L481.899 184.642L469.228 205.005L468.147 210.916L457.582 225.233L457.317 235.163L463.156 250.669L469.156 262.946L475.264 273.979L477.755 278.666Z" fill="url(#paint3_radial_1006_132811)"/>
<path fill-rule="evenodd" clip-rule="evenodd" d="M349.299 86.3428L349.299 86.3428C346.583 84.3301 343.771 82.2456 343.417 80.975C343.148 80.0095 342.347 78.3665 341.494 76.6141L341.494 76.614C340.142 73.8382 338.657 70.788 338.936 69.7212C339.392 67.9808 343.285 57.3504 346.193 53.3133C349.101 49.2762 352.538 40.3861 352.321 38.1611C352.104 35.9362 348.96 24.176 348.308 23.2823C347.656 22.3887 336.139 12.4247 335.69 13.2223C335.33 13.8604 335.03 17.1252 334.925 18.6779L333.85 25.4307C331.456 27.9353 326.381 33.2666 325.235 34.5542C323.801 36.1637 310.664 51.2532 311.374 54.2818C311.942 56.7047 315.085 64.54 316.586 68.1548L310.509 69.9834C311.444 72.053 313.435 76.2393 313.917 76.4274C314.4 76.6155 317.482 80.8561 318.963 82.9528L331.986 88.1954C333.974 89.7025 338.29 92.6761 339.643 92.514C340.996 92.352 347.115 91.5067 350.005 91.1043L354.124 92.376L354.594 91.1688C354.443 90.1552 351.916 88.2823 349.299 86.3428ZM384.945 174.806C384.756 172.774 384.576 170.835 384.85 169.582C385.159 168.168 385.886 166.181 386.625 164.161C387.785 160.99 388.976 157.735 388.627 156.483C388.17 154.844 386.025 145.23 385.01 140.628L392.39 128.934L393.96 124.482C395.711 122.12 399.394 117.185 400.122 116.34C400.85 115.494 401.097 110.714 401.129 108.43L412.568 97.6117L425.547 82.9522L432.451 70.9901C432.991 69.5681 433.917 66.1654 433.293 63.93C432.67 61.6945 427.88 57.4749 425.563 55.6445L402.102 39.9002C401.705 39.6762 400.766 39.4291 400.187 40.2329C399.608 41.0368 401.198 44.0999 402.066 45.531C403.601 49.1182 406.732 56.7978 406.974 58.8182C407.216 60.8387 404.376 66.3015 402.925 68.7804C401.504 69.4442 398.59 70.511 398.299 69.4678C398.076 68.6685 397.056 67.7143 395.953 66.6833C395.257 66.0323 394.528 65.3507 393.947 64.6582C392.744 63.2266 382.158 59.5793 377.015 57.9346L371.479 59.6788L368.674 49.6194L362.136 42.0065L360.273 42.5252L357.714 52.0713L351.678 73.6292C351.775 74.9404 352.151 77.633 352.872 77.9139C353.592 78.1948 356.204 80.2641 357.419 81.2637C361.753 84.8069 370.918 92.2366 372.907 93.6096C374.895 94.9825 376.494 100.238 377.045 102.695L378.108 110.83L371.321 125.37C369.274 132.432 365.268 147.013 365.618 148.843C365.967 150.673 368.27 159.078 369.378 163.052L377.963 178.728L383.062 183.33C385.692 182.86 385.303 178.665 384.945 174.806ZM477.755 278.666C475.074 279.102 474.042 276.978 473.86 275.861C471.009 273.543 464.154 268.683 459.547 267.788C454.94 266.894 446.552 265.834 442.934 265.416L441.023 258.555C439.156 257.908 435.87 257.77 433.015 259.811C431.189 261.116 427.764 262.039 425.118 262.752C423.626 263.154 422.382 263.489 421.811 263.789C417.005 258.644 405.455 248.471 396.497 245.366C393.027 244.163 390.049 243.115 387.503 242.219C381.832 240.223 378.308 238.983 376.286 238.473C373.357 237.733 350.238 230.172 347.686 226.603C345.646 223.748 340.325 213.222 337.92 208.316L334.547 204.587C334.144 203.143 333.074 199.862 332.013 198.291C330.687 196.326 323.871 185.1 322.344 182.413C321.77 181.402 321.33 180.256 320.82 178.924C320.245 177.425 319.58 175.69 318.531 173.647C319.816 168.49 322.948 157.397 325.192 154.281C327.436 151.166 329.078 147.752 329.619 146.434L334.832 144.202L333.927 140.952L350.302 124.326L358.279 116.655C360.54 117.321 365.163 119.016 365.565 120.46C366.068 122.265 361.429 139.121 359.666 141.169C357.902 143.217 351.185 147.035 349.279 147.177C347.755 147.291 341.207 145.666 338.123 144.84L337.845 148.03C341.351 149.906 348.194 154.171 347.522 156.226C346.85 158.281 341.861 166.624 339.45 170.538C341.094 176.434 345.166 183.918 347.718 188.166C349.731 191.517 355.264 198.423 357.072 200.253L359.463 204.645C365.944 205.561 379.439 207.636 381.575 208.597C383.71 209.558 390.494 216.512 392.497 219.974L434.287 241.369L433.167 223.395L442.742 207.497L445.505 202.058L450.518 199.105L458.093 189.99L463.266 186.213L465.686 178.146C469.992 170.332 478.568 154.012 478.421 151.252C478.237 147.801 475.779 120.128 473.21 119.288C472.896 119.185 472.389 119.015 471.733 118.795C468.092 117.574 459.87 114.816 454.673 113.517L451.636 105.415C450.976 106.767 449.177 109.992 447.269 112.08C445.361 114.168 441.956 116.284 440.493 117.081L426.609 167.5C426.609 167.5 412.621 151.137 410.325 149.599C408.028 148.06 398.238 145.605 392.994 144.473L390.997 139.976L394.829 131.329L402.628 129.452L412.175 137.045L416.015 136.744L424.877 115.968L424.536 108.69L429.407 103.831L437.135 86.8915C442.525 86.6859 454.412 86.8997 458.844 89.3994C461.508 90.9022 463.445 92.698 464.989 94.1303C466.655 95.6761 467.865 96.7985 469.042 96.6725C470.855 96.4782 475.87 96.9738 478.151 97.2459C482.44 100.071 491.251 106.278 492.184 108.508C493.117 110.738 495.024 124.502 493.209 125.454C492.009 126.083 487.73 120.223 484.745 116.134C483.214 114.037 482.023 112.406 481.762 112.355C481.285 112.263 483.189 115.503 485.36 119.2C487.565 122.954 490.046 127.177 490.591 128.858C491.457 131.528 494.022 143.948 494.571 149.001C497.17 152.522 500.243 163.979 500.278 165.721C500.312 167.463 496.261 170.53 494.63 170.48L489.542 181.602L481.899 184.642L469.228 205.005L468.147 210.916L457.582 225.233L457.317 235.163L463.156 250.669L469.156 262.946L475.264 273.979L477.755 278.666Z" fill="white"/>
</g>
</g>
<defs>
<filter id="filter0_f_1006_132811" x="-59" y="138" width="709" height="204" filterUnits="userSpaceOnUse" color-interpolation-filters="sRGB">
<feFlood flood-opacity="0" result="BackgroundImageFix"/>
<feBlend mode="normal" in="SourceGraphic" in2="BackgroundImageFix" result="shape"/>
<feGaussianBlur stdDeviation="18" result="effect1_foregroundBlur_1006_132811"/>
</filter>
<linearGradient id="paint0_linear_1006_132811" x1="286.761" y1="4.29101" x2="284.551" y2="281.758" gradientUnits="userSpaceOnUse">
<stop stop-color="#1A1A1A"/>
<stop offset="1" stop-color="#101010"/>
</linearGradient>
<linearGradient id="paint1_linear_1006_132811" x1="295.5" y1="174" x2="295.5" y2="259.97" gradientUnits="userSpaceOnUse">
<stop stop-opacity="0"/>
<stop offset="1"/>
</linearGradient>
<linearGradient id="paint2_linear_1006_132811" x1="149.264" y1="109.529" x2="499.094" y2="269.626" gradientUnits="userSpaceOnUse">
<stop stop-opacity="0.4"/>
<stop offset="1" stop-opacity="0"/>
</linearGradient>
<radialGradient id="paint3_radial_1006_132811" cx="0" cy="0" r="1" gradientUnits="userSpaceOnUse" gradientTransform="translate(374.126 28.9828) rotate(74.4236) scale(268.34 253.472)">
<stop stop-color="#F3B146"/>
<stop offset="0.128906" stop-color="#FFE0A9"/>
<stop offset="0.386508" stop-color="#FFB72E"/>
<stop offset="0.661063" stop-color="#D72749"/>
<stop offset="1" stop-color="#C02044"/>
</radialGradient>
</defs>
</svg>
