<svg preserveAspectRatio="none" viewBox="0 0 566 290" fill="none" xmlns="http://www.w3.org/2000/svg">
<mask id="mask0_1006_132823" style="mask-type:alpha" maskUnits="userSpaceOnUse" x="0" y="0" width="566" height="290">
<path d="M3.38566 3.18615L10.7726 1.04041L29.2398 0.682782L72.9456 4.97394C78.2122 3.08094 91.0949 -0.149357 141.274 1.04041L160.973 7.11977L169.283 3.90115L282.549 1.04041L322.561 0.682782L344.722 1.75565L399.816 1.57684L446.842 5.00617L454.909 1.39803L487.464 3.21825L542.53 0C542.53 0 561.486 1.39799 563.292 3.21825C565.097 5.03851 566 18.2367 566 18.2367L563.894 63.2922L564.195 83.5811C561.787 86.8927 561.18 87.4356 561.486 90.4686C561.758 95.3651 562.314 97.6115 564.495 103.87L565.097 144.448L564.195 208.113L565.097 216.151C563.417 239.428 563.543 252.42 565.398 275.697L564.796 284.994L559.079 287.497L553.061 288.212L504.216 288.033C498.489 284.118 492.573 284.679 479.794 287.944L455.371 287.855L437.815 290L388.768 285.709L345.645 287.855H297.476L291.782 285.351L262.235 287.855H191.751L133.58 286.424L120.96 287.855L101.57 285.351L96.6452 287.855H72.33L37.8578 287.139L7.69468 287.855L0.923362 284.994L0 277.484V260.854C2.31195 256.581 2.12846 252.758 0 244.225V210.966L3.07787 148.381L0.903192 122.07L1.80638 96.1047L0 53.2535L2.15451 47.8891L0 38.2333V11.0539L3.38566 3.18615Z" fill="url(#paint0_linear_1006_132823)"/>
<path d="M3.38566 3.18615L10.7726 1.04041L29.2398 0.682782L72.9456 4.97394C78.2122 3.08094 91.0949 -0.149357 141.274 1.04041L160.973 7.11977L169.283 3.90115L282.549 1.04041L322.561 0.682782L344.722 1.75565L399.816 1.57684L446.842 5.00617L454.909 1.39803L487.464 3.21825L542.53 0C542.53 0 561.486 1.39799 563.292 3.21825C565.097 5.03851 566 18.2367 566 18.2367L563.894 63.2922L564.195 83.5811C561.787 86.8927 561.18 87.4356 561.486 90.4686C561.758 95.3651 562.314 97.6115 564.495 103.87L565.097 144.448L564.195 208.113L565.097 216.151C563.417 239.428 563.543 252.42 565.398 275.697L564.796 284.994L559.079 287.497L553.061 288.212L504.216 288.033C498.489 284.118 492.573 284.679 479.794 287.944L455.371 287.855L437.815 290L388.768 285.709L345.645 287.855H297.476L291.782 285.351L262.235 287.855H191.751L133.58 286.424L120.96 287.855L101.57 285.351L96.6452 287.855H72.33L37.8578 287.139L7.69468 287.855L0.923362 284.994L0 277.484V260.854C2.31195 256.581 2.12846 252.758 0 244.225V210.966L3.07787 148.381L0.903192 122.07L1.80638 96.1047L0 53.2535L2.15451 47.8891L0 38.2333V11.0539L3.38566 3.18615Z" fill="#FF0000"/>
</mask>
<g mask="url(#mask0_1006_132823)">
<rect opacity="0.95" width="572" height="310" fill="#685C1D"/>
<g filter="url(#filter0_f_1006_132823)">
<path d="M-15.6863 208.027L-22.9997 272.978L-23 297.876C31.0089 297.515 139.927 296.144 143.527 293.546C148.028 290.298 470.956 302.206 566.597 305.453C643.11 308.051 610.104 300.762 584.037 296.793L587.413 210.192L573.911 196.12C568.097 196.481 555.795 197.635 553.095 199.367C549.719 201.532 549.157 209.11 536.78 198.285C524.403 187.46 520.464 201.532 509.213 186.377C497.961 171.222 497.961 201.532 495.148 201.532C492.335 201.532 455.204 208.027 442.264 208.027C429.324 208.027 407.946 193.955 394.444 177.717C380.941 161.48 360.688 203.697 342.685 203.697C324.682 203.697 324.682 210.193 302.741 208.028C280.8 205.863 275.737 185.295 257.734 189.625C239.731 193.955 230.729 216.688 224.541 225.348C218.352 234.008 187.41 223.183 164.906 218.853C142.402 214.523 145.778 226.43 130.025 210.193C114.273 193.955 109.772 195.037 97.3948 193.955C85.0178 192.872 74.3285 205.862 63.0767 212.358C51.8248 218.853 27.6333 223.183 17.5067 219.935C9.40533 217.337 2.12914 208.027 -0.496296 203.697L-15.6863 208.027Z" fill="url(#paint1_linear_1006_132823)" fill-opacity="0.3"/>
</g>
<rect width="572" height="310" fill="url(#paint2_linear_1006_132823)"/>
<g opacity="0.04">
<g clip-path="url(#clip0_1006_132823)">
<path fill-rule="evenodd" clip-rule="evenodd" d="M522.454 32.0118C521.606 29.6852 521.46 27.7287 517.938 26.0808C498.71 17.1609 484.293 4.60324 466.376 -4.14961C460.418 -7.01574 445.176 -12.6198 439.186 -13.8125C432.985 -4.89402 427.673 9.00271 422.13 17.5378L423.956 19.1925L428.712 20.7295L439.898 24.801L448.248 27.5329C449.717 25.7586 451.097 24.1423 452.291 22.8111C461.489 27.8695 486.466 38.5487 495.562 43.8355C494.309 49.6104 483.142 58.3822 480.967 63.7151C478.77 69.0874 469.69 79.9736 466.751 84.9536C460.926 82.6829 446.826 79.0242 441.321 76.2315C435.935 73.5055 430.197 62.3562 425.056 59.1958C428.397 53.2715 434.946 44.2893 441.256 36.2392L430.589 27.4627L418.163 21.573C407.602 38.1313 400.235 53.7325 391.463 72.8877C395.755 77.1833 401.102 83.9478 406.805 86.8519C420.403 93.8459 434.339 103.242 447.942 110.369C451.018 111.974 464.301 146.251 465.192 151.595C465.421 152.896 464.223 155.76 464.414 156.805C464.661 158.167 467.216 160.051 466.176 161.573C460.254 165.521 441.488 169.72 441.488 169.72L442.39 178.09C442.39 178.09 442.896 181.577 444.62 186.089C451.193 186.387 467.033 178.976 473.295 179.827C474.747 182.052 478.042 202.47 477.044 204.379C469.183 207.103 453.552 207.266 439.883 210.411C430.343 212.604 421.312 215.188 415.856 217.109C416.105 218.837 418.668 225.645 421.491 227.055C427.387 229.938 436.563 229.544 437.063 231.335C437.803 233.992 427.413 237.554 424.623 243.424C423.681 245.418 426.142 248.992 426.483 250.096C433.238 250.21 451.349 242.465 458.139 239.84C467.415 236.222 477.383 231.746 484.234 235.428C484.657 237.541 487.295 246.525 486.256 247.813C480.375 250.717 454.767 255.326 448.887 258.23C450.158 265.299 460.35 274.041 462.256 280.4C467.341 280.015 469.461 276.994 474.866 275.487C482.772 273.283 486.815 271.79 494.87 268.446C501.878 265.527 515.074 271.435 520.757 268.42C523.426 267.01 529.043 259.22 527.483 256.492C517.521 221.589 508.525 183.587 497.994 148.676C497.994 148.676 493.454 147.312 491.755 146.354C490.057 145.396 489.406 140.551 489.406 140.551L494.821 138.01C491.854 127.486 489.483 116.83 486.066 106.365C485.302 103.982 494.281 98.5826 494.267 96.0236C494.255 94.4291 496.635 90.6699 498.039 88.1817C502.538 80.2036 506.601 68.1531 506.601 68.1531L501.467 65.257C501.467 65.257 494.754 59.206 496.211 56.6697C497.658 54.1025 505.537 54.0698 505.537 54.0698L512.578 53.5383C512.578 53.5383 515.749 49.3922 517.286 46.6671C520.093 41.6906 524.159 36.6959 522.454 32.0118Z" fill="white"/>
</g>
</g>
</g>
<defs>
<filter id="filter0_f_1006_132823" x="-59" y="138" width="709" height="204" filterUnits="userSpaceOnUse" color-interpolation-filters="sRGB">
<feFlood flood-opacity="0" result="BackgroundImageFix"/>
<feBlend mode="normal" in="SourceGraphic" in2="BackgroundImageFix" result="shape"/>
<feGaussianBlur stdDeviation="18" result="effect1_foregroundBlur_1006_132823"/>
</filter>
<linearGradient id="paint0_linear_1006_132823" x1="286.761" y1="4.29101" x2="284.551" y2="281.758" gradientUnits="userSpaceOnUse">
<stop stop-color="#1A1A1A"/>
<stop offset="1" stop-color="#101010"/>
</linearGradient>
<linearGradient id="paint1_linear_1006_132823" x1="295.5" y1="174" x2="295.5" y2="259.97" gradientUnits="userSpaceOnUse">
<stop stop-opacity="0"/>
<stop offset="1"/>
</linearGradient>
<linearGradient id="paint2_linear_1006_132823" x1="149.264" y1="109.529" x2="499.094" y2="269.626" gradientUnits="userSpaceOnUse">
<stop stop-opacity="0.4"/>
<stop offset="1" stop-opacity="0"/>
</linearGradient>
<clipPath id="clip0_1006_132823">
<rect width="152.45" height="293.867" fill="white" transform="translate(357.746 8.88965) rotate(-15.5764)"/>
</clipPath>
</defs>
</svg>
