<svg preserveAspectRatio="none" viewBox="0 0 566 290" fill="none" xmlns="http://www.w3.org/2000/svg">
<mask id="mask0_1006_132805" style="mask-type:alpha" maskUnits="userSpaceOnUse" x="0" y="0" width="566" height="290">
<path d="M3.38566 3.18615L10.7726 1.04041L29.2398 0.682782L72.9456 4.97394C78.2122 3.08094 91.0949 -0.149357 141.274 1.04041L160.973 7.11977L169.283 3.90115L282.549 1.04041L322.561 0.682782L344.722 1.75565L399.816 1.57684L446.842 5.00617L454.909 1.39803L487.464 3.21825L542.53 0C542.53 0 561.486 1.39799 563.292 3.21825C565.097 5.03851 566 18.2367 566 18.2367L563.894 63.2922L564.195 83.5811C561.787 86.8927 561.18 87.4356 561.486 90.4686C561.758 95.3651 562.314 97.6115 564.495 103.87L565.097 144.448L564.195 208.113L565.097 216.151C563.417 239.428 563.543 252.42 565.398 275.697L564.796 284.994L559.079 287.497L553.061 288.212L504.216 288.033C498.489 284.118 492.573 284.679 479.794 287.944L455.371 287.855L437.815 290L388.768 285.709L345.645 287.855H297.476L291.782 285.351L262.235 287.855H191.751L133.58 286.424L120.96 287.855L101.57 285.351L96.6452 287.855H72.33L37.8578 287.139L7.69468 287.855L0.923362 284.994L0 277.484V260.854C2.31195 256.581 2.12846 252.758 0 244.225V210.966L3.07787 148.381L0.903192 122.07L1.80638 96.1047L0 53.2535L2.15451 47.8891L0 38.2333V11.0539L3.38566 3.18615Z" fill="url(#paint0_linear_1006_132805)"/>
<path d="M3.38566 3.18615L10.7726 1.04041L29.2398 0.682782L72.9456 4.97394C78.2122 3.08094 91.0949 -0.149357 141.274 1.04041L160.973 7.11977L169.283 3.90115L282.549 1.04041L322.561 0.682782L344.722 1.75565L399.816 1.57684L446.842 5.00617L454.909 1.39803L487.464 3.21825L542.53 0C542.53 0 561.486 1.39799 563.292 3.21825C565.097 5.03851 566 18.2367 566 18.2367L563.894 63.2922L564.195 83.5811C561.787 86.8927 561.18 87.4356 561.486 90.4686C561.758 95.3651 562.314 97.6115 564.495 103.87L565.097 144.448L564.195 208.113L565.097 216.151C563.417 239.428 563.543 252.42 565.398 275.697L564.796 284.994L559.079 287.497L553.061 288.212L504.216 288.033C498.489 284.118 492.573 284.679 479.794 287.944L455.371 287.855L437.815 290L388.768 285.709L345.645 287.855H297.476L291.782 285.351L262.235 287.855H191.751L133.58 286.424L120.96 287.855L101.57 285.351L96.6452 287.855H72.33L37.8578 287.139L7.69468 287.855L0.923362 284.994L0 277.484V260.854C2.31195 256.581 2.12846 252.758 0 244.225V210.966L3.07787 148.381L0.903192 122.07L1.80638 96.1047L0 53.2535L2.15451 47.8891L0 38.2333V11.0539L3.38566 3.18615Z" fill="#FF0000"/>
</mask>
<g mask="url(#mask0_1006_132805)">
<rect opacity="0.95" width="572" height="310" fill="#4E242B"/>
<g filter="url(#filter0_f_1006_132805)">
<path d="M-15.6863 208.027L-22.9997 272.978L-23 297.876C31.0089 297.515 139.927 296.144 143.527 293.546C148.028 290.298 470.956 302.206 566.597 305.453C643.11 308.051 610.104 300.762 584.037 296.793L587.413 210.192L573.911 196.12C568.097 196.481 555.795 197.635 553.095 199.367C549.719 201.532 549.157 209.11 536.78 198.285C524.403 187.46 520.464 201.532 509.213 186.377C497.961 171.222 497.961 201.532 495.148 201.532C492.335 201.532 455.204 208.027 442.264 208.027C429.324 208.027 407.946 193.955 394.444 177.717C380.941 161.48 360.688 203.697 342.685 203.697C324.682 203.697 324.682 210.193 302.741 208.028C280.8 205.863 275.737 185.295 257.734 189.625C239.731 193.955 230.729 216.688 224.541 225.348C218.352 234.008 187.41 223.183 164.906 218.853C142.402 214.523 145.778 226.43 130.025 210.193C114.273 193.955 109.772 195.037 97.3948 193.955C85.0178 192.872 74.3285 205.862 63.0767 212.358C51.8248 218.853 27.6333 223.183 17.5067 219.935C9.40533 217.337 2.12914 208.027 -0.496296 203.697L-15.6863 208.027Z" fill="url(#paint1_linear_1006_132805)" fill-opacity="0.3"/>
</g>
<rect width="572" height="310" fill="url(#paint2_linear_1006_132805)"/>
<g opacity="0.04">
<path d="M391.836 7.11052C396.632 7.84372 401.417 8.59538 406.216 9.28123C413.027 10.2622 419.821 11.2945 426.645 12.1005C429.543 12.4446 431.994 13.7538 434.338 15.1859C442.009 19.8652 449.982 23.8998 458.229 27.4068C460.646 28.4295 461.742 29.7896 461.23 32.5318C460.779 34.9921 460.87 37.5507 460.603 40.0534C460.435 41.5167 460.947 41.903 462.355 41.9306C466.112 42.0043 469.87 42.3106 473.62 42.4172C474.782 42.4514 475.539 42.8785 476.165 43.8402C477.223 45.4597 478.507 46.9385 479.458 48.619C480.833 51.0376 482.784 52.5639 485.295 53.7005C490.51 56.0449 495.504 58.8864 500.792 60.9923C506.024 63.0671 511.498 64.4987 516.889 66.1399C520.906 67.3706 524.97 68.4945 529.121 69.7035C526.639 75.0959 524.232 80.4209 521.729 85.6793C521.506 86.1618 520.7 86.6201 520.137 86.6679C507.031 87.5041 493.912 88.297 480.807 89.0241C480.102 89.0649 479.176 88.5914 478.642 88.071C472.913 82.5392 467.24 76.9295 461.525 71.3936C460.991 70.8732 460.573 69.6513 459.325 70.5906C459.182 70.6927 458.323 70.0137 457.918 69.5662C451.846 62.9159 445.81 56.2246 439.717 49.6112C439.023 48.855 438.012 48.1874 437.03 47.9009C424.652 44.3158 412.237 40.8191 399.842 37.2853C398.808 36.9821 397.95 36.9725 396.916 37.5095C392.205 39.928 387.433 42.239 382.666 44.5171C381.693 44.9907 380.61 45.2927 379.548 45.5577C373.57 47.0062 367.594 48.4074 361.604 49.8125C361.167 49.9189 360.713 49.9674 360.26 50.016C358.139 50.2804 356.303 51.01 354.828 52.6976C353.681 53.998 352.247 55.0516 351.114 56.348C350.464 57.0893 350.319 58.2974 349.647 59.0139C345.286 63.6384 340.861 68.2027 336.437 72.7671C329.404 80.0353 322.352 87.2931 315.346 94.6007C314.624 95.3622 314.019 96.3716 313.722 97.3727C310.691 107.494 307.763 117.65 304.736 127.786C303.387 132.271 302.317 136.866 299.671 140.887C298.871 142.091 298.321 143.583 298.065 145.009C297.285 149.413 293.806 151.115 290.453 152.936C288.926 153.767 287.287 154.364 285.702 155.101C279.771 157.891 273.462 159.323 267.06 160.422C265.116 160.762 263.621 161.039 262.44 158.255C260.89 154.593 258.012 151.473 255.642 148.165C255.185 147.529 254.942 147.161 255.493 146.401C255.967 145.755 256.31 144.865 256.35 144.06C256.459 142.271 257.591 141.753 259.037 141.303C264.737 139.528 270.405 137.636 276.091 135.865C277.252 135.51 277.953 134.894 278.462 133.818C280.115 130.369 281.945 126.995 283.525 123.504C284.208 121.99 284.582 120.314 284.872 118.676C287.057 105.911 289.18 93.147 291.318 80.3791C292.209 75.0876 293.063 69.7753 294.067 64.499C294.259 63.5116 294.859 62.426 295.613 61.78C309.662 49.754 323.832 37.8812 337.796 25.7703C340.967 23.0185 343.985 21.6168 348.323 22.1041C355.008 22.8556 361.765 22.9177 368.498 23.1732C369.507 23.2188 370.755 22.9488 371.539 22.3566C377.785 17.6268 383.952 12.7792 390.141 7.95639C390.334 7.80934 390.477 7.59813 390.643 7.41177L391.77 7.09774L391.836 7.11052Z" fill="white"/>
<path d="M454.717 188.07C458.796 192.147 462.945 196.143 466.938 200.306C471.243 204.803 475.373 209.458 479.603 214.022C480.161 214.629 480.331 215.127 479.856 215.881C478.335 218.298 476.884 220.741 475.363 223.158C475.136 223.517 474.767 223.869 474.397 224.05C471.772 225.295 469.119 226.502 466.486 227.718C463.813 228.961 463.536 228.805 463.243 225.914C462.898 222.554 462.601 219.197 462.165 215.848C462.07 215.174 461.656 214.356 461.125 213.959C451.835 207.1 442.499 200.301 433.16 193.488C432.807 193.228 432.392 193.079 431.758 192.758C431.811 193.397 431.801 193.804 431.88 194.202C433.064 199.398 434.273 204.571 435.442 209.771C435.62 210.577 435.658 211.439 435.611 212.277C435.247 218.62 434.835 224.961 434.457 231.308C434.281 234.252 432.781 235.682 429.903 234.85C426.398 233.834 424.206 235.8 421.761 237.524C420.786 238.216 419.816 238.922 418.75 239.453C414.987 241.311 411.21 243.174 407.375 244.881C406.462 245.291 405.258 245.16 404.179 245.087C402.74 245.006 400.839 245.224 399.992 244.417C399.186 243.646 399.461 241.732 399.271 240.322C398.655 235.825 398.126 231.302 397.362 226.83C397.054 225.001 396.283 223.24 395.679 221.462C393.683 215.699 391.659 209.944 389.634 204.189C389.59 204.03 389.43 203.904 389.328 203.761L388.517 203.364C388.399 204.004 388.426 204.713 388.146 205.273C383.523 214.205 378.829 223.109 374.228 232.065C373.692 233.102 373.424 234.375 373.38 235.555C373.247 238.596 373.242 241.648 373.298 244.699C373.319 245.891 372.958 246.101 371.783 246.242C369.367 246.51 367.643 245.855 366.074 243.911C363.557 240.799 360.555 238.071 359.043 234.212C358.707 233.341 357.892 232.65 357.368 231.831C356.756 230.865 356.302 229.793 355.64 228.872C354.869 227.78 354.057 226.652 353.08 225.773C350.876 223.788 350.398 222.349 351.308 219.527C353.909 211.439 356.493 203.341 359.095 195.254C359.286 194.656 359.44 194.037 359.723 193.04C357.321 193.974 355.232 194.743 353.163 195.584C349.496 197.058 345.861 198.647 342.147 200.009C341.059 200.406 340.676 201.042 340.348 201.989C339.708 203.88 339.499 203.969 337.766 202.943C333.91 200.671 330.086 198.344 326.252 196.035C324.98 195.269 323.673 194.544 322.432 193.722C321.439 193.065 320.139 192.867 319.896 191.16C319.82 190.606 317.955 190.114 316.852 189.954C313.467 189.481 310.026 189.367 306.677 188.744C304.495 188.34 302.453 187.213 300.313 186.517C298.809 186.034 297.238 185.538 295.674 185.398C291.738 185.016 287.786 184.795 283.833 184.574C282.838 184.524 282.164 184.339 281.765 183.298C279.979 178.566 277.296 174.302 274.495 170.118C273.991 169.371 274.137 169.112 274.904 168.681C278.649 166.594 282.567 164.957 286.712 163.801C288.633 163.266 290.558 162.636 292.35 161.747C293.459 161.204 294.425 160.203 295.229 159.232C297.336 156.684 299.512 154.163 301.326 151.4C303.479 148.123 305.324 144.635 307.21 141.183C308.202 139.381 308.958 137.458 309.876 135.615C310.055 135.254 310.481 134.995 310.831 134.742C313.084 133.164 315.329 131.558 317.646 130.04C318.25 129.638 319.062 129.427 319.788 129.35C326.568 128.658 333.336 128.032 340.458 127.339C340.115 126.61 339.88 125.99 339.562 125.409C334.628 116.808 329.703 108.188 324.714 99.6165C324.062 98.5063 323.975 97.6902 324.756 96.5851C327.638 92.4042 330.405 88.1464 333.293 83.8234C339.32 86.346 345.295 88.8519 351.256 91.3617C353.46 92.2883 353.478 92.2988 353.623 89.9703C354.193 80.0675 354.792 70.1565 355.268 60.249C355.362 58.4639 356.049 57.6342 357.659 57.0453C361.949 55.4602 366.118 53.5511 370.432 52.0527C373.543 50.9833 376.797 50.3719 379.986 49.5295C383.811 48.5099 387.636 47.4904 391.449 46.4275C396.692 44.966 395.731 44.8136 397.995 49.4745C403.61 61.0154 409.16 72.6054 414.706 84.1809C415.441 85.7035 416.012 87.3033 416.783 88.785C417.109 89.3947 417.716 90.0659 418.341 90.2965C421.643 91.4773 421.678 91.4363 423.1 88.1604C427.381 78.2815 431.64 68.3777 435.922 58.4987C436.254 57.7368 436.693 57.0229 437.275 55.9268C439.981 58.2077 442.594 60.2656 445.055 62.5057C450.499 67.4632 455.537 72.9699 461.399 77.3596C465.17 80.1684 468.375 83.3999 471.67 86.6217C475.082 89.9822 478.419 93.4102 481.621 96.9692C482.746 98.2122 483.735 98.1856 484.989 97.6026C487.802 96.3046 490.585 94.9529 493.417 93.6654C494.053 93.3791 494.782 93.1449 495.476 93.1226C501.032 92.8968 506.598 92.7617 512.142 92.4926C513.555 92.4255 514.06 92.9539 514.4 94.2289C515.84 99.6178 517.342 105.005 518.897 110.362C519.159 111.3 519.777 112.233 520.454 112.932C523.319 115.838 526.294 118.635 529.158 121.541C529.588 121.966 529.911 122.732 529.89 123.329C529.793 125.66 529.63 127.978 529.306 130.279C529.215 130.958 528.631 131.821 528.036 132.143C523.972 134.318 519.832 136.329 515.761 138.475C514.81 138.974 513.879 139.653 513.18 140.44C509.145 145.005 504.865 149.42 502.033 154.894C500.467 157.93 499.196 161.133 497.851 164.294C496.729 166.911 495.786 169.617 494.542 172.19C493.436 174.475 493.598 176.842 493.531 179.227C493.462 181.939 493.364 184.659 493.343 187.373C493.334 189.072 492.544 189.479 490.912 189.374C483.723 188.934 476.541 188.633 469.361 188.284C464.957 188.064 460.557 187.858 456.153 187.638C455.727 187.617 455.284 187.647 454.848 187.644L454.662 188.039L454.717 188.07ZM459.222 139.122L459.204 138.614C462.695 138.014 466.17 137.357 469.693 136.873C470.787 136.723 471.074 136.581 470.86 135.364C470.059 130.762 468.566 126.244 468.589 121.522C468.603 118.389 468.802 115.252 468.972 112.122C469.075 110.257 469.382 108.397 469.441 106.544C469.456 105.871 469.136 104.668 468.751 104.573C467.444 104.237 466.13 103.825 464.707 104.86C460.771 107.716 456.654 110.311 452.669 113.103C451.041 114.242 449.262 115.344 448.07 116.875C444.642 121.271 441.473 125.874 438.241 130.417C437.516 131.445 436.725 131.79 435.516 131.473C432.259 130.622 428.945 129.958 425.712 129.023C418.547 126.942 411.419 124.711 404.255 122.63C403.034 122.27 402.739 121.714 402.662 120.49C402.38 115.961 402.391 111.475 403.318 106.983C404.002 103.633 403.882 103.759 400.593 104.412C395.213 105.491 390.214 107.103 385.826 110.738C379.478 115.995 371.992 119.965 367.575 127.345C367.248 127.903 366.863 128.477 366.364 128.865C365.484 129.562 364.567 130.237 363.565 130.719C362.072 131.447 360.2 131.657 359.024 132.686C353.04 137.965 347.24 143.457 341.386 148.871C341.014 149.209 340.566 149.614 340.44 150.054C339.799 152.334 339.037 154.57 339.449 157.054C340.06 160.697 342.979 164.133 346.563 164.986C351.048 166.055 355.529 167.109 360.01 168.164C362.76 168.814 365.499 169.482 368.403 170.183C368.001 170.808 367.68 171.163 367.531 171.578C366.856 173.4 365.616 173.419 363.964 173.023C360.878 172.28 357.732 171.772 354.629 171.081C348.821 169.789 342.83 169.124 337.596 165.929C336.265 165.117 334.812 164.542 333.398 163.877C330.35 162.439 330.391 162.474 328.733 165.458C328.274 166.271 328.422 166.743 329.036 167.272C330.355 168.43 331.635 169.614 332.989 170.731C336.236 173.39 339.498 176.046 342.801 178.627C343.377 179.073 344.202 179.295 344.947 179.399C354.066 180.732 363.207 181.92 372.286 183.389C375.922 183.979 379.333 183.541 382.821 182.709C384.806 182.234 386.897 181.807 388.923 181.927C390.347 182.012 391.864 182.819 393.045 183.704C394.537 184.813 395.689 186.376 397.104 187.6C397.8 188.2 398.72 188.706 399.615 188.846C404.929 189.652 410.263 190.36 415.601 191.082C417.153 191.288 418.725 191.457 420.637 191.671C417.785 186.52 415.186 181.719 412.483 176.993C411.731 175.693 411.55 174.763 412.979 173.804C413.991 173.133 414.95 172.274 415.714 171.33C417.516 169.084 419.688 168.556 422.387 169.361C423.473 169.681 424.754 169.977 425.816 169.712C428.7 169.002 431.483 167.93 434.353 167.114C435.61 166.764 435.94 166.33 435.256 165.104C434.102 163.029 433.158 160.817 431.989 158.746C431.378 157.671 431.613 157.061 432.503 156.345C436.556 153.13 440.602 149.885 444.602 146.591C445.463 145.884 446.185 145.792 447.223 146.109C452.542 147.771 457.876 149.428 463.246 150.935C466.289 151.799 469.26 153.524 472.634 152.116C474.041 151.522 475.544 151.165 476.94 150.589C477.207 150.483 477.447 149.669 477.3 149.368C476.23 147.036 475.102 144.72 473.895 142.457C473.673 142.051 473.053 141.726 472.564 141.645C471.741 141.485 470.878 141.461 470.039 141.523C466.18 141.805 462.689 140.506 459.222 139.122Z" fill="white"/>
<path d="M516.379 192.563C513.383 186.954 510.599 181.769 507.829 176.58L507.24 176.697C507.152 178.449 507.05 180.206 506.996 181.964C506.835 188.033 506.812 194.094 506.51 200.155C506.395 202.366 507.496 203.974 508.383 205.703C511.081 210.913 513.875 216.08 516.655 221.251C517.364 222.563 517.514 223.829 516.986 225.283C515.623 228.994 514.4 232.76 513.07 236.477C512.827 237.167 512.392 237.896 511.837 238.362C503.925 244.988 495.982 251.56 488.039 258.133C487.509 258.576 486.841 258.918 486.181 259.117C482.412 260.339 478.608 261.431 474.855 262.711C472.706 263.434 470.59 263.604 468.348 263.435C462.206 262.952 456.055 262.721 449.925 262.173C446.749 261.891 443.8 262.48 440.737 263.162C436.868 264.023 433.836 265.709 431.527 268.983C430.013 271.148 427.955 272.921 426.33 275.023C423.234 279.046 419.402 282.107 415.005 284.593C413.271 285.575 411.685 286.811 410.008 287.885C409.704 288.079 409.296 288.177 408.937 288.23C404.901 288.717 400.837 289.103 396.811 289.681C394.731 289.98 392.844 290.024 390.784 289.166C378.618 284.106 366.401 279.199 354.218 274.19C353.552 273.924 352.887 273.378 352.474 272.793C349.534 268.554 346.618 264.292 343.781 259.978C343.371 259.345 343.259 258.442 343.256 257.649C343.191 252.5 343.22 247.355 343.154 242.206C343.145 241.617 342.878 240.882 342.477 240.449C339.567 237.322 336.631 234.218 333.611 231.2C332.833 230.42 331.764 229.769 330.705 229.488C327.379 228.61 323.986 227.999 320.653 227.154C319.533 226.875 319.034 227.154 318.608 228.191C316.852 232.447 314.92 236.628 313.253 240.922C312.48 242.896 311.228 244.21 309.349 244.952C308.744 245.183 307.94 245.314 307.338 245.108C303.33 243.797 299.346 242.402 295.378 240.955C294.772 240.735 294.186 240.198 293.815 239.647C288.392 231.695 282.983 223.739 277.639 215.734C277.214 215.106 277 214.169 277.085 213.414C277.788 207.505 278.553 201.595 279.388 195.712C279.49 195.015 280.04 194.254 280.606 193.77C284.054 190.785 287.771 190.325 292.245 191.692C300.424 194.175 308.795 196.06 317.068 198.268C318.296 198.595 319.474 199.247 320.555 199.942C325.182 202.917 329.809 205.892 334.31 209.027C335.562 209.892 336.573 211.229 337.445 212.511C345.699 224.701 353.929 236.914 362.105 249.157C363.006 250.494 363.992 251.293 365.605 251.497C367.332 251.716 369.026 252.1 370.734 252.418C370.905 251.747 370.861 250.919 371.208 250.713C371.673 250.428 372.424 250.608 373.05 250.62C374.193 250.644 375.346 250.759 376.497 250.702C387.021 250.15 397.546 249.489 408.073 249.06C410.228 248.973 411.891 248.073 413.65 247.179C416.129 245.911 418.628 244.655 420.989 243.187C425.547 240.329 430.815 239.965 435.842 238.844C444.391 236.959 452.992 235.262 461.57 233.478C466.012 232.551 470.448 231.548 474.915 230.707C476.319 230.44 477.203 229.758 477.935 228.589C482.934 220.611 487.992 212.68 493.009 204.713C493.312 204.239 493.656 203.629 493.606 203.114C493.057 197.181 495.232 191.75 496.79 186.225C499.397 176.985 502.092 167.781 504.839 158.595C505.17 157.491 505.877 156.344 506.741 155.59C514.388 148.96 522.114 142.448 529.787 135.857C530.829 134.96 531.876 134.528 533.278 134.588C539.35 134.872 545.422 135.047 551.509 135.218C552.718 135.255 553.52 135.452 553.935 136.83C554.785 139.598 555.879 142.296 556.863 145.042C557.559 146.98 558.302 148.921 558.868 150.896C559.029 151.474 558.877 152.325 558.534 152.826C554.535 158.579 550.476 164.287 546.38 169.974C546.008 170.482 545.276 170.873 544.633 171.021C538.065 172.587 531.487 174.063 524.932 175.672C524.1 175.873 523.066 176.519 522.74 177.248C520.917 181.259 519.288 185.355 517.585 189.41C517.209 190.293 516.869 191.197 516.338 192.528L516.379 192.563Z" fill="white"/>
<path d="M373.688 159.945C373.003 159.607 372.73 159.465 372.457 159.323C369.961 157.965 367.472 156.573 364.966 155.232C364.179 154.813 363.762 154.432 364.299 153.457C365.552 151.193 366.749 148.898 367.876 146.576C368.352 145.603 368.791 145.558 369.629 146.165C371.718 147.684 373.832 149.181 375.987 150.603C376.787 151.127 376.994 151.646 376.613 152.515C375.708 154.572 374.844 156.666 373.976 158.744C373.826 159.097 373.782 159.499 373.688 159.945Z" fill="white"/>
</g>
</g>
<defs>
<filter id="filter0_f_1006_132805" x="-59" y="138" width="709" height="204" filterUnits="userSpaceOnUse" color-interpolation-filters="sRGB">
<feFlood flood-opacity="0" result="BackgroundImageFix"/>
<feBlend mode="normal" in="SourceGraphic" in2="BackgroundImageFix" result="shape"/>
<feGaussianBlur stdDeviation="18" result="effect1_foregroundBlur_1006_132805"/>
</filter>
<linearGradient id="paint0_linear_1006_132805" x1="286.761" y1="4.29101" x2="284.551" y2="281.758" gradientUnits="userSpaceOnUse">
<stop stop-color="#1A1A1A"/>
<stop offset="1" stop-color="#101010"/>
</linearGradient>
<linearGradient id="paint1_linear_1006_132805" x1="295.5" y1="174" x2="295.5" y2="259.97" gradientUnits="userSpaceOnUse">
<stop stop-opacity="0"/>
<stop offset="1"/>
</linearGradient>
<linearGradient id="paint2_linear_1006_132805" x1="149.264" y1="109.529" x2="499.094" y2="269.626" gradientUnits="userSpaceOnUse">
<stop stop-opacity="0.4"/>
<stop offset="1" stop-opacity="0"/>
</linearGradient>
</defs>
</svg>
