<svg preserveAspectRatio="none" viewBox="0 0 566 290" fill="none" xmlns="http://www.w3.org/2000/svg">
<mask id="mask0_1006_132793" style="mask-type:alpha" maskUnits="userSpaceOnUse" x="0" y="0" width="566" height="290">
<path d="M3.38566 3.18615L10.7726 1.04041L29.2398 0.682782L72.9456 4.97394C78.2122 3.08094 91.0949 -0.149357 141.274 1.04041L160.973 7.11977L169.283 3.90115L282.549 1.04041L322.561 0.682782L344.722 1.75565L399.816 1.57684L446.842 5.00617L454.909 1.39803L487.464 3.21825L542.53 0C542.53 0 561.486 1.39799 563.292 3.21825C565.097 5.03851 566 18.2367 566 18.2367L563.894 63.2922L564.195 83.5811C561.787 86.8927 561.18 87.4356 561.486 90.4686C561.758 95.3651 562.314 97.6115 564.495 103.87L565.097 144.448L564.195 208.113L565.097 216.151C563.417 239.428 563.543 252.42 565.398 275.697L564.796 284.994L559.079 287.497L553.061 288.212L504.216 288.033C498.489 284.118 492.573 284.679 479.794 287.944L455.371 287.855L437.815 290L388.768 285.709L345.645 287.855H297.476L291.782 285.351L262.235 287.855H191.751L133.58 286.424L120.96 287.855L101.57 285.351L96.6452 287.855H72.33L37.8578 287.139L7.69468 287.855L0.923362 284.994L0 277.484V260.854C2.31195 256.581 2.12846 252.758 0 244.225V210.966L3.07787 148.381L0.903192 122.07L1.80638 96.1047L0 53.2535L2.15451 47.8891L0 38.2333V11.0539L3.38566 3.18615Z" fill="url(#paint0_linear_1006_132793)"/>
<path d="M3.38566 3.18615L10.7726 1.04041L29.2398 0.682782L72.9456 4.97394C78.2122 3.08094 91.0949 -0.149357 141.274 1.04041L160.973 7.11977L169.283 3.90115L282.549 1.04041L322.561 0.682782L344.722 1.75565L399.816 1.57684L446.842 5.00617L454.909 1.39803L487.464 3.21825L542.53 0C542.53 0 561.486 1.39799 563.292 3.21825C565.097 5.03851 566 18.2367 566 18.2367L563.894 63.2922L564.195 83.5811C561.787 86.8927 561.18 87.4356 561.486 90.4686C561.758 95.3651 562.314 97.6115 564.495 103.87L565.097 144.448L564.195 208.113L565.097 216.151C563.417 239.428 563.543 252.42 565.398 275.697L564.796 284.994L559.079 287.497L553.061 288.212L504.216 288.033C498.489 284.118 492.573 284.679 479.794 287.944L455.371 287.855L437.815 290L388.768 285.709L345.645 287.855H297.476L291.782 285.351L262.235 287.855H191.751L133.58 286.424L120.96 287.855L101.57 285.351L96.6452 287.855H72.33L37.8578 287.139L7.69468 287.855L0.923362 284.994L0 277.484V260.854C2.31195 256.581 2.12846 252.758 0 244.225V210.966L3.07787 148.381L0.903192 122.07L1.80638 96.1047L0 53.2535L2.15451 47.8891L0 38.2333V11.0539L3.38566 3.18615Z" fill="#FF0000"/>
</mask>
<g mask="url(#mask0_1006_132793)">
<rect opacity="0.95" width="572" height="310" fill="#101C20"/>
<g filter="url(#filter0_f_1006_132793)">
<path d="M-15.6863 208.027L-22.9997 272.978L-23 297.876C31.0089 297.515 139.927 296.144 143.527 293.546C148.028 290.298 470.956 302.206 566.597 305.453C643.11 308.051 610.104 300.762 584.037 296.793L587.413 210.192L573.911 196.12C568.097 196.481 555.795 197.635 553.095 199.367C549.719 201.532 549.157 209.11 536.78 198.285C524.403 187.46 520.464 201.532 509.213 186.377C497.961 171.222 497.961 201.532 495.148 201.532C492.335 201.532 455.204 208.027 442.264 208.027C429.324 208.027 407.946 193.955 394.444 177.717C380.941 161.48 360.688 203.697 342.685 203.697C324.682 203.697 324.682 210.193 302.741 208.028C280.8 205.863 275.737 185.295 257.734 189.625C239.731 193.955 230.729 216.688 224.541 225.348C218.352 234.008 187.41 223.183 164.906 218.853C142.402 214.523 145.778 226.43 130.025 210.193C114.273 193.955 109.772 195.037 97.3948 193.955C85.0178 192.872 74.3285 205.862 63.0767 212.358C51.8248 218.853 27.6333 223.183 17.5067 219.935C9.40533 217.337 2.12914 208.027 -0.496296 203.697L-15.6863 208.027Z" fill="url(#paint1_linear_1006_132793)" fill-opacity="0.3"/>
</g>
<rect width="572" height="310" fill="url(#paint2_linear_1006_132793)"/>
<g opacity="0.04">
<g clip-path="url(#clip0_1006_132793)">
<path d="M375.875 138.738C378.52 130.098 378.874 121.577 382.053 113.556C387.891 98.8096 393.774 84.1414 404.395 72.1488C407.66 68.484 412.181 65.8463 416.395 63.1588C422.236 59.4305 444.09 50.9903 450.223 51.3807C456.492 51.778 463.077 49.423 469.229 53.4434C471.848 55.1517 475.655 55.1293 478.968 55.6055C488.122 56.9601 495.768 60.6768 502.861 66.941C507.172 70.752 512.467 73.724 515.964 78.4167C521.763 86.193 528.34 93.843 532.047 102.609C534.73 108.996 538.322 115.085 540.215 121.873C542.615 130.484 540.871 138.715 538.468 146.926C537.599 149.878 536.646 152.853 535.318 155.617C531.202 164.238 527.022 172.877 522.537 181.308C521.132 183.957 519.106 186.803 516.598 188.247C508.695 192.753 502.008 198.952 494.312 203.717C486.611 208.46 479.311 213.837 471.571 218.524C468.982 220.081 465.515 221.16 462.537 220.997C453.555 220.498 444.605 219.064 435.611 218.364C423.718 217.458 414.964 210.821 407.166 202.834C400.159 195.665 393.783 187.846 387.095 180.363C386.41 179.605 384.761 179.275 384.604 178.551C382.598 168.114 376.964 158.507 377.555 147.437C377.734 144.677 376.524 141.876 375.875 138.738ZM476.763 120.933C477.826 124.746 478.435 127.986 479.614 130.999C483.761 141.426 483.016 151.862 480.445 162.469C478.604 170.027 476.909 177.702 477.617 186.153C486.319 181.921 494.233 177.05 503.012 173.745C507.178 172.177 511.9 168.806 513.432 163.05C515.898 153.85 519.172 144.877 521.883 135.744C523.593 129.984 524.565 123.029 520.823 118.834C517.702 115.324 518.39 110.752 514.986 107.523C507.411 105.842 500.102 101.557 491.743 102.645C486.536 108.974 481.524 115.112 476.763 120.933ZM393.866 147.112C396.06 156.684 399.807 165.755 407.678 172.706C412.497 176.962 417.03 181.569 421.899 185.766C423.438 187.076 425.675 188.304 427.589 188.29C435.422 188.228 443.247 187.65 448.635 187.39C454.472 183.324 457.27 179.925 458.399 174.914C457.333 174.489 456.515 174.062 455.665 173.847C450.87 172.587 446.874 170.879 443.991 166.038C438.886 157.436 432.732 149.442 427.415 141.779C422.659 140.824 418.433 139.745 414.105 139.19C406.161 138.13 398.121 137.369 393.866 147.112ZM469.122 73.6141C456.908 73.7448 445.501 73.8539 433.845 73.9644C431.401 76.7683 428.737 79.8366 426.022 82.9643C421.835 84.1314 417.711 85.281 413.399 86.483C409.133 95.6202 404.882 104.731 400.646 113.814C403.779 115.583 406.617 117.185 409.267 118.681C416.615 116.633 423.837 114.62 430.305 112.817C433.573 108.677 435.944 104.72 439.217 101.73C445.149 96.3055 452.254 90.9605 460.215 91.6768C467.202 92.303 472.316 88.9583 478.686 88.5825C478.058 81.5547 471.978 79.411 469.122 73.6141Z" fill="white"/>
<path d="M557.792 256.717C546.701 251.409 535.59 246.107 524.057 240.584C522.66 241.56 520.92 243.332 518.792 244.196C511.34 247.245 503.075 248.916 496.419 253.12C489.514 257.483 481.881 258.347 474.69 261.119C462.996 265.621 451.028 264.531 439.144 262.606C424.161 260.167 409.377 257.063 394.881 252.162C387.633 249.712 381.874 246.372 376.98 240.714C370.187 232.853 362.955 225.363 356.126 217.535C349.127 209.506 342.848 201.141 340.33 190.328C337.61 178.712 334.47 167.124 330.684 155.806C326.742 144.012 329.015 132.743 332.41 121.613C335.033 112.979 339.168 104.827 342.569 96.4728C349.515 79.3859 360.333 64.5386 367.896 48.4536C360.246 41.4865 352.505 34.4322 344.374 27.0348C353.319 17.2029 364.471 10.1879 375.394 2.51424C378.611 4.10114 381.417 6.47997 383.73 10.4867C388.757 19.1331 395.847 26.437 401.695 34.6289C403.985 37.8288 404.003 41.2107 405.981 44.3399C398.365 56.9172 389.07 68.2465 380.652 80.212C375.002 88.2674 369.593 96.8652 366.636 106.653C365.045 111.951 362.295 116.895 360.268 122.089C357.101 130.152 357.798 138.719 357.907 147.043C357.987 151.943 360.115 156.904 361.825 161.666C363.466 166.176 363.555 171.028 367.411 175.147C370.75 178.709 371.697 184.451 373.927 189.136C376.27 194.06 378.846 198.851 381.387 203.675C386.152 212.756 395.038 217.684 402.287 224.266C404.828 226.584 407.516 228.86 410.472 230.565C413.108 232.088 416.217 232.802 419.139 233.816C427.305 236.643 435.771 236.586 444.147 235.719C454.805 234.622 465.67 234.912 476.006 231.444C487.323 233.438 495.689 227.357 504.222 221.388C508.621 218.311 513.558 216.031 518.158 213.191C522.929 210.235 528.859 212.33 534.174 213.106C540.071 213.946 541.789 218.977 543.953 223.906C547.835 232.736 553.119 240.927 555.789 250.343C556.245 251.977 558.166 253.203 559.396 254.622C558.849 255.248 558.331 255.98 557.792 256.717Z" fill="white"/>
</g>
</g>
</g>
<defs>
<filter id="filter0_f_1006_132793" x="-59" y="138" width="709" height="204" filterUnits="userSpaceOnUse" color-interpolation-filters="sRGB">
<feFlood flood-opacity="0" result="BackgroundImageFix"/>
<feBlend mode="normal" in="SourceGraphic" in2="BackgroundImageFix" result="shape"/>
<feGaussianBlur stdDeviation="18" result="effect1_foregroundBlur_1006_132793"/>
</filter>
<linearGradient id="paint0_linear_1006_132793" x1="286.761" y1="4.29101" x2="284.551" y2="281.758" gradientUnits="userSpaceOnUse">
<stop stop-color="#1A1A1A"/>
<stop offset="1" stop-color="#101010"/>
</linearGradient>
<linearGradient id="paint1_linear_1006_132793" x1="295.5" y1="174" x2="295.5" y2="259.97" gradientUnits="userSpaceOnUse">
<stop stop-opacity="0"/>
<stop offset="1"/>
</linearGradient>
<linearGradient id="paint2_linear_1006_132793" x1="149.264" y1="109.529" x2="499.094" y2="269.626" gradientUnits="userSpaceOnUse">
<stop stop-opacity="0.4"/>
<stop offset="1" stop-opacity="0"/>
</linearGradient>
<clipPath id="clip0_1006_132793">
<rect width="212.364" height="293.867" fill="white" transform="translate(293.891 25.2119) rotate(-15.5764)"/>
</clipPath>
</defs>
</svg>
