<svg preserveAspectRatio="none" viewBox="0 0 566 290" fill="none" xmlns="http://www.w3.org/2000/svg">
<mask id="mask0_1006_132799" style="mask-type:alpha" maskUnits="userSpaceOnUse" x="0" y="0" width="566" height="290">
<path d="M3.38566 3.18615L10.7726 1.04041L29.2398 0.682782L72.9456 4.97394C78.2122 3.08094 91.0949 -0.149357 141.274 1.04041L160.973 7.11977L169.283 3.90115L282.549 1.04041L322.561 0.682782L344.722 1.75565L399.816 1.57684L446.842 5.00617L454.909 1.39803L487.464 3.21825L542.53 0C542.53 0 561.486 1.39799 563.292 3.21825C565.097 5.03851 566 18.2367 566 18.2367L563.894 63.2922L564.195 83.5811C561.787 86.8927 561.18 87.4356 561.486 90.4686C561.758 95.3651 562.314 97.6115 564.495 103.87L565.097 144.448L564.195 208.113L565.097 216.151C563.417 239.428 563.543 252.42 565.398 275.697L564.796 284.994L559.079 287.497L553.061 288.212L504.216 288.033C498.489 284.118 492.573 284.679 479.794 287.944L455.371 287.855L437.815 290L388.768 285.709L345.645 287.855H297.476L291.782 285.351L262.235 287.855H191.751L133.58 286.424L120.96 287.855L101.57 285.351L96.6452 287.855H72.33L37.8578 287.139L7.69468 287.855L0.923362 284.994L0 277.484V260.854C2.31195 256.581 2.12846 252.758 0 244.225V210.966L3.07787 148.381L0.903192 122.07L1.80638 96.1047L0 53.2535L2.15451 47.8891L0 38.2333V11.0539L3.38566 3.18615Z" fill="url(#paint0_linear_1006_132799)"/>
<path d="M3.38566 3.18615L10.7726 1.04041L29.2398 0.682782L72.9456 4.97394C78.2122 3.08094 91.0949 -0.149357 141.274 1.04041L160.973 7.11977L169.283 3.90115L282.549 1.04041L322.561 0.682782L344.722 1.75565L399.816 1.57684L446.842 5.00617L454.909 1.39803L487.464 3.21825L542.53 0C542.53 0 561.486 1.39799 563.292 3.21825C565.097 5.03851 566 18.2367 566 18.2367L563.894 63.2922L564.195 83.5811C561.787 86.8927 561.18 87.4356 561.486 90.4686C561.758 95.3651 562.314 97.6115 564.495 103.87L565.097 144.448L564.195 208.113L565.097 216.151C563.417 239.428 563.543 252.42 565.398 275.697L564.796 284.994L559.079 287.497L553.061 288.212L504.216 288.033C498.489 284.118 492.573 284.679 479.794 287.944L455.371 287.855L437.815 290L388.768 285.709L345.645 287.855H297.476L291.782 285.351L262.235 287.855H191.751L133.58 286.424L120.96 287.855L101.57 285.351L96.6452 287.855H72.33L37.8578 287.139L7.69468 287.855L0.923362 284.994L0 277.484V260.854C2.31195 256.581 2.12846 252.758 0 244.225V210.966L3.07787 148.381L0.903192 122.07L1.80638 96.1047L0 53.2535L2.15451 47.8891L0 38.2333V11.0539L3.38566 3.18615Z" fill="#FF0000"/>
</mask>
<g mask="url(#mask0_1006_132799)">
<rect opacity="0.95" width="572" height="310" fill="#4E242B"/>
<g filter="url(#filter0_f_1006_132799)">
<path d="M-15.6863 208.027L-22.9997 272.978L-23 297.876C31.0089 297.515 139.927 296.144 143.527 293.546C148.028 290.298 470.956 302.206 566.597 305.453C643.11 308.051 610.104 300.762 584.037 296.793L587.413 210.192L573.911 196.12C568.097 196.481 555.795 197.635 553.095 199.367C549.719 201.532 549.157 209.11 536.78 198.285C524.403 187.46 520.464 201.532 509.213 186.377C497.961 171.222 497.961 201.532 495.148 201.532C492.335 201.532 455.204 208.027 442.264 208.027C429.324 208.027 407.946 193.955 394.444 177.717C380.941 161.48 360.688 203.697 342.685 203.697C324.682 203.697 324.682 210.193 302.741 208.028C280.8 205.863 275.737 185.295 257.734 189.625C239.731 193.955 230.729 216.688 224.541 225.348C218.352 234.008 187.41 223.183 164.906 218.853C142.402 214.523 145.778 226.43 130.025 210.193C114.273 193.955 109.772 195.037 97.3948 193.955C85.0178 192.872 74.3285 205.862 63.0767 212.358C51.8248 218.853 27.6333 223.183 17.5067 219.935C9.40533 217.337 2.12914 208.027 -0.496296 203.697L-15.6863 208.027Z" fill="url(#paint1_linear_1006_132799)" fill-opacity="0.3"/>
</g>
<rect width="572" height="310" fill="url(#paint2_linear_1006_132799)"/>
<g opacity="0.04">
<g clip-path="url(#clip0_1006_132799)">
<path d="M477.204 206.003C482.36 218.328 486.772 228.912 491.256 239.639C482.698 245.628 480.521 253.895 480.24 263.483C468.918 269.69 456.39 267.146 443.12 267.761C438.66 273.192 433.692 279.25 428.028 286.185C413.774 282.92 399.245 279.603 383.806 276.051C383.045 266.916 377.263 258.401 378.568 247.358C379.48 239.801 374.761 231.606 372.133 222.18C362.91 229.392 354.727 235.795 344.679 243.66C344.167 243.803 341.154 244.642 337.991 245.524C323.473 238.406 308.819 231.26 293.364 223.689C294.163 217.819 294.85 212.596 295.843 205.211C295.062 202.41 293.685 197.471 292.418 192.923C283.75 188.036 275.198 183.215 268.611 179.501C261.448 170.462 257.233 162.678 255.68 151.751C258.015 146.848 260.879 140.467 264.081 134.251C273.672 115.543 283.678 97.0446 292.969 78.1934C296.186 71.6813 296.883 64.2814 303.595 59.3592C321 46.5551 337.358 32.3228 355.385 20.3516C359.389 17.71 363.116 14.6585 369.738 9.76151C375.024 7.63908 383.45 8.63321 392.53 9.64009C412.942 11.9344 431.726 20.2656 451.793 23.5327C456.93 24.3728 461.624 27.933 468.087 30.9676C469.648 36.5695 471.705 43.9482 473.955 52.0197C481.685 50.5141 480.988 42.0746 486.932 38.4703C498.689 42.5607 511.166 46.9048 523.79 51.3057C528.015 56.9116 532.372 62.6429 537.283 69.1937C532.533 90.7066 524.488 112.164 522.151 134.53C528.243 140.427 533.806 145.822 540.265 152.104C532.754 165.46 525.775 179.675 516.948 192.619C513.348 197.875 508.18 203.795 498.76 202.266C492.632 201.248 485.863 204.336 477.204 206.003ZM294.639 146.733C308.697 156.512 322.402 163.629 337.843 166.725C363.774 171.928 389.844 176.346 415.665 181.969C424.099 183.804 430.725 181.6 435.428 175.875C451.528 156.294 469.901 138.806 486.5 119.735C495.127 109.8 504.474 100.119 511.134 86.7395C505.541 84.7284 500.779 83.7189 496.696 81.4166C474.224 68.823 449.947 60.2378 426.537 49.7556C413.49 43.9476 399.959 39.0857 386.33 34.803C381.485 33.2647 375.702 34.6495 371.135 34.6892C357.698 53.6902 344.745 71.5175 332.318 89.7175C319.579 108.427 307.348 127.448 294.639 146.733ZM421.372 195.568C413.405 213.693 411.565 232.253 409.474 253.868C416.544 248.132 420.884 243.32 426.267 240.618C432.138 237.683 439.026 236.769 444.298 235.3C451.369 236.672 457.275 240.738 463.768 234.676C460.168 230.616 457.078 226.284 453.199 222.854C443.068 213.766 432.531 205.083 421.372 195.568Z" fill="white"/>
<path d="M334.152 138.575C350.161 113.891 365.042 90.9819 380.053 67.8421C409.001 79.4418 437.328 90.7928 467.112 102.711C458.651 110.912 451.437 118.344 443.737 125.197C435.777 132.284 426.975 138.211 420.964 147.514C417.379 153.058 410.341 154.598 403.958 155.695C381.252 149.366 357.897 145.718 334.152 138.575ZM418.127 104.26C406.729 95.1681 397.229 86.1314 382.834 82.7114C384.242 96.7302 374.334 108.71 379.585 121.138C384.696 125.264 388.901 128.701 393.127 132.099C397.47 135.563 401.803 138.996 406.718 142.884C410.773 129.128 414.358 117.06 418.127 104.26Z" fill="white"/>
</g>
</g>
</g>
<defs>
<filter id="filter0_f_1006_132799" x="-59" y="138" width="709" height="204" filterUnits="userSpaceOnUse" color-interpolation-filters="sRGB">
<feFlood flood-opacity="0" result="BackgroundImageFix"/>
<feBlend mode="normal" in="SourceGraphic" in2="BackgroundImageFix" result="shape"/>
<feGaussianBlur stdDeviation="18" result="effect1_foregroundBlur_1006_132799"/>
</filter>
<linearGradient id="paint0_linear_1006_132799" x1="286.761" y1="4.29101" x2="284.551" y2="281.758" gradientUnits="userSpaceOnUse">
<stop stop-color="#1A1A1A"/>
<stop offset="1" stop-color="#101010"/>
</linearGradient>
<linearGradient id="paint1_linear_1006_132799" x1="295.5" y1="174" x2="295.5" y2="259.97" gradientUnits="userSpaceOnUse">
<stop stop-opacity="0"/>
<stop offset="1"/>
</linearGradient>
<linearGradient id="paint2_linear_1006_132799" x1="149.264" y1="109.529" x2="499.094" y2="269.626" gradientUnits="userSpaceOnUse">
<stop stop-opacity="0.4"/>
<stop offset="1" stop-opacity="0"/>
</linearGradient>
<clipPath id="clip0_1006_132799">
<rect width="293.867" height="282.017" fill="white" transform="translate(226.73 49.5293) rotate(-15.5764)"/>
</clipPath>
</defs>
</svg>
