<svg preserveAspectRatio="none" viewBox="0 0 566 290" fill="none" xmlns="http://www.w3.org/2000/svg">
<mask id="mask0_1006_132829" style="mask-type:alpha" maskUnits="userSpaceOnUse" x="0" y="0" width="566" height="290">
<path d="M3.38566 3.18615L10.7726 1.04041L29.2398 0.682782L72.9456 4.97394C78.2122 3.08094 91.0949 -0.149357 141.274 1.04041L160.973 7.11977L169.283 3.90115L282.549 1.04041L322.561 0.682782L344.722 1.75565L399.816 1.57684L446.842 5.00617L454.909 1.39803L487.464 3.21825L542.53 0C542.53 0 561.486 1.39799 563.292 3.21825C565.097 5.03851 566 18.2367 566 18.2367L563.894 63.2922L564.195 83.5811C561.787 86.8927 561.18 87.4356 561.486 90.4686C561.758 95.3651 562.314 97.6115 564.495 103.87L565.097 144.448L564.195 208.113L565.097 216.151C563.417 239.428 563.543 252.42 565.398 275.697L564.796 284.994L559.079 287.497L553.061 288.212L504.216 288.033C498.489 284.118 492.573 284.679 479.794 287.944L455.371 287.855L437.815 290L388.768 285.709L345.645 287.855H297.476L291.782 285.351L262.235 287.855H191.751L133.58 286.424L120.96 287.855L101.57 285.351L96.6452 287.855H72.33L37.8578 287.139L7.69468 287.855L0.923362 284.994L0 277.484V260.854C2.31195 256.581 2.12846 252.758 0 244.225V210.966L3.07787 148.381L0.903192 122.07L1.80638 96.1047L0 53.2535L2.15451 47.8891L0 38.2333V11.0539L3.38566 3.18615Z" fill="url(#paint0_linear_1006_132829)"/>
<path d="M3.38566 3.18615L10.7726 1.04041L29.2398 0.682782L72.9456 4.97394C78.2122 3.08094 91.0949 -0.149357 141.274 1.04041L160.973 7.11977L169.283 3.90115L282.549 1.04041L322.561 0.682782L344.722 1.75565L399.816 1.57684L446.842 5.00617L454.909 1.39803L487.464 3.21825L542.53 0C542.53 0 561.486 1.39799 563.292 3.21825C565.097 5.03851 566 18.2367 566 18.2367L563.894 63.2922L564.195 83.5811C561.787 86.8927 561.18 87.4356 561.486 90.4686C561.758 95.3651 562.314 97.6115 564.495 103.87L565.097 144.448L564.195 208.113L565.097 216.151C563.417 239.428 563.543 252.42 565.398 275.697L564.796 284.994L559.079 287.497L553.061 288.212L504.216 288.033C498.489 284.118 492.573 284.679 479.794 287.944L455.371 287.855L437.815 290L388.768 285.709L345.645 287.855H297.476L291.782 285.351L262.235 287.855H191.751L133.58 286.424L120.96 287.855L101.57 285.351L96.6452 287.855H72.33L37.8578 287.139L7.69468 287.855L0.923362 284.994L0 277.484V260.854C2.31195 256.581 2.12846 252.758 0 244.225V210.966L3.07787 148.381L0.903192 122.07L1.80638 96.1047L0 53.2535L2.15451 47.8891L0 38.2333V11.0539L3.38566 3.18615Z" fill="#FF0000"/>
</mask>
<g mask="url(#mask0_1006_132829)">
<rect opacity="0.95" width="572" height="310" fill="#1A4345"/>
<g filter="url(#filter0_f_1006_132829)">
<path d="M-15.6863 208.027L-22.9997 272.978L-23 297.876C31.0089 297.515 139.927 296.144 143.527 293.546C148.028 290.298 470.956 302.206 566.597 305.453C643.11 308.051 610.104 300.762 584.037 296.793L587.413 210.192L573.911 196.12C568.097 196.481 555.795 197.635 553.095 199.367C549.719 201.532 549.157 209.11 536.78 198.285C524.403 187.46 520.464 201.532 509.213 186.377C497.961 171.222 497.961 201.532 495.148 201.532C492.335 201.532 455.204 208.027 442.264 208.027C429.324 208.027 407.946 193.955 394.444 177.717C380.941 161.48 360.688 203.697 342.685 203.697C324.682 203.697 324.682 210.193 302.741 208.028C280.8 205.863 275.737 185.295 257.734 189.625C239.731 193.955 230.729 216.688 224.541 225.348C218.352 234.008 187.41 223.183 164.906 218.853C142.402 214.523 145.778 226.43 130.025 210.193C114.273 193.955 109.772 195.037 97.3948 193.955C85.0178 192.872 74.3285 205.862 63.0767 212.358C51.8248 218.853 27.6333 223.183 17.5067 219.935C9.40533 217.337 2.12914 208.027 -0.496296 203.697L-15.6863 208.027Z" fill="url(#paint1_linear_1006_132829)" fill-opacity="0.3"/>
</g>
<rect width="572" height="310" fill="url(#paint2_linear_1006_132829)"/>
<path opacity="0.04" d="M506.595 269.36C505.824 269.269 505.279 269.587 504.916 270.267C502.647 274.079 499.947 277.551 496.883 280.66L495.907 282.815L494.115 284.064L492.912 286.991L494.387 291.007L506.888 299.106C506.911 299.174 506.956 299.265 507.047 299.355C508.907 301.352 510.972 301.556 513.196 299.922C515.374 295.112 518.46 291.164 522.431 288.01C523.702 285.241 525.54 283.04 527.945 281.361C528.354 280.862 528.513 280.068 528.377 279.024C528.331 276.029 526.834 274.169 523.907 273.375C520.322 272.331 516.851 270.947 513.516 269.246C510.294 267.522 512.109 268.838 508.615 268.202C508.025 268.883 506.754 269.382 505.96 269.451L506.595 269.36ZM466.744 65.3601C463.204 64.4528 459.529 63.5455 455.785 62.7062C453.334 61.9349 450.952 61.1863 448.638 60.4604C443.26 58.8952 437.702 57.8746 431.984 57.4212C430.282 57.3532 428.603 57.308 426.969 57.3081C425.767 57.8754 424.768 58.6923 423.951 59.7814C423.021 60.621 422.091 61.5514 421.206 62.5725C419.232 64.955 417.053 67.1334 414.671 69.1529C410.473 72.8062 406.139 76.5049 401.623 80.2491C398.084 83.0628 394.476 85.7631 390.777 88.3727C388.803 89.9384 387.827 91.8671 387.759 94.2041C387.645 105.662 386.918 116.962 385.601 128.171C385.124 132.278 384.625 136.498 384.126 140.764C383.808 144.167 384.738 147.275 386.961 150.089C386.439 152.38 386.87 154.264 388.209 155.693C389.161 156.873 390.432 157.417 392.02 157.326C401.414 155.284 410.944 153.468 420.655 151.879C421.313 154.307 422.22 156.53 423.468 158.549C424.013 159.502 424.58 160.569 425.124 161.703C431.59 174.159 437.42 186.797 442.661 199.616C443.341 201.023 444.34 201.84 445.655 202.067L494.189 190.015C495.732 188.154 496.345 185.999 495.96 183.571C495.892 182.505 495.892 181.416 495.892 180.326C496.459 175.766 496.437 171.296 495.757 166.894C495.553 165.782 495.326 164.784 495.031 163.899C493.987 161.222 493.216 158.408 492.694 155.482C492.286 152.986 491.923 150.399 491.538 147.699C493.103 146.723 494.465 145.407 495.599 143.773C496.008 143.002 496.462 142.231 496.961 141.504C498.322 140.506 499.593 139.417 500.773 138.237C502.656 136.626 504.449 134.924 506.151 133.177C507.444 131.929 508.602 130.544 509.555 129.092C511.551 126.369 511.892 123.216 510.508 119.699C510.213 119.041 509.873 118.383 509.555 117.793C508.648 116.25 507.695 114.662 506.72 113.051C506.107 111.894 505.562 110.759 505.086 109.557C502.046 99.9367 498.394 90.7476 494.129 81.899C493.539 80.5376 492.927 79.1536 492.337 77.7469C491.452 75.7275 490.408 73.6856 489.161 71.6663C488.344 70.4411 487.187 69.6017 485.757 69.1253C481.492 68.3087 477.272 67.4468 473.119 66.5622C470.873 66.3128 468.74 65.9045 466.744 65.3601ZM414.714 103.369L415.78 103.21C416.483 104.186 417.187 105.207 417.913 106.25C418.503 107.067 419.093 107.793 419.66 108.496C420.136 109.336 420.59 110.243 421.021 111.219C422.427 113.942 423.789 116.664 425.195 119.387L424.015 121.202L401.598 119.253L399.307 107.25L414.714 103.369ZM462.068 92.1796C463.543 91.6122 465.04 91.0676 466.56 90.5002L477.065 102.956L477.655 104.136C474.932 106.133 472.436 108.447 470.212 111.034C468.601 112.645 466.967 114.188 465.333 115.686C463.382 117.047 461.385 118.363 459.298 119.68L453.875 118.024L451.744 97.83C455.261 95.9466 458.71 94.0858 462.068 92.1796ZM469.528 159.953L468.802 161.451L444.523 168.713C444.728 166.013 444.955 163.245 445.114 160.408C445.25 157.096 445.228 153.897 444.978 150.743C444.684 145.365 446.386 140.623 450.039 136.471C453.964 140.305 457.753 144.366 461.383 148.722C464.537 152.148 467.214 155.869 469.528 159.953ZM400.72 22.8897C397.498 21.7555 394.185 20.7574 390.691 19.8954C387.855 19.283 385.45 20.1907 383.43 22.5733C381.388 25.1601 379.142 27.588 376.646 29.8118C371.381 34.5316 371.563 34.1231 367.047 38.9563C365.981 40.0228 365.05 41.1347 364.234 42.2692C361.647 45.6729 358.674 48.6908 355.293 51.3457C352.775 53.5921 350.71 56.3831 349.098 59.764L315.244 87.1754C313.837 89.8983 313.836 92.6664 315.243 95.5252C315.538 96.1378 315.651 96.705 315.651 97.2496C315.764 103.262 316.83 108.957 318.849 114.335C319.621 116.195 320.46 118.033 321.299 119.871C323.613 124.545 324.021 129.264 322.501 134.052C320.3 136.026 317.872 137.728 315.217 139.157C303.486 143.673 291.96 148.303 280.615 153.069C279.73 154.362 279.616 155.746 280.319 157.221C280.478 157.606 280.728 157.811 281.091 157.856C290.688 162.28 300.898 165.501 311.766 167.52C312.674 167.656 318.686 171.762 329.849 179.884C330.28 182.766 330.756 185.602 331.301 188.415C331.55 189.981 331.641 191.524 331.618 193.044C331.573 194.496 331.663 195.858 331.913 197.151C333.206 203.844 335.27 210.401 338.151 216.868C339.308 219.159 340.896 221.065 342.915 222.54C344.935 223.969 347.272 224.99 349.972 225.648C367.238 229.935 383.824 236.128 399.797 244.25L406.717 245.134C410.166 247.902 414.227 249.876 418.856 251.101C425.277 253.029 423.099 251.214 429.157 253.414C431.13 255.524 433.626 257.022 436.644 257.952C438.935 258.61 440.978 258.246 442.77 256.771C444.132 255.501 445.561 254.162 447.013 252.801C450.667 249.737 454.002 246.447 456.975 242.975C458.677 243.043 459.743 242.34 460.265 240.865C460.673 239.821 460.56 238.845 459.879 237.983C458.042 236.191 455.818 234.966 453.186 234.285C451.848 233.99 450.827 233.65 450.123 233.174C441.025 228.024 440.049 227.411 430.452 223.532C416.294 217.679 402.023 211.667 387.57 205.474C386.753 205.111 386.118 204.748 385.664 204.294C380.173 200.846 374.433 197.647 368.421 194.675C367.037 193.927 366.197 193.042 365.879 192.043C363.429 185.418 361.32 178.77 359.573 172.032C357.827 165.111 356.738 157.896 356.262 150.386C356.126 147.572 355.877 144.782 355.536 141.991C354.38 133.301 352.974 124.588 351.273 115.898C351.137 114.446 350.887 113.062 350.592 111.769C350.252 110.021 350.093 108.184 350.162 106.255C350.525 101.354 350.094 96.7026 348.892 92.2782C352.091 88.7157 355.359 85.0852 358.672 81.3638C359.943 79.957 361.1 78.6636 362.144 77.4837C373.308 66.5011 379.48 60.9644 390.871 50.481C391.075 50.2314 391.37 50.118 391.778 50.1633C394.297 48.416 395.727 46.0335 396.09 43.1292C400.583 38.9994 405.257 35.0057 410.135 31.1708C412.654 28.9243 412.586 26.6781 409.909 24.4093C406.619 24.6591 403.76 24.1602 400.856 22.8897L400.72 22.8897ZM399.997 -16.5902C398.613 -17.6111 397.138 -18.5867 395.595 -19.4941C387.722 -24.145 379.577 -26.6176 371.159 -26.9119L369.729 -25.8454L369.139 -23.2588C367.687 -22.0334 366.416 -20.7627 365.259 -19.4693C364.85 -18.9701 364.555 -18.4482 364.419 -17.9491C363.194 -15.2716 361.878 -12.6395 360.493 -10.0755C358.474 -6.51308 358.791 -3.15503 361.446 0.0894061C361.673 0.22553 361.968 0.338949 362.331 0.384308C378.508 4.17234 394.436 8.75454 410.069 14.0855C413.177 15.1063 416.376 15.9002 419.666 16.4673C423.977 17.193 428.152 18.3726 432.122 19.9833C434.686 21.1856 437.386 22.2519 440.291 23.1139C446.054 25.0648 451.885 26.9023 457.829 28.5809C463.343 30.1007 468.561 31.9155 473.53 33.9799C477.478 35.704 481.494 37.1332 485.578 38.3128C494.154 40.9442 502.754 43.9159 511.353 47.2053C511.965 48.4078 512.759 49.3834 513.667 50.1094C514.098 50.5405 514.37 50.9489 514.461 51.3573C518.998 63.7909 523.49 76.1337 527.959 88.4085C528.48 89.7018 529.025 90.9724 529.569 92.1976C533.154 99.3673 536.058 106.718 538.258 114.274C540.027 120.037 541.593 125.914 542.885 131.926C544.224 138.075 546.742 143.861 550.463 149.261C546.514 154.706 542.362 159.903 538.096 164.895C534.283 169.07 530.744 173.562 527.431 178.373C526.024 180.824 524.231 183.297 522.098 185.793C513.748 194.461 505.715 203.401 497.909 212.614L499.406 216.743C494.755 217.674 491.192 220.238 488.742 224.504C487.312 226.886 485.882 229.314 484.475 231.765C479.37 240.818 473.039 248.964 465.528 256.203C464.507 257.269 463.418 258.358 462.238 259.538C458.925 263.532 455.612 267.526 452.299 271.519C447.488 276.965 442.428 282.479 437.164 288.106C436.256 289.059 435.371 289.899 434.463 290.58C430.22 293.235 428.949 296.502 430.605 300.382L430.129 302.946C430.197 303.195 430.446 303.536 430.9 303.989C434.235 306.19 437.593 308.64 440.996 311.363C443.311 313.178 445.534 314.675 447.69 315.878C450.049 317.012 452.318 316.785 454.542 315.151C458.241 311.135 461.781 306.914 465.139 302.512C470.857 295.206 475.872 287.377 480.206 279.005C481.386 278.868 482.385 278.324 483.247 277.462C485.811 274.807 488.08 271.993 490.032 268.998C494.071 263.053 498.655 257.652 503.737 252.751C506.483 250.051 509.047 247.169 511.362 244.083C513.676 240.952 515.945 237.684 518.124 234.281C521.414 229.13 525.068 224.252 529.016 219.623C529.924 218.715 530.672 217.694 531.285 216.537C538.07 206.212 546.012 196.954 555.043 188.786C559.332 184.905 563.416 180.821 567.319 176.555C570.723 173.015 574.467 169.77 578.506 166.82C580.888 165.3 582.658 163.303 583.884 160.853C584.292 160.081 584.428 159.355 584.292 158.72C581.729 147.988 579.302 137.346 577.034 126.819C579.621 123.687 582.502 120.942 585.679 118.627C588.357 116.63 590.785 114.202 593.054 111.343C594.37 109.619 595.913 108.257 597.683 107.259C601.948 104.808 604.966 101.472 606.691 97.2519C608.121 96.5031 608.892 95.3232 609.051 93.7122C609.278 92.4416 608.779 91.4433 607.531 90.6946C605.217 89.1519 602.63 88.2445 599.771 87.9724C588.563 86.6572 577.173 85.5689 565.578 84.7755L555.257 48.9039C555.756 46.5442 556.596 44.434 557.753 42.5961C559.092 40.4405 559.024 38.2396 557.572 36.0161C554.6 31.9548 550.607 29.5954 545.638 28.8924C544.118 28.6429 542.688 28.2573 541.35 27.7809C537.697 27.0324 533.999 26.1477 530.209 25.1724C523.539 23.4938 516.868 21.5883 510.198 19.3652C496.811 15.5997 483.719 10.9946 470.968 5.64072C467.769 4.30226 464.615 3.32682 461.461 2.71443C447.893 0.401031 434.688 -3.13763 421.846 -7.94694C419.554 -8.83168 417.376 -9.46683 415.289 -9.82972C409.526 -10.6915 404.466 -12.9828 399.997 -16.5902ZM457.471 -44.389C454.181 -45.4551 452.208 -50.0156 448.26 -48.9716C446.354 -48.4723 445.582 -46.6571 444.266 -45.2503C442.632 -43.5257 440.84 -42.0508 439.138 -40.3943C436.029 -37.3764 433.057 -34.0408 430.129 -30.796C428.269 -28.7084 429.176 -30.4783 427.679 -28.2092C427.225 -27.5285 427.247 -26.3259 426.862 -25.7586C425.909 -24.3972 424.162 -24.0567 424.071 -21.9693C423.889 -18.0667 429.017 -16.2065 431.875 -15.7529C436.481 -15.0044 441.087 -13.1215 445.557 -11.6924C450.617 -10.0818 454.225 -13.5989 458.241 -16.7077C461.054 -18.8861 459.375 -17.2977 461.531 -20.0887C463.732 -22.925 466.727 -25.285 469.382 -27.8945C471.039 -29.5509 473.535 -32.6822 471.901 -35.3141C470.858 -37.0385 467.023 -39.1937 465.276 -40.2146C462.712 -41.6439 459.99 -42.8236 457.471 -44.389Z" fill="white"/>
</g>
<defs>
<filter id="filter0_f_1006_132829" x="-59" y="138" width="709" height="204" filterUnits="userSpaceOnUse" color-interpolation-filters="sRGB">
<feFlood flood-opacity="0" result="BackgroundImageFix"/>
<feBlend mode="normal" in="SourceGraphic" in2="BackgroundImageFix" result="shape"/>
<feGaussianBlur stdDeviation="18" result="effect1_foregroundBlur_1006_132829"/>
</filter>
<linearGradient id="paint0_linear_1006_132829" x1="286.761" y1="4.29101" x2="284.551" y2="281.758" gradientUnits="userSpaceOnUse">
<stop stop-color="#1A1A1A"/>
<stop offset="1" stop-color="#101010"/>
</linearGradient>
<linearGradient id="paint1_linear_1006_132829" x1="295.5" y1="174" x2="295.5" y2="259.97" gradientUnits="userSpaceOnUse">
<stop stop-opacity="0"/>
<stop offset="1"/>
</linearGradient>
<linearGradient id="paint2_linear_1006_132829" x1="149.264" y1="109.529" x2="499.094" y2="269.626" gradientUnits="userSpaceOnUse">
<stop stop-opacity="0.4"/>
<stop offset="1" stop-opacity="0"/>
</linearGradient>
</defs>
</svg>
