<svg preserveAspectRatio="none" viewBox="0 0 566 290" fill="none" xmlns="http://www.w3.org/2000/svg">
<mask id="mask0_1006_132787" style="mask-type:alpha" maskUnits="userSpaceOnUse" x="0" y="0" width="566" height="290">
<path d="M3.38566 3.18615L10.7726 1.04041L29.2398 0.682782L72.9456 4.97394C78.2122 3.08094 91.0949 -0.149357 141.274 1.04041L160.973 7.11977L169.283 3.90115L282.549 1.04041L322.561 0.682782L344.722 1.75565L399.816 1.57684L446.842 5.00617L454.909 1.39803L487.464 3.21825L542.53 0C542.53 0 561.486 1.39799 563.292 3.21825C565.097 5.03851 566 18.2367 566 18.2367L563.894 63.2922L564.195 83.5811C561.787 86.8927 561.18 87.4356 561.486 90.4686C561.758 95.3651 562.314 97.6115 564.495 103.87L565.097 144.448L564.195 208.113L565.097 216.151C563.417 239.428 563.543 252.42 565.398 275.697L564.796 284.994L559.079 287.497L553.061 288.212L504.216 288.033C498.489 284.118 492.573 284.679 479.794 287.944L455.371 287.855L437.815 290L388.768 285.709L345.645 287.855H297.476L291.782 285.351L262.235 287.855H191.751L133.58 286.424L120.96 287.855L101.57 285.351L96.6452 287.855H72.33L37.8578 287.139L7.69468 287.855L0.923362 284.994L0 277.484V260.854C2.31195 256.581 2.12846 252.758 0 244.225V210.966L3.07787 148.381L0.903192 122.07L1.80638 96.1047L0 53.2535L2.15451 47.8891L0 38.2333V11.0539L3.38566 3.18615Z" fill="url(#paint0_linear_1006_132787)"/>
<path d="M3.38566 3.18615L10.7726 1.04041L29.2398 0.682782L72.9456 4.97394C78.2122 3.08094 91.0949 -0.149357 141.274 1.04041L160.973 7.11977L169.283 3.90115L282.549 1.04041L322.561 0.682782L344.722 1.75565L399.816 1.57684L446.842 5.00617L454.909 1.39803L487.464 3.21825L542.53 0C542.53 0 561.486 1.39799 563.292 3.21825C565.097 5.03851 566 18.2367 566 18.2367L563.894 63.2922L564.195 83.5811C561.787 86.8927 561.18 87.4356 561.486 90.4686C561.758 95.3651 562.314 97.6115 564.495 103.87L565.097 144.448L564.195 208.113L565.097 216.151C563.417 239.428 563.543 252.42 565.398 275.697L564.796 284.994L559.079 287.497L553.061 288.212L504.216 288.033C498.489 284.118 492.573 284.679 479.794 287.944L455.371 287.855L437.815 290L388.768 285.709L345.645 287.855H297.476L291.782 285.351L262.235 287.855H191.751L133.58 286.424L120.96 287.855L101.57 285.351L96.6452 287.855H72.33L37.8578 287.139L7.69468 287.855L0.923362 284.994L0 277.484V260.854C2.31195 256.581 2.12846 252.758 0 244.225V210.966L3.07787 148.381L0.903192 122.07L1.80638 96.1047L0 53.2535L2.15451 47.8891L0 38.2333V11.0539L3.38566 3.18615Z" fill="#FF0000"/>
</mask>
<g mask="url(#mask0_1006_132787)">
<rect width="572" height="310" fill="#7A413E"/>
<g filter="url(#filter0_f_1006_132787)">
<path d="M-15.6863 208.027L-22.9997 272.978L-23 297.876C31.0089 297.515 139.927 296.144 143.527 293.546C148.028 290.298 470.956 302.206 566.597 305.453C643.11 308.051 610.104 300.762 584.037 296.793L587.413 210.192L573.911 196.12C568.097 196.481 555.795 197.635 553.095 199.367C549.719 201.532 549.157 209.11 536.78 198.285C524.403 187.46 520.464 201.532 509.213 186.377C497.961 171.222 497.961 201.532 495.148 201.532C492.335 201.532 455.204 208.027 442.264 208.027C429.324 208.027 407.946 193.955 394.444 177.717C380.941 161.48 360.688 203.697 342.685 203.697C324.682 203.697 324.682 210.193 302.741 208.028C280.8 205.863 275.737 185.295 257.734 189.625C239.731 193.955 230.729 216.688 224.541 225.348C218.352 234.008 187.41 223.183 164.906 218.853C142.402 214.523 145.778 226.43 130.025 210.193C114.273 193.955 109.772 195.037 97.3948 193.955C85.0178 192.872 74.3285 205.862 63.0767 212.358C51.8248 218.853 27.6333 223.183 17.5067 219.935C9.40533 217.337 2.12914 208.027 -0.496296 203.697L-15.6863 208.027Z" fill="url(#paint1_linear_1006_132787)" fill-opacity="0.3"/>
</g>
<rect width="572" height="310" fill="url(#paint2_linear_1006_132787)"/>
<g opacity="0.04">
<path d="M413.621 137.899C412.1 136.95 410.657 135.962 409.139 135.109C401.874 130.997 395.326 125.881 389.004 120.473C378.699 111.649 367.392 104.202 356.273 96.4984C354.497 95.2705 352.341 94.6033 350.384 93.6289C340.98 88.9672 331.623 84.2112 322.169 79.661C318.266 77.7822 314.169 76.3149 310.141 74.7148C306.722 73.3513 303.283 72.034 299.828 70.7455C299.095 70.4703 298.27 70.4482 297.486 70.3092C297.428 70.4228 297.368 70.5288 297.303 70.6445C293.747 64.1658 290.19 57.6872 286.581 51.1339C287.135 50.768 287.665 50.4009 288.203 50.0639C294.044 46.3629 299.867 42.6263 305.753 39.0021C307.117 38.1667 308.701 37.6846 310.217 37.1073C322.225 32.5326 334.272 28.0689 346.456 23.9815C358.522 19.9352 370.535 15.725 382.572 11.6053C384.577 10.9166 386.605 10.286 388.641 9.71039C398.663 6.85149 408.719 4.11327 418.703 1.14334C428.327 -1.71844 437.924 -4.71053 447.467 -7.83419C451.277 -9.08306 454.91 -10.8762 458.66 -12.3363C462.119 -13.6823 465.607 -14.9475 469.107 -16.175C473.965 -17.8787 478.812 -19.6201 483.718 -21.1503C486.864 -22.133 490.122 -22.7729 493.339 -23.5314C493.536 -23.5784 493.869 -23.4028 494.016 -23.2244C494.403 -22.7387 494.737 -22.2062 495.055 -21.677C496.209 -19.7471 497.307 -17.7853 498.522 -15.8969C499.179 -14.877 499.627 -13.8232 499.881 -12.6504C500.078 -11.7704 500.465 -10.9353 500.706 -10.068C500.774 -9.8266 500.657 -9.51775 500.577 -9.25165C499.158 -4.19825 497.789 0.865188 496.291 5.89973C494.447 12.1039 492.913 18.3758 491.848 24.7609C491.765 25.2474 491.617 25.7356 491.42 26.189C483.609 43.9893 475.649 61.7174 466.712 78.9944C463.841 84.5417 461.209 90.2175 458.471 95.8334C458.339 96.1142 458.225 96.4059 458.132 96.7085C454.779 107.649 450.95 118.422 446.861 129.105C446.611 129.751 446.675 130.124 447.192 130.614C453.585 136.627 459.863 142.778 466.36 148.672C469.918 151.899 473.771 154.816 477.609 157.713C484.843 163.167 492.251 168.401 499.426 173.936C504.122 177.553 508.474 181.623 513.106 185.331C518.346 189.535 523.038 194.243 527.185 199.524C533.368 207.401 540.288 214.608 547.414 221.62C548.017 222.216 548.198 222.775 548.027 223.587C547.747 224.965 547.542 226.355 547.363 227.747C547.291 228.303 547.082 228.63 546.54 228.837C542.513 230.35 538.492 231.886 534.468 233.414C531.962 234.365 529.497 235.466 526.942 236.244C523.692 237.231 520.383 238.007 517.078 238.798C510.043 240.483 503.004 242.185 495.936 243.749C488.844 245.319 481.687 246.623 474.609 248.271C471.101 249.087 467.682 250.341 464.262 251.505C458.328 253.534 452.426 255.65 446.512 257.721C441.594 259.442 436.692 261.19 431.75 262.853C426.398 264.645 421.007 266.327 415.644 268.106C404.344 271.85 392.683 274.239 381.225 277.384C378.696 278.081 376.257 278.314 373.694 277.784C371.959 277.431 370.18 277.244 368.424 277.018C367.903 276.952 367.627 276.834 367.534 276.21C366.463 269.258 365.352 262.308 364.274 255.358C364.21 254.954 364.265 254.483 364.41 254.101C366.138 249.368 368.261 244.834 370.947 240.542C374.421 234.98 377.784 229.337 381.004 223.619C383.839 218.585 386.297 213.332 389.114 208.288C392.22 202.715 394.472 196.837 396.405 190.778C401.918 173.513 407.61 156.312 413.229 139.082C413.35 138.731 413.469 138.372 413.621 137.899ZM349.306 53.3033C349.955 54.122 350.471 54.9537 351.158 55.6157C356.738 60.953 362.6 65.9601 368.665 70.7396C368.884 70.9143 369.134 71.0559 369.375 71.192C375.608 74.7705 381.759 78.4936 388.093 81.8815C395.781 85.9974 403.032 90.6983 409.554 96.5048C409.672 96.61 409.788 96.7076 409.92 96.801C410.101 96.9292 410.281 97.0499 410.466 97.1609C414.536 99.5786 419.1 100.281 423.665 100.96C424.468 101.077 425.049 100.834 425.361 99.9181C425.856 98.4388 426.389 96.949 427.118 95.5833C432.464 85.5419 437.86 75.5353 443.229 65.5199C443.597 64.8322 443.936 64.1282 444.219 63.3991C445.693 59.6472 447.151 55.892 448.606 52.1292C450.022 48.4586 451.668 44.8542 452.772 41.0836C455.137 32.995 457.217 24.815 459.413 16.6757C459.48 16.4213 459.513 16.1603 459.59 15.7404C459.094 15.8787 458.743 15.9848 458.387 16.0758C448.423 18.6502 438.465 21.2471 428.493 23.7913C422.659 25.2794 416.921 26.9928 411.354 29.3495C404.698 32.1639 397.914 34.6892 391.17 37.3008C385.764 39.393 380.32 41.4064 374.905 43.4685C368.936 45.7502 362.971 48.047 357.006 50.3437C354.472 51.3104 351.949 52.2901 349.306 53.3033Z" fill="white"/>
</g>
</g>
<defs>
<filter id="filter0_f_1006_132787" x="-59" y="138" width="709" height="204" filterUnits="userSpaceOnUse" color-interpolation-filters="sRGB">
<feFlood flood-opacity="0" result="BackgroundImageFix"/>
<feBlend mode="normal" in="SourceGraphic" in2="BackgroundImageFix" result="shape"/>
<feGaussianBlur stdDeviation="18" result="effect1_foregroundBlur_1006_132787"/>
</filter>
<linearGradient id="paint0_linear_1006_132787" x1="286.761" y1="4.29101" x2="284.551" y2="281.758" gradientUnits="userSpaceOnUse">
<stop stop-color="#1A1A1A"/>
<stop offset="1" stop-color="#101010"/>
</linearGradient>
<linearGradient id="paint1_linear_1006_132787" x1="295.5" y1="174" x2="295.5" y2="259.97" gradientUnits="userSpaceOnUse">
<stop stop-opacity="0"/>
<stop offset="1"/>
</linearGradient>
<linearGradient id="paint2_linear_1006_132787" x1="149.264" y1="109.529" x2="499.094" y2="269.626" gradientUnits="userSpaceOnUse">
<stop stop-opacity="0.4"/>
<stop offset="1" stop-opacity="0"/>
</linearGradient>
</defs>
</svg>
