<svg preserveAspectRatio="none" viewBox="0 0 566 290" fill="none" xmlns="http://www.w3.org/2000/svg"><mask id="mask0_1361_53269" style="mask-type:alpha" maskUnits="userSpaceOnUse" x="0" y="0" width="566" height="290"><path d="M3.38566 3.18615L10.7726 1.04041L29.2398 0.682782L72.9456 4.97394C78.2122 3.08094 91.0949 -0.149357 141.274 1.04041L160.973 7.11977L169.283 3.90115L282.549 1.04041L322.561 0.682782L344.722 1.75565L399.816 1.57684L446.842 5.00617L454.909 1.39803L487.464 3.21825L542.53 0C542.53 0 561.486 1.39799 563.292 3.21825C565.097 5.03851 566 18.2367 566 18.2367L563.894 63.2922L564.195 83.5811C561.787 86.8927 561.18 87.4356 561.486 90.4686C561.758 95.3651 562.314 97.6115 564.495 103.87L565.097 144.448L564.195 208.113L565.097 216.151C563.417 239.428 563.543 252.42 565.398 275.697L564.796 284.994L559.079 287.497L553.061 288.212L504.216 288.033C498.489 284.118 492.573 284.679 479.794 287.944L455.371 287.855L437.815 290L388.768 285.709L345.645 287.855H297.476L291.782 285.351L262.235 287.855H191.751L133.58 286.424L120.96 287.855L101.57 285.351L96.6452 287.855H72.33L37.8578 287.139L7.69468 287.855L0.923362 284.994L0 277.484V260.854C2.31195 256.581 2.12846 252.758 0 244.225V210.966L3.07787 148.381L0.903192 122.07L1.80638 96.1047L0 53.2535L2.15451 47.8891L0 38.2333V11.0539L3.38566 3.18615Z" fill="url(#paint0_linear_1361_53269)"/><path d="M3.38566 3.18615L10.7726 1.04041L29.2398 0.682782L72.9456 4.97394C78.2122 3.08094 91.0949 -0.149357 141.274 1.04041L160.973 7.11977L169.283 3.90115L282.549 1.04041L322.561 0.682782L344.722 1.75565L399.816 1.57684L446.842 5.00617L454.909 1.39803L487.464 3.21825L542.53 0C542.53 0 561.486 1.39799 563.292 3.21825C565.097 5.03851 566 18.2367 566 18.2367L563.894 63.2922L564.195 83.5811C561.787 86.8927 561.18 87.4356 561.486 90.4686C561.758 95.3651 562.314 97.6115 564.495 103.87L565.097 144.448L564.195 208.113L565.097 216.151C563.417 239.428 563.543 252.42 565.398 275.697L564.796 284.994L559.079 287.497L553.061 288.212L504.216 288.033C498.489 284.118 492.573 284.679 479.794 287.944L455.371 287.855L437.815 290L388.768 285.709L345.645 287.855H297.476L291.782 285.351L262.235 287.855H191.751L133.58 286.424L120.96 287.855L101.57 285.351L96.6452 287.855H72.33L37.8578 287.139L7.69468 287.855L0.923362 284.994L0 277.484V260.854C2.31195 256.581 2.12846 252.758 0 244.225V210.966L3.07787 148.381L0.903192 122.07L1.80638 96.1047L0 53.2535L2.15451 47.8891L0 38.2333V11.0539L3.38566 3.18615Z" fill="#FF0000"/></mask><g mask="url(#mask0_1361_53269)"><g opacity="0.95"><rect width="572" height="310" fill="black"/><rect width="572" height="310" fill="url(#paint1_radial_1361_53269)" fill-opacity="0.7"/></g><g filter="url(#filter0_f_1361_53269)"><path d="M-15.6863 208.027L-22.9997 272.978L-23 297.876C31.0089 297.515 139.927 296.144 143.527 293.546C148.028 290.298 470.956 302.206 566.597 305.453C643.11 308.051 610.104 300.762 584.037 296.793L587.413 210.192L573.911 196.12C568.097 196.481 555.795 197.635 553.095 199.367C549.719 201.532 549.157 209.11 536.78 198.285C524.403 187.46 520.464 201.532 509.213 186.377C497.961 171.222 497.961 201.532 495.148 201.532C492.335 201.532 455.204 208.027 442.264 208.027C429.324 208.027 407.946 193.955 394.444 177.717C380.941 161.48 360.688 203.697 342.685 203.697C324.682 203.697 324.682 210.193 302.741 208.028C280.8 205.863 275.737 185.295 257.734 189.625C239.731 193.955 230.729 216.688 224.541 225.348C218.352 234.008 187.41 223.183 164.906 218.853C142.402 214.523 145.778 226.43 130.025 210.193C114.273 193.955 109.772 195.037 97.3948 193.955C85.0178 192.872 74.3285 205.862 63.0767 212.358C51.8248 218.853 27.6333 223.183 17.5067 219.935C9.40533 217.337 2.12914 208.027 -0.496296 203.697L-15.6863 208.027Z" fill="url(#paint2_linear_1361_53269)" fill-opacity="0.3"/></g><rect width="572" height="310" fill="url(#paint3_linear_1361_53269)"/><g opacity="0.04"><path d="M324.121 134.196C326.697 135.511 329.433 136.675 331.962 138.137C340.948 143.348 349.899 148.624 358.814 153.965C359.599 154.513 360.279 155.199 360.819 155.989C365.787 162.424 371.475 168.271 377.772 173.417C380.376 175.333 383.081 177.108 385.876 178.735C384.098 180.272 381.975 181.339 379.205 180.228C378.333 180.033 377.424 180.09 376.583 180.393C364.1 183.392 351.448 183.398 338.83 181.871C332.945 181.037 327.278 179.071 322.143 176.082C321.549 175.746 321.085 175.22 320.828 174.588C316.281 162.072 310.617 149.92 308.412 136.653C307.541 131.246 306.995 125.791 306.776 120.318C307.317 120.93 307.814 121.581 308.261 122.264C312.054 129.223 316.984 135.501 322.846 140.838C324.519 142.298 326.281 143.646 327.999 145.05L328.405 144.675C326.852 141.354 325.286 138.025 323.722 134.707L324.121 134.196Z" fill="white"/><path d="M354.36 141.759C353.197 141.401 352.078 140.914 351.023 140.307C346.628 136.882 342.233 133.457 337.981 129.852C331.049 123.964 324.684 117.441 318.97 110.367C315.826 106.514 315.278 102.08 314.982 97.6462C314.759 92.3903 316.282 87.2071 319.315 82.9036C321.237 79.9674 322.799 76.804 324.627 73.8088C326.799 70.2242 329.049 66.6828 331.377 63.1847C331.717 62.6644 332.754 62.045 333.076 62.212C333.738 62.619 334.211 63.2703 334.395 64.0245C335.223 67.7237 335.725 71.496 336.798 75.1176C338.571 81.157 340.606 87.0355 344.614 92.1989C347.819 96.3231 348.953 101.389 348.869 106.876C348.958 111.758 349.5 116.621 350.488 121.403C351.483 127.377 352.828 133.285 354.01 139.229C354.14 139.86 354.198 140.474 354.36 141.759Z" fill="white"/><path d="M496.638 46.9069C497.219 44.4073 497.729 42.4022 498.259 40.438C498.456 39.6876 498.764 38.4113 499.132 38.3744C499.589 38.3232 500.051 38.364 500.492 38.4943C500.933 38.6245 501.343 38.8417 501.698 39.133C503.594 40.9291 505.255 42.9571 506.643 45.1689C509.004 49.4592 511.118 53.8813 512.973 58.4134C515.025 63.4562 514.441 68.7474 514.079 74.1142C513.715 79.2651 511.596 83.4076 508.682 87.3634C508.014 88.2157 507.206 88.9477 506.291 89.5275C504.068 91.016 502.746 90.7652 500.96 88.7499C496.56 83.7177 493.269 77.8176 491.299 71.4321C490.281 68.3108 488.383 65.4889 487.335 62.3857C485.417 56.7205 483.754 50.9752 482.133 45.2093C480.934 40.921 479.941 36.5865 478.948 32.252C478.79 31.5469 478.926 30.2177 479.3 30.0543C479.703 29.9164 480.132 29.8661 480.556 29.9067C480.98 29.9473 481.391 30.0779 481.76 30.2897C483.007 31.1436 484.13 32.1649 485.098 33.3248C488.215 37.0584 491.345 40.8463 494.465 44.5908C495.018 45.276 495.704 45.8969 496.638 46.9069Z" fill="white"/><path d="M531.233 79.4913C531.834 84.0617 532.471 87.929 532.851 91.8196C533.212 95.8188 532.471 99.8411 530.708 103.452C529.117 106.793 527.528 110.144 526.063 113.537C523.616 119.222 518.816 122.552 514.005 125.93C510.76 128.205 507.584 130.579 504.409 132.964C502.672 134.276 501.012 133.896 500.761 131.958C499.694 124.69 499.398 117.454 501.523 110.28C502.051 108.51 502.413 106.663 502.97 104.921C503.177 104.287 503.562 103.726 504.081 103.305C511.205 97.7116 516.708 90.3218 520.02 81.8984C521.464 78.4084 523.913 75.3313 526.051 72.1415C526.96 70.7988 528.173 71.1198 528.737 72.52C529.754 75.0263 530.554 77.5813 531.233 79.4913Z" fill="white"/><path d="M442.426 111.466C442.298 112.685 442.043 113.887 441.665 115.054C438.587 121.689 435.496 128.27 432.408 134.863C431.449 136.9 430.485 137.23 428.522 136.108C427.828 135.666 427.185 135.149 426.603 134.567C422.74 131.072 418.885 127.561 415.038 124.032C414.376 123.45 413.75 122.829 413.161 122.174C412.385 121.372 411.882 120.346 411.725 119.241C411.568 118.137 411.765 117.011 412.287 116.024C415.191 109.12 418 102.146 419.008 94.6185C419.103 93.9707 419.738 93.3956 420.124 92.7738C420.722 93.1526 421.332 93.4831 421.894 93.9041C423.476 95.1107 424.955 96.4657 426.613 97.5528C431.539 100.593 436.041 104.27 440.002 108.488C440.847 109.359 441.596 110.41 442.426 111.466Z" fill="white"/><path d="M478.129 50.4118C478.524 52.1801 478.825 53.5253 479.124 54.8596C479.5 56.5411 478.64 56.8249 477.289 56.5006C476.746 56.3956 476.234 56.1671 475.794 55.8329C471.134 51.7837 465.257 49.9436 459.94 47.0894C454.181 43.9925 448.445 40.8449 442.647 37.8252C439.73 36.3136 436.579 35.1847 434.457 32.4814C433.915 31.7939 433.099 30.8488 433.239 30.2022C433.425 29.7844 433.702 29.4135 434.05 29.1167C434.399 28.82 434.809 28.6049 435.251 28.4873C442.864 26.6816 450.819 26.9216 458.306 29.1828C460.156 29.7028 461.978 30.2975 463.821 30.8874C468.378 32.3851 470.961 36.1246 473.67 39.6649C476.046 42.8105 477.58 46.509 478.129 50.4118Z" fill="white"/><path d="M350.329 89.0291C348.99 86.2074 347.146 83.5217 346.402 80.5554C345.092 75.0082 344.065 69.398 343.324 63.7465C343.275 63.0795 343.359 62.4094 343.571 61.775C343.784 61.1407 344.121 60.5549 344.563 60.0518C349.537 54.7876 355.537 50.5952 362.194 47.7327C363.701 47.0763 365.187 46.3223 366.734 45.7937C367.71 45.4582 368.743 45.3238 369.772 45.3986C372.101 45.6066 372.713 47.1212 371.303 48.9748C369.682 51.1146 367.637 52.9851 366.296 55.2558C360.381 65.0291 355.572 75.428 351.957 86.261C351.68 87.1093 351.386 87.9382 351.085 88.7347L350.329 89.0291Z" fill="white"/><path d="M482.158 225.935C481.957 225.134 481.827 224.316 481.771 223.492C481.718 222.756 481.878 222.021 482.232 221.373C483.99 219.031 485.925 216.821 487.678 214.458C489.431 212.095 493.662 210.965 496.19 212.063C498.717 213.16 498.768 215.325 498.931 217.43C499.165 220.716 499.16 224.009 499.337 227.296C499.408 228.533 499.022 229.405 497.756 229.461C493.24 229.674 488.717 229.855 484.164 229.905C483.64 229.909 482.937 229.109 482.644 228.514C482.347 227.676 482.152 226.806 482.063 225.922L482.158 225.935Z" fill="white"/><path d="M386.758 178.503C386.758 178.503 372.339 171.477 359.752 154.085C359.752 154.085 345.179 145.659 336.157 140.422C331.552 137.659 326.765 135.21 321.83 133.091L327.967 144.966C323.838 141.6 319.952 137.947 316.336 134.036C311.741 128.799 306.719 119.101 306.719 119.101C306.737 126.446 307.467 133.771 308.899 140.975C311.266 152.828 321.379 176.344 321.379 176.344C321.379 176.344 336.599 188.886 378.298 180.26C378.298 180.26 381.37 183.126 386.758 178.503Z" fill="white"/><path d="M354.361 141.759C352.962 141.499 351.599 141.073 350.301 140.492C349.607 139.941 334.639 127.912 329.278 122.414C323.917 116.915 317.764 110.478 316.167 106.552C314.304 101.27 314.122 95.5417 315.645 90.1505C317.37 84.5014 332.256 61.8036 333.623 59.6522C333.623 59.6522 336.244 72.5876 338.707 80.4321C341.17 88.2765 344.074 91.0555 345.797 93.6546C347.83 96.6363 348.963 100.139 349.059 103.747C349.606 113.233 350.81 122.67 352.665 131.989C354.615 140.7 354.361 141.759 354.361 141.759Z" fill="white"/><path d="M350.561 90.0706C348.976 87.8379 347.751 85.3718 346.928 82.7612C346.707 81.774 343.896 70.4874 343.526 66.2869C343.156 62.0863 342.433 61.4051 346.846 57.5695C352.506 52.6994 358.883 48.7286 365.752 45.7967C372.955 42.9087 376.016 44.502 376.016 44.502C376.016 44.502 369.44 50.8039 365.877 57.1606C361.707 64.172 358.098 71.5009 355.083 79.0791C353.771 82.8198 352.261 86.4887 350.561 90.0706Z" fill="white"/><path d="M424.911 133.374C421.327 130.462 416.308 125.525 413.554 123.009C412.836 122.349 412.281 121.858 411.858 121.497C411.481 121.169 411.214 120.734 411.094 120.249C410.973 119.765 411.005 119.255 411.184 118.789C411.689 117.479 412.439 115.58 413.188 113.726C414.528 110.385 417.098 104.023 417.597 101.154C418.096 98.2859 419.015 94.2867 418.999 93.8116C418.996 93.5391 419.456 92.9462 419.843 92.4836C419.965 92.3434 420.137 92.257 420.322 92.2434C420.507 92.2297 420.69 92.2898 420.831 92.4107C421.899 93.3107 424.644 95.5329 429.51 99.0233C435.965 103.65 440.982 108.224 442.906 111.313C442.57 113.463 441.879 115.543 440.86 117.467C439.187 120.951 433.606 133.023 431.635 136.858C431.561 136.989 431.462 137.103 431.344 137.195C431.225 137.286 431.089 137.353 430.944 137.39C430.799 137.428 430.648 137.436 430.5 137.414C430.352 137.392 430.21 137.341 430.082 137.263C429.107 136.627 427.457 135.424 424.911 133.374Z" fill="white"/><path d="M532.647 150.544C534.03 147.956 534.933 145.111 536.162 142.444C540.006 134.133 543.87 125.909 547.708 117.566C547.878 117.318 547.969 117.024 547.969 116.724C547.969 116.423 547.878 116.13 547.707 115.882C547.537 115.634 547.296 115.443 547.015 115.335C546.734 115.227 546.427 115.206 546.134 115.275C545.382 115.359 544.658 115.611 544.017 116.011C542.007 117.224 539.934 118.566 537.874 119.813C530.638 124.189 523.351 128.486 516.17 132.952C513.665 134.504 511.637 136.963 509.012 138.131C503.249 140.674 499.621 145.314 495.988 150.034C494.272 152.253 492.75 154.632 491.185 156.965C486.189 164.417 479.014 169.417 471.713 174.264C464.412 179.11 457.077 184.01 449.741 188.853C447.455 190.367 445.196 192.149 442.171 190.969C440.917 190.464 439.751 189.791 438.26 189.042C438.782 187.898 439.385 186.793 440.063 185.733C441.181 184.253 442.434 182.868 443.681 181.506C444.985 180.165 445.887 178.486 446.285 176.659C446.683 174.832 446.56 172.931 445.932 171.171C444.891 167.645 442.485 165.609 438.94 165.423C434.322 165.18 430.725 167.102 429.537 170.614C428.65 173.228 428.948 176.545 432.2 177.412C432.463 177.559 432.689 177.765 432.861 178.012C433.033 178.26 433.146 178.543 433.193 178.841C433.503 181.727 432.733 184.626 431.032 186.98C430.056 188.531 429.057 189.268 427.212 188.974C418.453 187.665 409.507 187.355 401.048 184.224C400.032 183.801 398.936 183.599 397.835 183.633C393.796 183.991 389.754 184.383 385.757 185.027C382.451 185.55 379.152 186.767 375.787 187.178C365.001 188.533 354.191 189.734 343.37 190.834C340.616 191.12 337.803 190.941 334.357 191.04C335.458 191.933 336.029 192.545 336.685 192.98C342.243 196.82 348.359 199.785 354.82 201.771C360.479 203.454 360.442 203.543 364.533 199.289C365.551 198.23 366.598 197.198 367.911 195.879C369.697 199.523 366.459 201.524 366.138 204.421C366.569 204.66 367.025 204.852 367.498 204.993C370.073 205.488 372.636 206.031 375.221 206.364C382.858 207.354 390.545 208.561 398.167 209.077C404.653 209.505 411.188 209.09 417.706 208.998C419.186 208.986 419.584 209.387 419.616 211.009C419.702 215.216 417.611 218.464 415.634 221.868C414.745 223.4 413.868 225.396 414.106 227.017C414.774 231.371 415.755 235.67 417.042 239.882C417.575 241.562 418.635 243.026 420.065 244.058C422.75 245.861 425.757 247.113 428.569 248.717C431.569 250.502 434.895 251.671 438.354 252.157C441.812 252.642 445.334 252.434 448.712 251.545C451.656 250.886 454.556 249.975 457.447 249.077C459.793 248.347 462.397 247.901 464.355 246.551C467.931 244.076 471.406 241.305 472.465 236.602C472.935 234.532 473.606 232.512 474.469 230.572C475.866 227.434 477.662 224.446 478.951 221.287C480.606 217.19 483.172 213.523 486.454 210.562C486.989 210.091 487.396 209.494 487.64 208.825C487.884 208.156 487.956 207.437 487.849 206.733C487.743 206.029 487.461 205.364 487.031 204.797C486.6 204.23 486.034 203.78 485.385 203.488C481.43 201.879 477.352 200.581 473.432 198.918C472.385 198.496 471.258 198.306 470.13 198.362C469.002 198.418 467.899 198.718 466.898 199.242C460.47 201.922 455.651 206.543 451.337 211.838C450.698 212.746 450.113 213.691 449.586 214.668C453.699 215.866 457.4 217.213 461.223 217.93C463.109 218.125 465.011 217.767 466.697 216.898C469.505 215.632 472.093 213.891 474.816 212.393C475.128 212.209 475.627 212.348 476.171 212.329C476.006 212.764 475.983 213.02 475.848 213.13C475.379 213.531 474.863 213.829 474.38 214.267C471.648 216.895 466.941 218.04 467.553 223.223C467.553 223.292 467.532 223.36 467.494 223.418C466.745 225.488 465.863 227.508 464.855 229.466C463.613 231.566 462.386 234.188 460.442 235.238C457.572 236.791 454.032 237.185 450.787 237.98C449.527 238.262 448.16 238.169 446.914 238.516C440.473 240.322 434.917 238.183 429.813 234.597C425.762 231.79 424.819 228.139 426.664 223.637C427.986 220.475 429.49 217.392 431.169 214.404C432.522 211.936 431.699 209.432 429.044 208.682L427.826 208.34L427.956 207.695C430.096 207.956 432.219 208.336 434.315 208.835C437.675 209.826 440.931 211.171 444.275 212.199C444.692 212.306 445.127 212.317 445.549 212.233C445.97 212.148 446.367 211.97 446.711 211.711C449.892 208.493 452.756 204.924 456.087 201.866C460.885 197.455 466.924 195.078 473.095 193.389C477.504 192.186 482.193 191.979 486.724 191.17C497.323 189.23 507.484 185.389 516.714 179.833C522.16 176.586 527.325 172.901 531.46 167.977C535.417 163.23 539.641 158.651 543.65 153.982C544.216 153.185 544.715 152.342 545.14 151.462C538.863 152.32 533.822 155.134 528.186 157.273C529.792 155.111 531.281 152.865 532.647 150.544Z" fill="white"/><path d="M495.71 211.943C493.554 211.488 491.307 211.763 489.324 212.723C488.149 213.487 484.727 217.671 483.48 219.442C482.234 221.213 481.174 221.883 481.553 223.576C481.827 224.802 482.221 227.527 482.412 228.943C482.447 229.207 482.572 229.451 482.764 229.636C482.957 229.82 483.206 229.934 483.472 229.959C484.958 230.091 486.45 230.137 487.941 230.097C491.56 230.005 496.46 229.672 498.479 229.516C498.606 229.51 498.731 229.48 498.845 229.426C498.96 229.371 499.063 229.295 499.149 229.201C499.234 229.106 499.299 228.996 499.341 228.876C499.383 228.756 499.401 228.629 499.393 228.503L499.264 225.786L497.518 226.598C497.775 226.473 498.141 216.639 498.141 216.639C498.141 216.639 497.485 212.537 495.71 211.943Z" fill="white"/><path d="M501.229 135.373C500.527 131.359 500.081 127.304 499.892 123.233C499.342 114.858 503.113 103.67 503.113 103.67C506.261 101.496 509.105 98.9131 511.571 95.9898C514.167 92.8549 516.366 89.4128 518.119 85.7411C518.991 83.9283 520.293 81.0282 520.293 81.0282C521.507 78.7278 522.848 76.4959 524.308 74.3427C525.32 72.7597 526.557 71.3317 527.98 70.1033C529.376 73.2001 530.535 76.3988 531.445 79.6715C532.205 83.0671 533.521 91.4985 532.914 96.4304C532.306 101.362 528.983 108.178 526.939 112.201C525.094 116.29 522.293 119.878 518.773 122.664C514.488 126.049 501.229 135.373 501.229 135.373Z" fill="white"/><path d="M503.719 91.5956C503.719 91.5956 502.137 90.594 498.87 86.4953C496.134 83.0977 493.975 79.2744 492.48 75.1779C491.643 72.4603 490.596 69.8114 489.349 67.2551C487.697 64.0023 487.233 62.8985 487.233 62.8985C487.233 62.8985 483.54 50.8298 481.256 42.5122C479.935 37.85 478.94 33.1012 478.28 28.3005C481.295 29.3813 483.931 31.312 485.868 33.8589C489.104 38.1241 496.577 46.6358 496.577 46.6358L498.763 38.5597C498.818 38.3477 498.954 38.1653 499.141 38.0511C499.329 37.937 499.553 37.8999 499.767 37.9477C500.718 38.1433 501.602 38.5812 502.333 39.2188C505.13 42.1759 507.448 45.5504 509.204 49.2209L511.431 53.7689C511.431 53.7689 515.272 61.3962 514.914 68.6646C514.498 75.7294 513.621 87.1012 503.719 91.5956Z" fill="white"/><path d="M431.444 29.3167C433.379 32.159 435.979 34.4863 439.02 36.0966C444.216 38.9209 462.908 48.8288 467.614 51.045C470.334 52.2584 472.901 53.7868 475.262 55.5987C476.625 56.3453 478.092 56.8848 479.614 57.1993C479.614 57.1993 478.758 49.5533 477.037 45.3817C475.317 41.2102 471.27 35.2124 467.074 32.3694C462.878 29.5265 453.299 27.2047 445.046 26.9788C440.397 26.7674 435.756 27.565 431.444 29.3167Z" fill="white"/></g></g><defs><filter id="filter0_f_1361_53269" x="-59" y="138" width="709" height="204" filterUnits="userSpaceOnUse" color-interpolation-filters="sRGB"><feFlood flood-opacity="0" result="BackgroundImageFix"/><feBlend mode="normal" in="SourceGraphic" in2="BackgroundImageFix" result="shape"/><feGaussianBlur stdDeviation="18" result="effect1_foregroundBlur_1361_53269"/></filter><linearGradient id="paint0_linear_1361_53269" x1="286.761" y1="4.29101" x2="284.551" y2="281.758" gradientUnits="userSpaceOnUse"><stop stop-color="#1A1A1A"/><stop offset="1" stop-color="#101010"/></linearGradient><radialGradient id="paint1_radial_1361_53269" cx="0" cy="0" r="1" gradientUnits="userSpaceOnUse" gradientTransform="translate(49 155) rotate(2.88116) scale(457.578 1273.36)"><stop stop-opacity="0"/><stop offset="1" stop-color="#B8BBBE" stop-opacity="0.19"/></radialGradient><linearGradient id="paint2_linear_1361_53269" x1="295.5" y1="174" x2="295.5" y2="259.97" gradientUnits="userSpaceOnUse"><stop stop-opacity="0"/><stop offset="1"/></linearGradient><linearGradient id="paint3_linear_1361_53269" x1="149.264" y1="109.529" x2="499.094" y2="269.626" gradientUnits="userSpaceOnUse"><stop stop-opacity="0.4"/><stop offset="1" stop-opacity="0"/></linearGradient></defs></svg>