<svg preserveAspectRatio="none" viewBox="0 0 566 290" fill="none" xmlns="http://www.w3.org/2000/svg">
<mask id="mask0_1006_132775" style="mask-type:alpha" maskUnits="userSpaceOnUse" x="0" y="0" width="566" height="290">
<path d="M3.38566 3.18615L10.7726 1.04041L29.2398 0.682782L72.9456 4.97394C78.2122 3.08094 91.0949 -0.149357 141.274 1.04041L160.973 7.11977L169.283 3.90115L282.549 1.04041L322.561 0.682782L344.722 1.75565L399.816 1.57684L446.842 5.00617L454.909 1.39803L487.464 3.21825L542.53 0C542.53 0 561.486 1.39799 563.292 3.21825C565.097 5.03851 566 18.2367 566 18.2367L563.894 63.2922L564.195 83.5811C561.787 86.8927 561.18 87.4356 561.486 90.4686C561.758 95.3651 562.314 97.6115 564.495 103.87L565.097 144.448L564.195 208.113L565.097 216.151C563.417 239.428 563.543 252.42 565.398 275.697L564.796 284.994L559.079 287.497L553.061 288.212L504.216 288.033C498.489 284.118 492.573 284.679 479.794 287.944L455.371 287.855L437.815 290L388.768 285.709L345.645 287.855H297.476L291.782 285.351L262.235 287.855H191.751L133.58 286.424L120.96 287.855L101.57 285.351L96.6452 287.855H72.33L37.8578 287.139L7.69468 287.855L0.923362 284.994L0 277.484V260.854C2.31195 256.581 2.12846 252.758 0 244.225V210.966L3.07787 148.381L0.903192 122.07L1.80638 96.1047L0 53.2535L2.15451 47.8891L0 38.2333V11.0539L3.38566 3.18615Z" fill="url(#paint0_linear_1006_132775)"/>
<path d="M3.38566 3.18615L10.7726 1.04041L29.2398 0.682782L72.9456 4.97394C78.2122 3.08094 91.0949 -0.149357 141.274 1.04041L160.973 7.11977L169.283 3.90115L282.549 1.04041L322.561 0.682782L344.722 1.75565L399.816 1.57684L446.842 5.00617L454.909 1.39803L487.464 3.21825L542.53 0C542.53 0 561.486 1.39799 563.292 3.21825C565.097 5.03851 566 18.2367 566 18.2367L563.894 63.2922L564.195 83.5811C561.787 86.8927 561.18 87.4356 561.486 90.4686C561.758 95.3651 562.314 97.6115 564.495 103.87L565.097 144.448L564.195 208.113L565.097 216.151C563.417 239.428 563.543 252.42 565.398 275.697L564.796 284.994L559.079 287.497L553.061 288.212L504.216 288.033C498.489 284.118 492.573 284.679 479.794 287.944L455.371 287.855L437.815 290L388.768 285.709L345.645 287.855H297.476L291.782 285.351L262.235 287.855H191.751L133.58 286.424L120.96 287.855L101.57 285.351L96.6452 287.855H72.33L37.8578 287.139L7.69468 287.855L0.923362 284.994L0 277.484V260.854C2.31195 256.581 2.12846 252.758 0 244.225V210.966L3.07787 148.381L0.903192 122.07L1.80638 96.1047L0 53.2535L2.15451 47.8891L0 38.2333V11.0539L3.38566 3.18615Z" fill="#FF0000"/>
</mask>
<g mask="url(#mask0_1006_132775)">
<rect width="572" height="310" fill="#583F0F"/>
<rect width="572" height="310" fill="url(#paint1_radial_1006_132775)" fill-opacity="0.7"/>
<g filter="url(#filter0_f_1006_132775)">
<path d="M-15.6863 208.027L-22.9997 272.978L-23 297.876C31.0089 297.515 139.927 296.144 143.527 293.546C148.028 290.298 470.956 302.206 566.597 305.453C643.11 308.051 610.104 300.762 584.037 296.793L587.413 210.192L573.911 196.12C568.097 196.481 555.795 197.635 553.095 199.367C549.719 201.532 549.157 209.11 536.78 198.285C524.403 187.46 520.464 201.532 509.213 186.377C497.961 171.222 497.961 201.532 495.148 201.532C492.335 201.532 455.204 208.027 442.264 208.027C429.324 208.027 407.946 193.955 394.444 177.717C380.941 161.48 360.688 203.697 342.685 203.697C324.682 203.697 324.682 210.193 302.741 208.028C280.8 205.863 275.737 185.295 257.734 189.625C239.731 193.955 230.729 216.688 224.541 225.348C218.352 234.008 187.41 223.183 164.906 218.853C142.402 214.523 145.778 226.43 130.025 210.193C114.273 193.955 109.772 195.037 97.3948 193.955C85.0178 192.872 74.3285 205.862 63.0767 212.358C51.8248 218.853 27.6333 223.183 17.5067 219.935C9.40533 217.337 2.12914 208.027 -0.496296 203.697L-15.6863 208.027Z" fill="url(#paint2_linear_1006_132775)" fill-opacity="0.3"/>
</g>
<rect width="572" height="310" fill="url(#paint3_linear_1006_132775)"/>
<g opacity="0.04">
<path d="M296.234 41.5256L287.077 44.3174L284.726 35.7941L295.518 32.5213L302.66 39.1049L310.129 45.2445L317.22 51.691L323.418 56.9135L330.05 61.6245L337.625 64.5871L344.679 68.6516L352.331 71.215L361.275 73.5564L370.044 76.1231L362.641 77.0159L355.194 76.7625L362.298 81.4554L369.909 85.4025L377.829 88.7473L385.371 92.8522L393.124 96.5455L400.767 98.8973L407.738 102.796L415.126 105.811L421.989 109.954L428.838 109.682L435.642 108.44L429.815 100.633L423.169 93.622L417.249 86.0182L410.54 79.0998L405.186 73.3023L398.942 68.0928L399.435 77.1087L393.905 69.5095L382.337 55.3715L375.867 48.9029L369.152 42.9054L361.953 38.2768L354.188 34.5867L346.418 30.9232L338.515 27.5485L330.696 24.2511L336.895 30.7827L342.282 38.0944L348.444 44.674L342.142 38.8512L335.533 33.2776L328.327 28.4874L320.958 23.9691L313.09 20.4964L305.264 18.9261L297.291 17.6861L289.617 20.3541L283.192 25.2048L277.43 30.1854L274.364 37.2346L276.891 44.5001L283.591 48.1473L291.052 49.2153L296.234 41.5256Z" fill="white"/>
<path d="M429.502 113.865C429.502 113.865 440.304 112.113 440.63 113.282C440.955 114.45 481.593 152.226 482.244 154.563C482.896 156.899 478.427 154.368 477.263 154.692C476.099 155.017 429.502 113.865 429.502 113.865Z" fill="white"/>
<path d="M332.66 121.975L339.457 123.857C339.457 123.857 349.879 161.243 359.697 187.465C369.516 213.687 375.891 232.055 375.891 232.055C375.891 232.055 407.458 228.292 425.708 230.759C443.958 233.226 453.548 240.625 453.548 240.625C453.548 240.625 436.136 236.665 411.227 237.314C386.319 237.962 375.004 242.375 373.514 241.531C372.025 240.687 346.525 167.214 341.779 154.687C337.033 142.161 332.66 121.975 332.66 121.975Z" fill="white"/>
<path d="M477.992 233.811C477.992 233.811 478.068 233.677 478.222 233.42C480.079 230.271 492.951 209.307 511.706 201.749C532.007 193.572 539.178 187.796 539.178 187.796C539.178 187.796 527.086 121.917 523.504 109.066L514.385 76.3535L520.718 72.07C520.718 72.07 533.232 121.463 537.93 142.817C542.628 164.171 548.955 191.366 547.791 191.69C546.627 192.015 524.324 202.009 507.002 211.874C489.681 221.739 477.992 233.811 477.992 233.811Z" fill="white"/>
<path d="M331.261 134.956C331.261 134.956 329.771 134.112 327.769 135.929C325.766 137.747 337.865 172.147 337.865 172.147C337.865 172.147 343.124 182.012 343.449 183.181C343.775 184.349 345.03 197.849 345.03 197.849C345.03 197.849 358.618 233.093 360.246 238.934C361.874 244.776 366.156 251.137 367.646 251.98C369.136 252.824 405.172 251.592 407.826 252.112C410.479 252.631 409.828 250.294 413.646 250.489C417.463 250.684 423.422 254.059 423.422 254.059L424.912 254.903L454.29 256.786C454.29 256.786 459.549 266.652 471.515 264.576C483.48 262.499 486.882 247.701 486.882 247.701L506.719 233.358C506.719 233.358 510.91 225.894 513.238 225.245L523.714 222.325C523.714 222.325 528.045 219.858 529.721 216.873C531.398 213.887 534.239 210.577 537.731 209.604L544.715 207.657C545.879 207.332 558.544 198.765 559.057 196.104C559.57 193.443 558.78 186.109 558.78 186.109C558.78 186.109 535.241 88.1669 534.589 85.8303L532.635 78.8205L526.815 80.4429C526.815 80.4429 547.146 157.875 548.913 168.714C550.68 179.553 554.262 192.405 552.26 194.222C550.258 196.039 515.289 214.601 502.298 221.999C489.307 229.398 477.618 241.47 477.618 241.47C477.618 241.47 478.408 248.804 470.26 251.075C462.112 253.347 458.994 246.662 458.994 246.662C458.994 246.662 434.785 240.819 415.184 242.506C395.582 244.193 377.984 244.062 376.82 244.387L370.999 246.009C370.999 246.009 353.455 205.573 349.873 192.722C346.29 179.871 336.146 152.48 335.169 148.975L331.261 134.956Z" fill="white"/>
<path d="M497.513 72.8474L498.892 80.0427L500.706 87.721L502.826 95.3266L505.519 102.735L508.286 110.412L510.603 118.227L512.241 126.219L513.987 134.193L516.699 141.898L518.888 149.749L520.664 157.652L512.864 163.151L505.3 169.049L498.134 175.428L492.348 182.077L485.995 188.268L481.307 195.795L475.76 202.717L471.38 210.901L473.917 202.45L477.256 194.808L481.433 187.563L487.377 180.806L493.319 174.038L499.874 167.854L505.974 161.206L511.91 154.779L511.609 146.452L510.024 138.068L507.778 129.83L503.229 118.596L497.591 112.638L498.612 103.565L497.817 94.7715L496.388 86.1801L494.02 77.7748L491.174 69.5026L488.597 61.1557L486.018 52.8972L481.11 56.8465L475.848 61.6375L476.359 69.591L472.124 64.6146L464.784 70.8659L465.188 78.7486L466.166 86.3075L465.495 93.9357L460.746 89.0521L456.67 83.6538L454.141 85.5172L449.974 93.3393L445.254 100.888L441.741 109.169L447.485 115.551L454.486 120.373L460.285 126.55L465.524 133.148L471.043 139.491L477.235 145.232L481.941 152.305L488.113 158.064L489.24 159.588L487.943 165.149L483.442 170.018L476.563 173.962L469.156 176.732L461.598 179.229L453.616 179.578L450.367 178.948L453.216 187.458L454.651 196.25L452.679 187.331L449.948 178.209L439.615 176.154L430.451 171.494L423.668 167.19L418.571 173.609L410.833 170.919L401.335 165.735L395.712 169.594L388.871 169.084L381.661 164.596L376.299 157.693L373.918 149.241L373.554 140.554L374.14 131.766L378.773 124.267L379.932 124.914L377.287 133.696L377.022 142.823L378.975 151.81L383.762 159.667L391.243 164.632L398.627 164.123L392.309 157.524L388.224 148.942L386.714 139.567L388.382 139.342L395.883 143.659L400.931 150.965L403.156 159.624L401.678 164.04L413.898 168.276L419.033 164.377L409.814 155.653L407.634 149.046L408.735 142.331L418.178 150.463L422.876 157.011L424.979 164.558L431.725 167.651L438.941 170.676L446.641 172.017L447.372 172.795L446.683 170.771L443.361 162.682L440.672 154.341L436.438 146.62L432.933 138.594L431.005 129.966L427.894 121.642L421.768 118.25L415.704 113.96L408.627 109.272L400.473 106.798L392.76 103.383L384.996 100.058L377.096 97.098L368.819 95.0363L360.842 91.9842L352.795 90.1607L355.603 98.7957L357.795 107.829L359.63 116.975L362.465 125.842L364.8 134.848L367.726 143.677L370.619 151.672L372.536 159.989L374.822 168.19L377.844 176.149L380.438 184.239L383.325 192.21L392.666 193.32L410.589 197.717L419.403 200.221L428.101 203.298L436.174 207.822L443.995 212.793L451.336 218.604L443.567 214.587L435.796 210.874L428.028 207.083L419.618 204.996L411.679 202.437L403.626 200.099L395.22 199.647L387.091 197.531L378.474 197.579L376.318 189.127L373.934 180.978L371.91 172.729L369.033 164.704L366.719 156.536L364.224 147.675L361.388 138.897L359.44 129.795L355.686 121.323L352.531 112.885L344.032 113.089L345.996 120.36L348.172 128.164L351.187 135.697L354.261 143.213L356.141 151.125L358.622 158.856L362.24 167.064L363.651 175.95L366.659 184.404L368.946 193.058L370.447 201.907L372.618 210.593L377.242 227.901L384.889 228.288L390.332 220.815L397.49 225.027L407.32 223.747L417.052 224.144L426.795 225.117L434.44 227.116L441.758 230.012L449.191 232.825L454.979 238.287L460.405 243.939L467.048 245.222L472.585 241.551L476.185 231.784L481.207 223.384L487.27 215.7L493.368 208.057L500.219 201.086L508.005 196.032L516.521 192.425L525.29 189.502L533.106 185.724L532.827 177.026L532.915 168.389L531.007 159.969L529.377 151.509L526.766 143.045L524.796 134.403L521.441 126.147L519.134 117.599L517.827 108.772L515.077 100.347L512.269 91.939L509.787 83.4396L507.083 75.0019L505.11 65.7185L497.54 72.8525L497.513 72.8474ZM486.826 205.512L481.039 213.194L476.588 221.8L472.84 230.765L469.723 239.969L463.377 240.605L456.707 235.804L450.307 230.663L443.543 225.976L435.988 222.68L428.413 219.58L420.643 216.999L412.553 215.338L404.521 213.435L396.454 211.68L387.973 209.247L398.067 210.311L407.72 210.78L417.043 213.356L426.588 215.014L434.348 218.416L442.112 221.653L449.812 225.11L457.011 229.512L464.234 233.957L469.021 225.975L473.441 217.843L478.115 209.816L484.655 203.171L490.646 196.175L496.881 189.338L504.111 183.369L511.675 177.785L520.209 174.109L513.411 180.235L506.1 185.823L499.233 191.968L492.824 198.59L486.837 205.509L486.826 205.512Z" fill="white"/>
<path d="M480.664 166.713C480.917 166.541 483.106 164.899 484.592 163.616C483.759 163.369 482.861 162.94 481.871 162.221C475.586 157.678 440.021 133.597 440.021 133.597L449.471 173.167C455.616 174.199 461.902 174.247 467.988 172.676C472.612 171.488 476.734 169.357 480.675 166.709L480.664 166.713Z" fill="white"/>
</g>
</g>
<defs>
<filter id="filter0_f_1006_132775" x="-59" y="138" width="709" height="204" filterUnits="userSpaceOnUse" color-interpolation-filters="sRGB">
<feFlood flood-opacity="0" result="BackgroundImageFix"/>
<feBlend mode="normal" in="SourceGraphic" in2="BackgroundImageFix" result="shape"/>
<feGaussianBlur stdDeviation="18" result="effect1_foregroundBlur_1006_132775"/>
</filter>
<linearGradient id="paint0_linear_1006_132775" x1="286.761" y1="4.29101" x2="284.551" y2="281.758" gradientUnits="userSpaceOnUse">
<stop stop-color="#1A1A1A"/>
<stop offset="1" stop-color="#101010"/>
</linearGradient>
<radialGradient id="paint1_radial_1006_132775" cx="0" cy="0" r="1" gradientUnits="userSpaceOnUse" gradientTransform="translate(234.824 -7.72141) rotate(80.8498) scale(321.817 596.073)">
<stop offset="0.119792" stop-color="#FFC165" stop-opacity="0.51"/>
<stop offset="1" stop-color="#B45722" stop-opacity="0.19"/>
</radialGradient>
<linearGradient id="paint2_linear_1006_132775" x1="295.5" y1="174" x2="295.5" y2="259.97" gradientUnits="userSpaceOnUse">
<stop stop-opacity="0"/>
<stop offset="1"/>
</linearGradient>
<linearGradient id="paint3_linear_1006_132775" x1="149.264" y1="109.529" x2="499.094" y2="269.626" gradientUnits="userSpaceOnUse">
<stop stop-opacity="0.4"/>
<stop offset="1" stop-opacity="0"/>
</linearGradient>
</defs>
</svg>
