<svg width="452" height="14" fill="none" xmlns="http://www.w3.org/2000/svg"><path d="M411.156 9.727c3.238 0 12.552 1.142 15.424 1.142 1.082 0 14.391 1.117 15.473 1.301 1.623 0 6.492.898 9.014 1.075.391.025.558-.487.233-.705-.549-.361-1.565-1.1-3.313-3.081-1.615-1.83-1.29-1.218-2.605-2.871a.398.398 0 01-.033-.437c1.157-2.09.391-1.184 1.415-2.754 1.714-2.636 2.505-3.19 1.856-3.265-1.082-.185-17.096.487-17.812.848-9.289-.067-9.738.176-19.086.352-15.464 0-25.278.26-40.734.445-10.071.185-11.977-.075-22.049-.26-2.513 0-19.817.504-22.689.865-14.025 1.452-26.46-.11-40.843-.286-18.336-.184-36.564.386-55.258.386-10.787 0-21.583.798-32.37.798-5.393 0-11.145-.185-16.538 0-3.238 0-6.834.546-10.071.546-5.036 0-10.43-.185-15.465 0-13.301 0-26.968.36-40.269.36-9.705 0-19.776 1.025-29.48-.067-10.072-1.09-20.135-.722-30.564.185-5.036.361-10.071.185-14.74.361-6.11.185-11.87.185-17.98.361-2.147 0-4.302 0-6.45-.176-.017 0-.033 0-.05-.009-5.044-1.083-10.429-.36-16.172 0 .358.185.716.361.716.361 18.694.361 37.397.907 56.09 1.092 7.55.184 15.1-.361 22.657-.361 13.3.184 26.252.722 39.552.722 9.348 0 18.695-.428 27.684.117 12.693.546 24.704-.302 37.397-.117 4.677 0 9.347-.185 14.025-.185 8.273 0 16.18.84 24.453.84 2.156 0 4.312-.185 6.476-.185 3.954 0 7.549-.185 11.503 0 5.036.184 15.049.008 19.726.184 8.989 0 13.168.286 22.157.286 8.631 0 20.201.747 28.832.386 11.145-.546 8.34-1.209 19.485.067 4.311.546 15.889.32 20.209.32 11.503 0 22.032 1.225 33.535.495 1.731-.076 3.263.545 3.312-.101.175-2.468 1.041-6.54 2.048-5.448 2.164 2.342.383 5.708 3.071 5.742.941.016 7.017.201 7.982.293" fill="#85816E"/></svg>