<svg width="453" height="14" fill="none" xmlns="http://www.w3.org/2000/svg"><path d="M436.57 4.145c-2.189.184-4.378.184-6.576.184-6.209-.184-12.052-.184-18.253-.36-4.744-.185-9.855 0-14.974-.362-10.587-.906-20.816-1.267-31.037-.184-9.863 1.083-20.084.906-29.939.906-13.509 0-27.384-.36-40.893-.36-5.11-.185-10.587 0-15.698 0-3.287 0-6.941-.546-10.221-.546-5.477-.185-11.32 0-16.796 0-10.954 0-21.916-.798-32.869-.798-18.986 0-37.497.302-56.116.479-14.608.184-27.234 1.737-41.475.285-2.922-.36-20.484 0-23.04 0-10.22.185-12.168.462-22.39.286-10.303-.118-21.215-.168-29.905-.84-2.164-.168-1.04 7.178-2.622 5.54-1.748-1.821-.166-5.607-2.988-5.607-9.655-.185-15.173.537-24.262-1.368C15.783 1.039 2.832-.02 1.742.166.277.35 6.386 4.967 5.212 6.999 4.032 8.737.22 11.809.586 13.077c2.189 0 6.117-.814 7.94-.814 1.099-.185 7.308-.479 8.407-.479 2.921 0 15.281-1.05 18.57-1.05 12.784.362 20.383-1.594 32.801-1.057 11.686.722 16.647-2.015 28.333-2.015 4.378 0 16.139.252 20.517-.294 11.32-1.267 8.473-.604 19.793-.067 8.765.361 20.517-.386 29.282-.386 9.13 0 13.375-.285 22.498-.285 4.744-.185 14.915-.865 20.026-1.05 4.02-.184 7.665 0 11.685 0 2.19 0 4.379.185 6.576.185h24.828c4.745 0 9.497.185 14.242.185 12.776-.185 25.194-.185 37.979-.722 9.131-.546 18.619.722 28.116.722 13.509 0 26.652-.546 40.169-.722 7.666 0 15.34.545 23.006.36 18.985-.184 37.971-.721 56.964-1.082 0 0 .367-.185.733-.361-5.893-.361-11.37-1.092-16.48 0z" fill="#85816E"/></svg>